<?xml version="1.0" encoding="utf-8"?>
<!-- Generator: Adobe Illustrator 23.0.0, SVG Export Plug-In . SVG Version: 6.00 Build 0)  -->
<svg version="1.1" id="Layer_1" xmlns="http://www.w3.org/2000/svg" xmlns:xlink="http://www.w3.org/1999/xlink" x="0px" y="0px"
	 viewBox="0 0 252 506.3" style="enable-background:new 0 0 252 506.3;" xml:space="preserve">
<style type="text/css">
	.st0{fill:#25384F;}
	.st1{fill:#DCDCE9;}
	.st2{fill:#547CBE;}
	.st3{fill:#EFF2FB;}
	.st4{font-family:'Montserrat-Regular';}
	.st5{font-size:8.419px;}
	.st6{fill:#72BE44;}
	.st7{fill:#FFFFFF;}
	.st8{font-family:'Montserrat-SemiBold';}
	.st9{font-size:10.825px;}
	.st10{font-family:'Montserrat-Medium';}
	.st11{opacity:0.35;}
	.st12{fill:none;}
	.st13{fill:none;stroke:#FFFFFF;stroke-width:0.191;stroke-miterlimit:10;}
	.st14{opacity:0.4;fill:#FFFFFF;enable-background:new    ;}
	.st15{font-family:'SegoeUI-Semibold';}
	.st16{font-size:9.02px;}
	.st17{opacity:0.2;fill:#FFFFFF;enable-background:new    ;}
	.st18{fill-rule:evenodd;clip-rule:evenodd;fill:#FFFFFF;}
	.st19{fill-rule:evenodd;clip-rule:evenodd;fill:#547CBE;}
	.st20{clip-path:url(#SVGID_2_);fill:#FFFFFF;}
	.st21{clip-path:url(#SVGID_4_);fill:#FFFFFF;}
</style>
<g id="black-mockup">
	<g id="phone">
		<path id="body" class="st0" d="M37.6,506.3c-19.5,0-35.2-15.8-35.2-35.2c0,0,0,0,0,0V186.8c-1.3,0-2.3-1.1-2.3-2.3l0,0v-31.7
			c0-1.3,1.1-2.3,2.3-2.3c0,0,0,0,0,0V141c-1.3,0-2.3-1.1-2.3-2.3v-31.7c0-1.3,1.1-2.3,2.3-2.4c0,0,0,0,0,0l0,0V86.9
			c-1.3,0-2.3-1-2.3-2.3V70.5c0-1.3,1.1-2.3,2.3-2.4c0,0,0,0,0,0l0,0V35.2C2.3,15.8,18.1,0,37.6,0h176.8c19.5,0,35.2,15.8,35.2,35.2
			v0v81.7c1.3,0,2.3,1.1,2.3,2.3l0,0v52.9c0,1.3-1.1,2.4-2.3,2.4l0,0v296.6c0,19.5-15.8,35.2-35.2,35.2c0,0,0,0,0,0H37.6z"/>
		<path id="camera" class="st1" d="M149.8,20c0-1.9,1.6-3.5,3.6-3.5c1.9,0,3.4,1.6,3.5,3.5l0,0c0,1.9-1.6,3.5-3.5,3.5l0,0
			C151.4,23.5,149.8,21.9,149.8,20z M112.2,21.7c-1,0-1.8-0.8-1.8-1.8l0,0c0-1,0.8-1.8,1.8-1.8h27.6c1,0,1.8,0.8,1.8,1.8
			c0,1-0.8,1.8-1.8,1.8L112.2,21.7z"/>
	</g>
</g>
<path id="Intersection_4" class="st2" d="M38.5,491.4c-2.3,0-4.6-0.3-6.8-1c-0.5-0.2-1-0.4-1.5-0.6c-8.7-3.7-14.4-12.2-14.3-21.6
	v-430c0-13,10.5-23.5,23.5-23.5c0,0,0,0,0,0h22.3c1.6,0,2.9,1.3,2.9,2.9v1.8c0,7.1,5.8,12.9,12.9,12.9c0,0,0,0,0,0h98.1
	c6.5,0,11.7-5.2,11.7-11.7c0,0,0,0,0,0v-2.9c0-1.6,1.3-2.9,2.9-2.9h22.3c10.4,0,19.6,6.9,22.5,16.8c0.5,1.9,0.7,3.8,0.7,5.8v431.3
	c0,12.6-10.2,22.9-22.9,22.9l0,0H38.5z"/>
<g id="Group_429">
	<g id="Rectangle_69">
		<path id="Path_1" class="st3" d="M43.3,307.9h-7.2c-1.3,0-2.4-1.1-2.4-2.4c0,0,0,0,0,0v-7.2c0-1.3,1.1-2.4,2.4-2.4h7.2
			c1.3,0,2.4,1.1,2.4,2.4v7.2C45.7,306.8,44.6,307.9,43.3,307.9z M36.1,297c-0.7,0-1.2,0.6-1.2,1.2v7.2c0,0.7,0.6,1.2,1.2,1.2h7.2
			c0.7,0,1.2-0.6,1.2-1.2v-7.2c0-0.7-0.6-1.2-1.2-1.2L36.1,297z"/>
	</g>
	<g id="Keep_me_signed">
		<text transform="matrix(1 0 0 1 51.718 304.892)" class="st3 st4 st5">Keep me signed</text>
	</g>
</g>
<g id="Group_430">
	<g id="Group_1">
		<path id="Rectangle_70-3" class="st6" d="M43,322.3h165.4c9.1,0,16.5,7.4,16.5,16.5l0,0c0,9.1-7.4,16.5-16.5,16.5c0,0,0,0,0,0H43
			c-9.1,0-16.5-7.4-16.5-16.5v0l0,0C26.5,329.7,33.9,322.3,43,322.3C43,322.3,43,322.3,43,322.3z"/>
	</g>
	<g id="Get_to_App">
		<text transform="matrix(1 0 0 1 96.219 342.778)" class="st7 st8 st9">Get to App</text>
	</g>
</g>
<g id="Create_account">
	<text transform="matrix(1 0 0 1 26.46 383.07)" class="st7 st10 st5">Create account</text>
</g>
<g id="Need_Help_">
	<text transform="matrix(1 0 0 1 175.255 383.07)" class="st7 st10 st5">Need Help?</text>
</g>
<g id="Status_Bar">
	<g id="Battery">
		<g id="Border" class="st11">
			<path id="Rectangle_1" class="st12" d="M217.5,25.5h10c0.9,0,1.6,0.7,1.6,1.6v3.6c0,0.9-0.7,1.6-1.6,1.6h-10
				c-0.9,0-1.6-0.7-1.6-1.6v-3.6C215.9,26.2,216.6,25.5,217.5,25.5z"/>
			<path id="Rectangle_2" class="st13" d="M217.5,25.8h10c0.7,0,1.3,0.6,1.3,1.3v3.6c0,0.7-0.6,1.3-1.3,1.3h-10
				c-0.7,0-1.3-0.6-1.3-1.3v-3.6C216.2,26.3,216.8,25.8,217.5,25.8z"/>
		</g>
		<path id="Cap" class="st14" d="M229.7,27.7v2.4c0.7-0.3,1-1,0.7-1.7C230.3,28,230,27.8,229.7,27.7"/>
		<path id="Capacity" class="st7" d="M217.9,26.7h9.2c0.4,0,0.8,0.4,0.8,0.8v2.8c0,0.4-0.4,0.8-0.8,0.8h-9.2c-0.4,0-0.8-0.4-0.8-0.8
			v-2.8C217.1,27,217.5,26.7,217.9,26.7z"/>
	</g>
	<path id="Wifi" class="st7" d="M208.3,32.1c-0.1,0-0.1,0-0.1-0.1l-1.2-1.2c-0.1-0.1-0.1-0.2,0-0.3c0,0,0,0,0,0l0,0
		c0.8-0.6,1.9-0.6,2.7,0c0,0,0.1,0.1,0.1,0.1c0,0.1,0,0.1-0.1,0.1l-1.2,1.2C208.4,32,208.3,32.1,208.3,32.1z M210.4,29.9
		c0,0-0.1,0-0.1-0.1c-1.1-1-2.8-1-4,0c-0.1,0.1-0.2,0.1-0.3,0l-0.7-0.7c-0.1-0.1-0.1-0.2,0-0.3l0,0c1.7-1.5,4.2-1.5,5.9,0
		c0,0,0.1,0.1,0.1,0.1c0,0.1,0,0.1-0.1,0.1l-0.7,0.7C210.5,29.9,210.4,29.9,210.4,29.9z M212,28.3c0,0-0.1,0-0.1-0.1
		c-2-1.9-5.2-1.9-7.2,0c0,0-0.1,0.1-0.1,0.1c0,0-0.1,0-0.1-0.1l-0.7-0.7c-0.1-0.1-0.1-0.2,0-0.3c0,0,0,0,0,0l0,0
		c2.5-2.4,6.5-2.4,9.1,0c0,0,0.1,0.1,0.1,0.1c0,0.1,0,0.1-0.1,0.1l-0.7,0.7C212.1,28.3,212,28.3,212,28.3L212,28.3z"/>
	<path id="Cellular_Connection" class="st7" d="M200.1,32.1h-0.6c-0.3,0-0.6-0.3-0.6-0.6v-5.2c0-0.3,0.3-0.6,0.6-0.6h0.6
		c0.3,0,0.6,0.3,0.6,0.6v5.2C200.7,31.8,200.4,32.1,200.1,32.1z M197.2,32.1h-0.6c-0.3,0-0.6-0.3-0.6-0.6v-3.8
		c0-0.3,0.3-0.6,0.6-0.6h0.6c0.3,0,0.6,0.3,0.6,0.6v3.8C197.8,31.8,197.6,32.1,197.2,32.1z M194.4,32.1h-0.6c-0.3,0-0.6-0.3-0.6-0.6
		v-2.4c0-0.3,0.3-0.6,0.6-0.6h0.6c0.3,0,0.6,0.3,0.6,0.6v2.4C195,31.8,194.8,32.1,194.4,32.1z M191.6,32.1H191
		c-0.3,0-0.6-0.3-0.6-0.6v-1.2c0-0.3,0.3-0.6,0.6-0.6h0.6c0.3,0,0.6,0.3,0.6,0.6v1.2C192.2,31.8,192,32.1,191.6,32.1L191.6,32.1z"/>
	<g id="Time_Style">
		<g id="_Time">
			<text transform="matrix(1 0 0 1 34.683 33.274)" class="st7 st15 st16">9:41</text>
		</g>
	</g>
</g>
<g id="Group_431">
	<path id="Path_210" class="st17" d="M43,251.4h165.4c9.1,0,16.5,7.4,16.5,16.5s-7.4,16.5-16.5,16.5H43c-9.1,0-16.5-7.4-16.5-16.5
		S33.9,251.4,43,251.4z"/>
	<g id="Password">
		<text transform="matrix(1 0 0 1 73.968 271.818)" class="st3 st4 st9">Password</text>
	</g>
	<path id="Path_28" class="st3" d="M58.9,267.4c-0.2-0.2-0.4-0.3-0.7-0.3h-0.3v-1.8c0-1.1-0.4-2.2-1.3-3c-1.7-1.7-4.3-1.7-6,0l0,0
		c-0.8,0.8-1.3,1.9-1.3,3v1.8H49c-0.5,0-0.9,0.4-0.9,0.9c0,0,0,0,0,0v5.5c0,0.5,0.4,0.9,0.9,0.9c0,0,0,0,0,0h9.2
		c0.5,0,0.9-0.4,0.9-0.9v0V268C59.1,267.8,59,267.6,58.9,267.4z M56.1,267.1h-4.9v-1.8c0-0.7,0.3-1.3,0.7-1.7c1-1,2.5-1,3.5,0l0,0
		c0.5,0.5,0.7,1.1,0.7,1.7V267.1z"/>
</g>
<g id="Group_432">
	<path id="Path_209" class="st17" d="M43,205.1h165.4c9.1,0.1,16.5,7.5,16.4,16.7c-0.1,9-7.4,16.3-16.4,16.4H43
		c-9.1,0.1-16.6-7.3-16.7-16.4c-0.1-9.1,7.3-16.6,16.4-16.7C42.8,205.1,42.9,205.1,43,205.1z"/>
	<g id="Username">
		<text transform="matrix(1 0 0 1 73.968 225.511)" class="st3 st4 st9">Username</text>
	</g>
	<g id="user-shape">
		<g id="Group_96">
			<path id="Path_29" class="st3" d="M52.7,221.6c1.8,0,3.2-1.4,3.2-3.2c0-0.8-0.3-1.6-0.9-2.2c-1.2-1.2-3.2-1.2-4.5,0l0,0
				c-1.2,1.2-1.2,3.2,0,4.5C51.1,221.3,51.9,221.6,52.7,221.6L52.7,221.6z"/>
			<path id="Path_30" class="st3" d="M58.5,225c0-0.3-0.1-0.6-0.1-0.9c-0.1-0.3-0.1-0.6-0.2-0.9c-0.1-0.3-0.2-0.6-0.4-0.8
				c-0.1-0.2-0.3-0.5-0.5-0.7c-0.2-0.2-0.4-0.3-0.7-0.4c-0.3-0.1-0.6-0.2-0.9-0.2c-0.1,0-0.2,0.1-0.3,0.2c-0.2,0.1-0.4,0.3-0.6,0.4
				c-0.3,0.2-0.6,0.3-0.9,0.4c-0.7,0.2-1.5,0.2-2.2,0c-0.3-0.1-0.6-0.2-0.9-0.4c-0.2-0.1-0.4-0.3-0.6-0.4c-0.1-0.1-0.2-0.1-0.3-0.2
				c-0.3,0-0.6,0.1-0.9,0.2c-0.3,0.1-0.5,0.3-0.7,0.4c-0.2,0.2-0.4,0.4-0.5,0.7c-0.1,0.3-0.3,0.5-0.4,0.8c-0.1,0.3-0.2,0.6-0.2,0.9
				c-0.1,0.3-0.1,0.6-0.1,0.9c0,0.3,0,0.6,0,0.9c0,0.6,0.2,1.2,0.6,1.6c0.4,0.4,1,0.6,1.6,0.6h7.2c0.6,0,1.2-0.2,1.6-0.6
				c0.4-0.4,0.6-1,0.6-1.6C58.5,225.5,58.5,225.3,58.5,225z"/>
		</g>
	</g>
</g>
<g>
	<path class="st7" d="M96.6,137.6v-4.9l-3.7-5.9c-0.3-0.5-0.6-0.9-0.7-1.2c-0.1-0.3-0.2-0.6-0.2-0.8c0-0.4,0.1-0.7,0.4-0.9
		c0.3-0.3,0.6-0.4,1-0.4c0.4,0,0.7,0.1,1,0.4c0.2,0.2,0.5,0.7,1,1.5l2.8,4.7l2.9-4.7c0.2-0.3,0.3-0.5,0.4-0.7
		c0.1-0.2,0.2-0.4,0.4-0.6c0.1-0.2,0.3-0.3,0.5-0.4c0.2-0.1,0.4-0.1,0.6-0.1c0.4,0,0.7,0.1,1,0.4c0.3,0.3,0.4,0.6,0.4,0.9
		c0,0.3-0.1,0.6-0.2,0.8c-0.1,0.3-0.4,0.7-0.7,1.1l-3.8,6v4.9c0,0.6-0.1,1.1-0.4,1.4c-0.3,0.3-0.7,0.5-1.1,0.5
		c-0.5,0-0.8-0.2-1.1-0.5C96.7,138.7,96.6,138.2,96.6,137.6 M77.2,132.8v-7.5c0-0.6,0.1-1.1,0.4-1.4c0.3-0.3,0.6-0.5,1.1-0.5
		c0.5,0,0.8,0.2,1.1,0.5c0.3,0.3,0.4,0.8,0.4,1.4v7.7c0,0.9,0.1,1.6,0.3,2.2c0.2,0.6,0.5,1,1,1.4c0.5,0.3,1.2,0.5,2,0.5
		c1.2,0,2-0.3,2.5-1c0.5-0.7,0.7-1.6,0.7-3v-7.7c0-0.6,0.1-1.1,0.4-1.4c0.3-0.3,0.6-0.5,1.1-0.5c0.5,0,0.8,0.2,1.1,0.5
		c0.3,0.3,0.4,0.8,0.4,1.4v7.5c0,1.2-0.1,2.2-0.3,3c-0.2,0.8-0.7,1.5-1.3,2.1c-0.5,0.5-1.2,0.9-1.9,1.1c-0.7,0.2-1.6,0.4-2.6,0.4
		c-1.2,0-2.2-0.1-3-0.4c-0.8-0.3-1.5-0.7-2.1-1.2c-0.5-0.5-0.9-1.2-1.2-2.1C77.3,135,77.2,134,77.2,132.8z M65.8,126.1v4h2.8
		c0.8,0,1.4-0.1,1.8-0.2c0.4-0.1,0.7-0.4,1-0.8c0.2-0.3,0.3-0.6,0.3-1c0-0.8-0.3-1.3-0.8-1.6c-0.5-0.3-1.4-0.4-2.5-0.4H65.8z
		 M69,132.3h-3.2v4.5h3.3c2.1,0,3.1-0.8,3.1-2.3c0-0.8-0.3-1.4-0.8-1.7C70.9,132.5,70.1,132.3,69,132.3z M69.2,139.2h-4.6
		c-0.7,0-1.1-0.2-1.4-0.5c-0.3-0.3-0.4-0.8-0.4-1.5v-11.7c0-0.7,0.1-1.2,0.4-1.5c0.3-0.3,0.8-0.5,1.4-0.5h4.9c0.7,0,1.3,0,1.9,0.1
		c0.5,0.1,1,0.3,1.4,0.5c0.4,0.2,0.7,0.5,1,0.8c0.3,0.3,0.5,0.7,0.6,1.1c0.1,0.4,0.2,0.8,0.2,1.3c0,1.6-0.8,2.7-2.3,3.4
		c2,0.7,3,1.9,3,3.8c0,0.9-0.2,1.7-0.7,2.3c-0.4,0.7-1,1.2-1.8,1.5c-0.5,0.2-1,0.3-1.6,0.4C70.7,139.2,70,139.2,69.2,139.2z"/>
	<rect x="62.7" y="143" class="st18" width="126.2" height="0.9"/>
	<path class="st7" d="M116,149.6h-0.9l-0.3,1.6c0,0.1,0,0.1,0,0.1c0,0,0,0.1,0,0.1c0,0.1,0,0.1,0.1,0.2c0,0,0.1,0.1,0.2,0.1
		c0.1,0,0.2,0,0.3,0c0.1,0,0.2,0,0.3-0.1l-0.1,0.7c-0.1,0-0.2,0.1-0.4,0.1c-0.1,0-0.3,0-0.4,0c-0.2,0-0.3,0-0.4,0
		c-0.1,0-0.2-0.1-0.3-0.1c-0.1-0.1-0.1-0.1-0.2-0.2c0-0.1-0.1-0.2-0.1-0.3c0,0,0-0.1,0-0.1c0-0.1,0-0.1,0-0.2l0.4-1.7h-0.6l0.1-0.7
		h0.6l0.2-0.9h0.8l-0.2,0.9h0.9L116,149.6z M112.2,151.3c0-0.1,0-0.1-0.1-0.2c0,0-0.1-0.1-0.2-0.1c-0.1,0-0.2-0.1-0.2-0.1
		c-0.1,0-0.2-0.1-0.3-0.1c-0.1,0-0.2-0.1-0.2-0.1c-0.1,0-0.1-0.1-0.2-0.2c-0.1-0.1-0.1-0.1-0.1-0.2c0-0.1-0.1-0.2-0.1-0.3
		c0-0.2,0-0.4,0.1-0.5s0.2-0.3,0.3-0.3c0.1-0.1,0.3-0.2,0.4-0.2c0.2,0,0.3-0.1,0.5-0.1c0.1,0,0.2,0,0.3,0c0.1,0,0.2,0,0.3,0.1
		c0.1,0,0.2,0,0.3,0.1c0.1,0,0.2,0.1,0.2,0.1l-0.1,0.6c-0.2-0.1-0.3-0.1-0.5-0.2c-0.2,0-0.3-0.1-0.5-0.1c-0.2,0-0.3,0-0.4,0.1
		c-0.1,0.1-0.1,0.1-0.1,0.3c0,0.1,0,0.1,0,0.2c0,0,0.1,0.1,0.1,0.1c0.1,0,0.1,0.1,0.2,0.1c0.1,0,0.1,0.1,0.2,0.1
		c0.1,0,0.2,0.1,0.3,0.1c0.1,0,0.2,0.1,0.3,0.2c0.1,0.1,0.1,0.2,0.2,0.3c0,0.1,0.1,0.2,0.1,0.4c0,0.2,0,0.4-0.1,0.5
		c-0.1,0.1-0.2,0.3-0.3,0.4c-0.1,0.1-0.3,0.2-0.5,0.2c-0.2,0.1-0.4,0.1-0.6,0.1c-0.1,0-0.2,0-0.4,0c-0.1,0-0.2,0-0.3-0.1
		c-0.1,0-0.2,0-0.2-0.1c-0.1,0-0.1,0-0.2-0.1l0.1-0.7c0.2,0.1,0.3,0.1,0.5,0.1c0.2,0,0.3,0,0.5,0c0.2,0,0.4,0,0.5-0.1
		C112.2,151.5,112.2,151.4,112.2,151.3z M110.2,149.8c0,0.2,0,0.4-0.1,0.5c-0.1,0.2-0.2,0.3-0.4,0.4c-0.2,0.1-0.4,0.2-0.7,0.2
		c-0.3,0.1-0.6,0.1-0.9,0.1c0,0-0.1,0-0.2,0v0c0,0.1,0,0.2,0.1,0.3c0,0.1,0.1,0.2,0.2,0.2c0.1,0.1,0.2,0.1,0.2,0.1
		c0.1,0,0.2,0,0.3,0c0.2,0,0.4,0,0.6-0.1c0.2,0,0.4-0.1,0.5-0.2l-0.1,0.7c-0.1,0.1-0.3,0.1-0.5,0.1c-0.2,0-0.4,0.1-0.6,0.1
		c-0.2,0-0.5,0-0.6-0.1c-0.2-0.1-0.3-0.2-0.5-0.3c-0.1-0.1-0.2-0.3-0.3-0.4c-0.1-0.2-0.1-0.4-0.1-0.6c0-0.2,0-0.4,0.1-0.5
		c0-0.2,0.1-0.3,0.2-0.5c0.1-0.2,0.2-0.3,0.3-0.4c0.1-0.1,0.2-0.3,0.4-0.4c0.1-0.1,0.3-0.2,0.5-0.2c0.2-0.1,0.4-0.1,0.6-0.1
		c0.2,0,0.3,0,0.5,0.1c0.1,0,0.3,0.1,0.4,0.2c0.1,0.1,0.2,0.2,0.2,0.3C110.2,149.5,110.2,149.6,110.2,149.8z M109.4,149.8
		c0-0.1,0-0.1-0.1-0.2c-0.1-0.1-0.2-0.1-0.3-0.1c-0.1,0-0.2,0-0.3,0.1c-0.1,0-0.2,0.1-0.3,0.2c-0.1,0.1-0.2,0.2-0.2,0.3
		c-0.1,0.1-0.1,0.2-0.2,0.4c0.2,0,0.5,0,0.6,0c0.2,0,0.3-0.1,0.4-0.1c0.1-0.1,0.2-0.1,0.2-0.2C109.4,149.9,109.4,149.8,109.4,149.8z
		 M107,149.6c-0.1,0-0.2,0-0.3,0c-0.1,0-0.2,0-0.3,0c-0.1,0-0.2,0-0.2,0.1c-0.1,0-0.2,0.1-0.2,0.2c-0.1,0.1-0.1,0.2-0.2,0.3
		c0,0-0.1,0.1-0.1,0.2c0,0.1,0,0.2-0.1,0.3l-0.4,1.7h-0.8l0.7-3.4h0.7v0.4h0c0.1-0.2,0.3-0.3,0.4-0.4c0.2-0.1,0.4-0.1,0.6-0.1
		c0.1,0,0.2,0,0.3,0L107,149.6z M102.8,149.8c0,0.2,0,0.4-0.1,0.5c-0.1,0.2-0.2,0.3-0.4,0.4c-0.2,0.1-0.4,0.2-0.7,0.2
		c-0.3,0.1-0.6,0.1-0.9,0.1c0,0-0.1,0-0.2,0v0c0,0.1,0,0.2,0.1,0.3c0,0.1,0.1,0.2,0.2,0.2c0.1,0.1,0.2,0.1,0.2,0.1
		c0.1,0,0.2,0,0.3,0c0.2,0,0.4,0,0.6-0.1c0.2,0,0.4-0.1,0.5-0.2l-0.2,0.7c-0.1,0.1-0.3,0.1-0.5,0.1c-0.2,0-0.4,0.1-0.6,0.1
		c-0.2,0-0.5,0-0.6-0.1c-0.2-0.1-0.3-0.2-0.5-0.3c-0.1-0.1-0.2-0.3-0.3-0.4c-0.1-0.2-0.1-0.4-0.1-0.6c0-0.2,0-0.4,0.1-0.5
		c0-0.2,0.1-0.3,0.2-0.5c0.1-0.2,0.2-0.3,0.3-0.4c0.1-0.1,0.2-0.3,0.4-0.4c0.1-0.1,0.3-0.2,0.5-0.2c0.2-0.1,0.4-0.1,0.6-0.1
		c0.2,0,0.3,0,0.5,0.1c0.1,0,0.3,0.1,0.4,0.2c0.1,0.1,0.2,0.2,0.2,0.3C102.7,149.5,102.8,149.6,102.8,149.8z M101.9,149.8
		c0-0.1,0-0.1-0.1-0.2c-0.1-0.1-0.2-0.1-0.3-0.1c-0.1,0-0.2,0-0.3,0.1c-0.1,0-0.2,0.1-0.3,0.2c-0.1,0.1-0.2,0.2-0.2,0.3
		c-0.1,0.1-0.1,0.2-0.2,0.4c0.2,0,0.5,0,0.6,0c0.2,0,0.3-0.1,0.4-0.1c0.1-0.1,0.2-0.1,0.2-0.2C101.9,149.9,101.9,149.8,101.9,149.8z
		 M98.3,150.3c0-0.1,0-0.1,0-0.2c0-0.1,0-0.1,0-0.1c0-0.1,0-0.2-0.1-0.3c-0.1-0.1-0.2-0.1-0.3-0.1c-0.2,0-0.3,0-0.5,0.1
		c-0.1,0.1-0.3,0.2-0.4,0.4c0,0,0,0.1-0.1,0.1c0,0,0,0.1-0.1,0.1c0,0,0,0.1,0,0.2c0,0.1,0,0.1,0,0.2l-0.3,1.7h-0.8l1-5h0.8l-0.3,1.6
		c0,0.1-0.1,0.3-0.1,0.5h0c0.1-0.1,0.1-0.1,0.2-0.2c0.1-0.1,0.2-0.1,0.2-0.2c0.1,0,0.2-0.1,0.3-0.1c0.1,0,0.2,0,0.3,0
		c0.1,0,0.3,0,0.4,0.1c0.1,0,0.2,0.1,0.3,0.2c0.1,0.1,0.2,0.2,0.2,0.3c0.1,0.1,0.1,0.2,0.1,0.4c0,0.1,0,0.2,0,0.3
		c0,0.1,0,0.2-0.1,0.3l-0.4,2h-0.8L98.3,150.3z M95.5,149.6h-0.9l-0.3,1.6c0,0.1,0,0.1,0,0.1c0,0,0,0.1,0,0.1c0,0.1,0,0.1,0.1,0.2
		s0.1,0.1,0.2,0.1c0.1,0,0.2,0,0.3,0c0.1,0,0.2,0,0.3-0.1l-0.1,0.7c-0.1,0-0.2,0.1-0.4,0.1c-0.1,0-0.3,0-0.4,0c-0.2,0-0.3,0-0.4,0
		c-0.1,0-0.2-0.1-0.3-0.1c-0.1-0.1-0.1-0.1-0.2-0.2c0-0.1-0.1-0.2-0.1-0.3c0,0,0-0.1,0-0.1c0-0.1,0-0.1,0-0.2l0.4-1.7h-0.6l0.1-0.7
		H94l0.2-0.9H95l-0.2,0.9h0.9L95.5,149.6z M91.4,149.6h-0.9l-0.3,1.6c0,0.1,0,0.1,0,0.1c0,0,0,0.1,0,0.1c0,0.1,0,0.1,0.1,0.2
		s0.1,0.1,0.2,0.1c0.1,0,0.2,0,0.3,0c0.1,0,0.2,0,0.3-0.1l-0.1,0.7c-0.1,0-0.2,0.1-0.4,0.1c-0.1,0-0.3,0-0.4,0c-0.2,0-0.3,0-0.4,0
		c-0.1,0-0.2-0.1-0.3-0.1c-0.1-0.1-0.1-0.1-0.2-0.2c0-0.1-0.1-0.2-0.1-0.3c0,0,0-0.1,0-0.1c0-0.1,0-0.1,0-0.2l0.4-1.7h-0.6l0.1-0.7
		h0.6L90,148h0.8l-0.2,0.9h0.9L91.4,149.6z M88.6,149.8c0,0.2,0,0.4-0.1,0.5c-0.1,0.2-0.2,0.3-0.4,0.4c-0.2,0.1-0.4,0.2-0.7,0.2
		c-0.3,0.1-0.6,0.1-0.9,0.1c0,0-0.1,0-0.2,0v0c0,0.1,0,0.2,0.1,0.3c0,0.1,0.1,0.2,0.2,0.2c0.1,0.1,0.2,0.1,0.2,0.1
		c0.1,0,0.2,0,0.3,0c0.2,0,0.4,0,0.6-0.1c0.2,0,0.4-0.1,0.5-0.2l-0.2,0.7c-0.1,0.1-0.3,0.1-0.5,0.1c-0.2,0-0.4,0.1-0.6,0.1
		c-0.2,0-0.5,0-0.6-0.1c-0.2-0.1-0.3-0.2-0.5-0.3c-0.1-0.1-0.2-0.3-0.3-0.4c-0.1-0.2-0.1-0.4-0.1-0.6c0-0.2,0-0.4,0.1-0.5
		c0-0.2,0.1-0.3,0.2-0.5c0.1-0.2,0.2-0.3,0.3-0.4c0.1-0.1,0.2-0.3,0.4-0.4c0.1-0.1,0.3-0.2,0.5-0.2c0.2-0.1,0.4-0.1,0.6-0.1
		c0.2,0,0.3,0,0.5,0.1c0.1,0,0.3,0.1,0.4,0.2c0.1,0.1,0.2,0.2,0.2,0.3C88.6,149.5,88.6,149.6,88.6,149.8z M87.8,149.8
		c0-0.1,0-0.1-0.1-0.2c-0.1-0.1-0.2-0.1-0.3-0.1c-0.1,0-0.2,0-0.3,0.1c-0.1,0-0.2,0.1-0.3,0.2c-0.1,0.1-0.2,0.2-0.2,0.3
		c-0.1,0.1-0.1,0.2-0.2,0.4c0.2,0,0.5,0,0.6,0c0.2,0,0.3-0.1,0.4-0.1c0.1-0.1,0.2-0.1,0.2-0.2C87.8,149.9,87.8,149.8,87.8,149.8z
		 M84.2,149.8C84.2,149.8,84.2,149.7,84.2,149.8c-0.1-0.1-0.2-0.2-0.2-0.2c0,0-0.1,0-0.2-0.1c-0.1,0-0.1,0-0.2,0
		c-0.1,0-0.2,0-0.3,0.1c-0.1,0.1-0.2,0.1-0.2,0.2c-0.1,0.1-0.1,0.2-0.2,0.3c-0.1,0.1-0.1,0.2-0.1,0.3c0,0.1-0.1,0.2-0.1,0.4
		c0,0.1,0,0.2,0,0.3c0,0.2,0,0.3,0.1,0.4c0.1,0.1,0.2,0.1,0.3,0.1c0.1,0,0.2,0,0.3-0.1c0.1-0.1,0.2-0.2,0.3-0.3
		c0.1-0.2,0.2-0.4,0.3-0.8L84.2,149.8z M83.8,151.9c-0.1,0.2-0.3,0.3-0.4,0.3c-0.2,0.1-0.3,0.1-0.5,0.1c-0.2,0-0.3,0-0.4-0.1
		c-0.1-0.1-0.2-0.1-0.3-0.2c-0.1-0.1-0.1-0.2-0.2-0.4c0-0.1-0.1-0.3-0.1-0.5c0-0.2,0-0.4,0-0.6c0-0.2,0.1-0.4,0.1-0.5
		c0.1-0.2,0.1-0.3,0.2-0.5c0.1-0.2,0.2-0.3,0.3-0.4c0.1-0.1,0.3-0.2,0.4-0.3c0.1-0.1,0.3-0.1,0.5-0.1c0.2,0,0.3,0,0.5,0.1
		c0.1,0.1,0.3,0.2,0.4,0.3h0l0.1-0.3h0.7l-0.7,3.4c-0.1,0.3-0.1,0.5-0.2,0.7c-0.1,0.2-0.2,0.4-0.4,0.5c-0.2,0.1-0.4,0.2-0.6,0.3
		c-0.2,0.1-0.5,0.1-0.8,0.1c-0.2,0-0.4,0-0.6,0c-0.2,0-0.4-0.1-0.6-0.1l0.1-0.7c0.1,0.1,0.3,0.1,0.5,0.1c0.2,0,0.3,0.1,0.5,0.1
		c0.2,0,0.4,0,0.5-0.1c0.1,0,0.3-0.1,0.4-0.2c0.1-0.1,0.2-0.2,0.2-0.4c0.1-0.1,0.1-0.3,0.2-0.5C83.7,152.1,83.8,152,83.8,151.9
		L83.8,151.9z M81.7,149.6c-0.1,0-0.2,0-0.3,0c-0.1,0-0.2,0-0.3,0c-0.1,0-0.2,0-0.2,0.1c-0.1,0-0.2,0.1-0.2,0.2
		c-0.1,0.1-0.1,0.2-0.2,0.3c0,0-0.1,0.1-0.1,0.2c0,0.1,0,0.2-0.1,0.3l-0.4,1.7h-0.8l0.7-3.4h0.7v0.4h0c0.1-0.2,0.3-0.3,0.4-0.4
		c0.2-0.1,0.4-0.1,0.6-0.1c0.1,0,0.2,0,0.3,0L81.7,149.6z M77.6,148.9c0.2,0,0.4,0,0.5,0.1c0.2,0.1,0.3,0.1,0.4,0.2
		c0.1,0.1,0.2,0.2,0.3,0.4c0.1,0.2,0.1,0.3,0.1,0.6c0,0.3,0,0.6-0.1,0.9c-0.1,0.3-0.2,0.5-0.4,0.7c-0.2,0.2-0.4,0.4-0.6,0.5
		c-0.2,0.1-0.5,0.2-0.8,0.2c-0.2,0-0.4,0-0.5-0.1c-0.2-0.1-0.3-0.1-0.4-0.2c-0.1-0.1-0.2-0.2-0.3-0.4c-0.1-0.2-0.1-0.3-0.1-0.6
		c0-0.3,0-0.6,0.1-0.9c0.1-0.3,0.2-0.5,0.4-0.7c0.2-0.2,0.4-0.4,0.6-0.5C77,148.9,77.3,148.9,77.6,148.9z M77.5,149.5
		c-0.1,0-0.2,0-0.3,0.1c-0.1,0-0.2,0.1-0.3,0.2c-0.1,0.1-0.1,0.2-0.2,0.3c-0.1,0.1-0.1,0.2-0.1,0.3c0,0.1-0.1,0.2-0.1,0.4
		c0,0.1,0,0.2,0,0.4c0,0.2,0,0.3,0.1,0.5c0.1,0.1,0.2,0.2,0.4,0.2c0.1,0,0.2,0,0.3-0.1c0.1,0,0.2-0.1,0.3-0.2
		c0.1-0.1,0.1-0.2,0.2-0.3c0.1-0.1,0.1-0.2,0.1-0.3c0-0.1,0.1-0.2,0.1-0.4c0-0.1,0-0.2,0-0.4c0-0.2,0-0.3-0.1-0.5
		C77.8,149.6,77.7,149.5,77.5,149.5z M72,152.3l1-4.6h2.9l-0.2,0.7h-2l-0.3,1.2h1.7l-0.1,0.7h-1.7l-0.4,2H72z"/>
	<polygon class="st18" points="121.3,111.9 121.3,151.6 122.9,151.6 122.9,112.1 	"/>
	<path class="st18" d="M116.9,156.4l0.1,1c0.1,2.4,4.2,3.3,4.2-1.2l0-4.5c0,0,0.7-1.9,1.9,0.1v5.3c0,5.3-7,5.6-7.9,1.7
		c-0.2-0.7-0.1-1.5-0.1-2.2C115.1,155.2,116.8,155,116.9,156.4"/>
	<path class="st7" d="M163.6,149.6h-0.9l-0.3,1.6c0,0.1,0,0.1,0,0.1c0,0,0,0.1,0,0.1c0,0.1,0,0.1,0.1,0.2c0,0,0.1,0.1,0.2,0.1
		c0.1,0,0.2,0,0.3,0c0.1,0,0.2,0,0.3-0.1l-0.1,0.7c-0.1,0-0.2,0.1-0.4,0.1c-0.1,0-0.3,0-0.4,0c-0.2,0-0.3,0-0.4,0
		c-0.1,0-0.2-0.1-0.3-0.1c-0.1-0.1-0.1-0.1-0.2-0.2c0-0.1-0.1-0.2-0.1-0.3c0,0,0-0.1,0-0.1c0-0.1,0-0.1,0-0.2l0.4-1.7h-0.6l0.1-0.7
		h0.6l0.2-0.9h0.8l-0.2,0.9h0.9L163.6,149.6z M159.9,151.3c0-0.1,0-0.1-0.1-0.2c0,0-0.1-0.1-0.2-0.1c-0.1,0-0.2-0.1-0.2-0.1
		c-0.1,0-0.2-0.1-0.3-0.1c-0.1,0-0.2-0.1-0.2-0.1c-0.1,0-0.1-0.1-0.2-0.2c-0.1-0.1-0.1-0.1-0.1-0.2c0-0.1-0.1-0.2-0.1-0.3
		c0-0.2,0-0.4,0.1-0.5c0.1-0.1,0.2-0.3,0.3-0.3c0.1-0.1,0.3-0.2,0.4-0.2c0.2,0,0.3-0.1,0.5-0.1c0.1,0,0.2,0,0.3,0
		c0.1,0,0.2,0,0.3,0.1c0.1,0,0.2,0,0.3,0.1c0.1,0,0.2,0.1,0.2,0.1l-0.1,0.6c-0.2-0.1-0.3-0.1-0.5-0.2c-0.2,0-0.3-0.1-0.5-0.1
		c-0.2,0-0.3,0-0.4,0.1c-0.1,0.1-0.1,0.1-0.1,0.3c0,0.1,0,0.1,0,0.2s0.1,0.1,0.1,0.1c0.1,0,0.1,0.1,0.2,0.1c0.1,0,0.1,0.1,0.2,0.1
		c0.1,0,0.2,0.1,0.3,0.1c0.1,0,0.2,0.1,0.3,0.2c0.1,0.1,0.1,0.2,0.2,0.3c0.1,0.1,0.1,0.2,0.1,0.4c0,0.2,0,0.4-0.1,0.5
		c-0.1,0.1-0.2,0.3-0.3,0.4c-0.1,0.1-0.3,0.2-0.5,0.2c-0.2,0.1-0.4,0.1-0.6,0.1c-0.1,0-0.2,0-0.4,0c-0.1,0-0.2,0-0.3-0.1
		c-0.1,0-0.2,0-0.2-0.1c-0.1,0-0.1,0-0.2-0.1l0.1-0.7c0.2,0.1,0.3,0.1,0.5,0.1c0.2,0,0.3,0,0.5,0c0.2,0,0.4,0,0.5-0.1
		C159.8,151.5,159.9,151.4,159.9,151.3z M157.9,149.8c0,0.2,0,0.4-0.1,0.5c-0.1,0.2-0.2,0.3-0.4,0.4c-0.2,0.1-0.4,0.2-0.7,0.2
		c-0.3,0.1-0.6,0.1-0.9,0.1c0,0-0.1,0-0.2,0v0c0,0.1,0,0.2,0.1,0.3c0,0.1,0.1,0.2,0.2,0.2c0.1,0.1,0.2,0.1,0.2,0.1
		c0.1,0,0.2,0,0.3,0c0.2,0,0.4,0,0.6-0.1c0.2,0,0.4-0.1,0.5-0.2l-0.2,0.7c-0.1,0.1-0.3,0.1-0.5,0.1c-0.2,0-0.4,0.1-0.6,0.1
		c-0.3,0-0.5,0-0.7-0.1c-0.2-0.1-0.3-0.2-0.5-0.3c-0.1-0.1-0.2-0.3-0.3-0.4c-0.1-0.2-0.1-0.4-0.1-0.6c0-0.2,0-0.4,0.1-0.5
		c0-0.2,0.1-0.3,0.2-0.5c0.1-0.2,0.2-0.3,0.3-0.4c0.1-0.1,0.2-0.3,0.4-0.4c0.1-0.1,0.3-0.2,0.5-0.2c0.2-0.1,0.4-0.1,0.6-0.1
		c0.2,0,0.3,0,0.5,0.1c0.1,0,0.3,0.1,0.4,0.2c0.1,0.1,0.2,0.2,0.2,0.3C157.8,149.5,157.9,149.6,157.9,149.8z M157,149.8
		c0-0.1,0-0.1-0.1-0.2c-0.1-0.1-0.2-0.1-0.3-0.1c-0.1,0-0.2,0-0.3,0.1c-0.1,0-0.2,0.1-0.3,0.2c-0.1,0.1-0.2,0.2-0.2,0.3
		c-0.1,0.1-0.1,0.2-0.2,0.4c0.2,0,0.5,0,0.6,0c0.2,0,0.3-0.1,0.4-0.1c0.1-0.1,0.2-0.1,0.2-0.2C157,149.9,157,149.8,157,149.8z
		 M152.5,148.7c0,0.2-0.1,0.3-0.1,0.5h0c0,0,0.1-0.1,0.2-0.1c0.1,0,0.1-0.1,0.2-0.1c0.1,0,0.2-0.1,0.2-0.1c0.1,0,0.2,0,0.3,0
		c0.1,0,0.3,0,0.4,0.1c0.1,0.1,0.2,0.1,0.3,0.2c0.1,0.1,0.2,0.2,0.2,0.4c0.1,0.2,0.1,0.3,0.1,0.5c0,0.2,0,0.3-0.1,0.5
		c0,0.2-0.1,0.4-0.2,0.5c-0.1,0.2-0.2,0.3-0.3,0.5c-0.1,0.2-0.2,0.3-0.4,0.4c-0.1,0.1-0.3,0.2-0.5,0.3c-0.2,0.1-0.4,0.1-0.6,0.1
		c-0.2,0-0.3,0-0.5-0.1c-0.1-0.1-0.3-0.1-0.4-0.2c-0.1-0.1-0.2-0.2-0.2-0.3c-0.1-0.1-0.1-0.3-0.1-0.4c0-0.1,0-0.1,0-0.2
		c0-0.1,0-0.1,0-0.3l0.8-3.6h0.8L152.5,148.7z M152.1,151c0,0.1,0,0.1,0,0.2c0,0,0,0.1,0,0.1c0,0.1,0,0.3,0.1,0.3
		c0.1,0.1,0.2,0.1,0.3,0.1c0.1,0,0.2,0,0.3-0.1c0.1,0,0.2-0.1,0.3-0.2c0.1-0.1,0.1-0.2,0.2-0.3c0.1-0.1,0.1-0.2,0.2-0.3
		c0-0.1,0.1-0.2,0.1-0.4c0-0.1,0-0.2,0-0.3c0-0.1,0-0.2,0-0.2c0-0.1,0-0.1-0.1-0.2c0-0.1-0.1-0.1-0.1-0.1c-0.1,0-0.1,0-0.2,0
		c-0.1,0-0.2,0-0.2,0c-0.1,0-0.2,0.1-0.2,0.2c-0.1,0.1-0.1,0.2-0.2,0.3c-0.1,0.1-0.1,0.2-0.1,0.4L152.1,151z M149.3,149.8
		c0,0.2,0,0.4-0.1,0.5c-0.1,0.2-0.2,0.3-0.4,0.4c-0.2,0.1-0.4,0.2-0.7,0.2c-0.3,0.1-0.6,0.1-0.9,0.1c0,0-0.1,0-0.2,0v0
		c0,0.1,0,0.2,0.1,0.3c0,0.1,0.1,0.2,0.2,0.2c0.1,0.1,0.2,0.1,0.3,0.1c0.1,0,0.2,0,0.3,0c0.2,0,0.4,0,0.6-0.1c0.2,0,0.4-0.1,0.5-0.2
		l-0.1,0.7c-0.1,0.1-0.3,0.1-0.5,0.1c-0.2,0-0.4,0.1-0.6,0.1c-0.2,0-0.5,0-0.7-0.1c-0.2-0.1-0.3-0.2-0.5-0.3
		c-0.1-0.1-0.2-0.3-0.3-0.4c-0.1-0.2-0.1-0.4-0.1-0.6c0-0.2,0-0.4,0.1-0.5c0-0.2,0.1-0.3,0.2-0.5c0.1-0.2,0.2-0.3,0.3-0.4
		c0.1-0.1,0.2-0.3,0.4-0.4c0.1-0.1,0.3-0.2,0.5-0.2c0.2-0.1,0.4-0.1,0.6-0.1c0.2,0,0.3,0,0.5,0.1c0.1,0,0.3,0.1,0.4,0.2
		c0.1,0.1,0.2,0.2,0.2,0.3C149.3,149.5,149.3,149.6,149.3,149.8z M148.5,149.8c0-0.1,0-0.1-0.1-0.2c-0.1-0.1-0.2-0.1-0.3-0.1
		c-0.1,0-0.2,0-0.3,0.1c-0.1,0-0.2,0.1-0.3,0.2c-0.1,0.1-0.2,0.2-0.2,0.3c-0.1,0.1-0.1,0.2-0.2,0.4c0.2,0,0.5,0,0.6,0
		c0.2,0,0.3-0.1,0.4-0.1c0.1-0.1,0.2-0.1,0.2-0.2C148.4,149.9,148.5,149.8,148.5,149.8z M144.8,150.3c0-0.1,0-0.1,0-0.2
		c0-0.1,0-0.1,0-0.1c0-0.1,0-0.2-0.1-0.3c-0.1-0.1-0.2-0.1-0.3-0.1c-0.2,0-0.3,0-0.5,0.1c-0.1,0.1-0.3,0.2-0.4,0.4
		c0,0,0,0.1-0.1,0.1c0,0,0,0.1-0.1,0.1c0,0,0,0.1,0,0.2c0,0.1,0,0.1,0,0.2l-0.4,1.7h-0.8l1-5h0.8l-0.3,1.6c0,0.1-0.1,0.3-0.1,0.5h0
		c0.1-0.1,0.1-0.1,0.2-0.2c0.1-0.1,0.2-0.1,0.2-0.2c0.1,0,0.2-0.1,0.3-0.1c0.1,0,0.2,0,0.3,0c0.1,0,0.3,0,0.4,0.1
		c0.1,0,0.2,0.1,0.3,0.2c0.1,0.1,0.2,0.2,0.2,0.3c0.1,0.1,0.1,0.2,0.1,0.4c0,0.1,0,0.2,0,0.3c0,0.1,0,0.2-0.1,0.3l-0.4,2h-0.8
		L144.8,150.3z M142,149.6h-0.9l-0.3,1.6c0,0.1,0,0.1,0,0.1c0,0,0,0.1,0,0.1c0,0.1,0,0.1,0.1,0.2c0,0,0.1,0.1,0.2,0.1
		c0.1,0,0.2,0,0.3,0c0.1,0,0.2,0,0.3-0.1l-0.1,0.7c-0.1,0-0.2,0.1-0.4,0.1c-0.1,0-0.3,0-0.4,0c-0.2,0-0.3,0-0.4,0
		c-0.1,0-0.2-0.1-0.3-0.1c-0.1-0.1-0.1-0.1-0.2-0.2c0-0.1-0.1-0.2-0.1-0.3c0,0,0-0.1,0-0.1c0-0.1,0-0.1,0-0.2l0.4-1.7h-0.6l0.1-0.7
		h0.6l0.2-0.9h0.8l-0.2,0.9h0.9L142,149.6z M134.7,148.9h0.8l0.3,1.5c0.1,0.3,0.1,0.6,0.2,0.9h0c0.1-0.3,0.3-0.5,0.4-0.8l0.8-1.5
		h0.9l-2,3.5c-0.1,0.2-0.3,0.4-0.4,0.6c-0.1,0.2-0.3,0.4-0.4,0.5c-0.2,0.1-0.3,0.2-0.5,0.3c-0.2,0.1-0.4,0.1-0.7,0.1
		c-0.2,0-0.3,0-0.4,0l0.1-0.7c0.1,0,0.2,0,0.3,0c0.1,0,0.3,0,0.4-0.1c0.1,0,0.2-0.1,0.3-0.2c0.1-0.1,0.2-0.2,0.3-0.3
		c0.1-0.1,0.2-0.3,0.3-0.5L134.7,148.9z M132.2,152.4c-0.2,0-0.4,0-0.6-0.1c-0.2,0-0.3-0.1-0.4-0.2c-0.1-0.1-0.2-0.2-0.2-0.3
		c0-0.1-0.1-0.3-0.1-0.4c0,0,0-0.1,0-0.2c0-0.1,0-0.1,0-0.2l0.4-2h0.8l-0.4,2c0,0.1,0,0.1,0,0.2c0,0,0,0.1,0,0.1
		c0,0.1,0,0.2,0.1,0.3c0.1,0.1,0.2,0.1,0.4,0.1c0.1,0,0.2,0,0.3-0.1c0.1,0,0.2-0.1,0.2-0.1c0.1-0.1,0.1-0.1,0.2-0.2
		c0-0.1,0.1-0.2,0.1-0.3l0.4-2h0.8l-0.5,2.3c0,0.2-0.1,0.3-0.2,0.4c-0.1,0.1-0.2,0.3-0.3,0.4c-0.1,0.1-0.3,0.2-0.5,0.3
		C132.7,152.4,132.5,152.4,132.2,152.4z M130.4,148.8c0,0.3-0.1,0.5-0.2,0.7c-0.1,0.2-0.3,0.3-0.6,0.4v0c0.1,0,0.2,0.1,0.3,0.1
		c0.1,0.1,0.2,0.1,0.2,0.2c0.1,0.1,0.1,0.2,0.1,0.2c0,0.1,0,0.2,0,0.3c0,0.3-0.1,0.6-0.3,0.8c-0.2,0.2-0.5,0.4-0.9,0.5
		c-0.2,0.1-0.4,0.1-0.6,0.1c-0.2,0-0.5,0-0.7,0h-1.3l1-4.6h1.3c0.2,0,0.4,0,0.5,0c0.1,0,0.3,0.1,0.4,0.1c0.3,0.1,0.4,0.2,0.6,0.4
		C130.3,148.4,130.4,148.6,130.4,148.8z M127.7,150.3l-0.3,1.3h0.4c0.4,0,0.7,0,0.9-0.1c0.2-0.1,0.3-0.2,0.4-0.3
		c0.1-0.1,0.1-0.3,0.1-0.4c0-0.1,0-0.2-0.1-0.3c-0.1-0.1-0.1-0.1-0.3-0.2c-0.1,0-0.1,0-0.2,0c-0.1,0-0.2,0-0.3,0H127.7z
		 M128.5,149.6c0.1,0,0.3,0,0.4,0c0.1,0,0.2,0,0.2-0.1c0.1-0.1,0.3-0.1,0.3-0.2c0.1-0.1,0.1-0.2,0.1-0.4c0-0.1,0-0.2-0.1-0.2
		c0-0.1-0.1-0.1-0.2-0.2c-0.1,0-0.1,0-0.2,0c-0.1,0-0.2,0-0.3,0h-0.6l-0.3,1.2H128.5z"/>
	<path class="st18" d="M97.5,114c0,0-0.4-19.8,23.9-21.6l0-1.1c0-0.7,1.4-0.8,1.4,0.1l0,0.9c0,0,23.3,1.5,23.8,21.9
		c0,0-7.9-4.3-14.4,1.2c0,0-9.7-6.4-20.4,0C111.8,115.4,106.5,110.1,97.5,114"/>
	<path class="st19" d="M122.1,92.4c0,0-10.8,10.5-10.3,23c0,0.1,9.2-6.4,20.4,0C132.3,115.4,133.5,103.2,122.1,92.4"/>
	<path class="st7" d="M126.1,108.1h-0.8v-0.5c0-0.1,0-0.4,0.4-0.4c0.4,0,0.4,0.3,0.4,0.4V108.1z M127.2,108.8v-1.2
		c0-0.6-0.5-1-1.4-1c-0.9,0-1.5,0.4-1.5,1.1v1.6c0,0.6,0.3,1.2,1.5,1.2c0.8,0,1.4-0.3,1.4-1v-0.3h-1v0.1c0,0.3,0,0.5-0.4,0.5
		c-0.3,0-0.4-0.2-0.4-0.4v-0.7H127.2z M123.4,106.6v-0.5c0-0.1,0-0.3,0.3-0.3c0.1,0,0.1,0,0.2,0v-0.7c-0.1,0-0.3,0-0.4,0
		c-0.7,0-1.2,0.1-1.2,0.9v0.6h-0.5v0.6h0.5v3.3h1.1v-3.3h0.5v-0.6H123.4z M121.3,110.5v-3.9h-1.1v3.9H121.3z M121.3,106.1v-0.9h-1.1
		v0.9H121.3z M119.8,110.5v-0.8h-1.7v-4.5h-1.2v5.3H119.8z"/>
	<path class="st2" d="M111.8,109.4l0.2-1.9c0-0.3-0.1-0.6-0.5-0.6c-0.3,0-0.5,0.1-0.6,0.2l0.1-1.1l-0.6-0.1l-0.4,3.4l0.6,0.1
		l0.2-1.8c0-0.1,0.1-0.3,0.3-0.2c0.2,0,0.2,0.2,0.2,0.3l-0.2,1.7L111.8,109.4z M109.6,107l0.4,0l0-0.4l-0.4,0l0.1-0.9l-0.6-0.1
		l-0.1,0.9l-0.3,0l0,0.4l0.3,0l-0.2,1.6c0,0.4,0.1,0.5,0.6,0.6c0.2,0,0.3,0,0.3,0l0.1-0.4c0,0-0.1,0-0.1,0c-0.2,0-0.3-0.1-0.3-0.3
		L109.6,107z M108.1,108.9l0.4-3.4l-0.6-0.1l-0.4,3.4L108.1,108.9z M106.5,108.2c-0.2,0.1-0.3,0.1-0.3,0.1c-0.1,0-0.1-0.1-0.1-0.3
		c0-0.2,0.1-0.3,0.2-0.4l0.3-0.1L106.5,108.2z M107.2,108.8c-0.1-0.1-0.1-0.3-0.1-0.5l0.2-1.5c0.1-0.5-0.7-0.6-0.7-0.6
		c-0.8-0.1-0.9,0.3-0.9,0.4l0,0.3l0.6,0.1l0-0.1c0-0.2,0.1-0.3,0.3-0.3c0.2,0,0.2,0.1,0.2,0.3l0,0.2l-0.7,0.2
		c-0.3,0.1-0.4,0.2-0.5,0.6l0,0.2c0,0.3,0,0.7,0.5,0.7c0.3,0,0.5-0.1,0.6-0.2c0,0.1,0,0.2,0,0.2L107.2,108.8z M104.6,107l-0.4-0.1
		l0-0.3c0-0.1,0-0.2,0.3-0.2c0.2,0,0.2,0.2,0.2,0.3L104.6,107z M105.1,107.4l0.1-0.7c0.1-0.4-0.2-0.7-0.8-0.8
		c-0.5-0.1-0.9,0.2-1,0.6l-0.1,1c-0.1,0.4,0.1,0.8,0.8,0.9c0.5,0.1,0.9-0.1,0.9-0.6l0-0.2l-0.6-0.1l0,0.1c0,0.2-0.1,0.3-0.3,0.3
		c-0.2,0-0.2-0.1-0.2-0.3l0.1-0.4L105.1,107.4z M102.8,108.3l0.4-3.4l-0.7-0.1l-0.2,1.3l-0.6-0.1l0.2-1.3l-0.7-0.1l-0.4,3.4l0.7,0.1
		l0.2-1.5l0.6,0.1l-0.2,1.5L102.8,108.3z"/>
	<path class="st2" d="M143.6,106L143.6,106c-0.3,0-0.5,0.2-0.6,0.4l0-0.3l-0.6,0.1l0.1,2.4l0.6-0.1l-0.1-1.4c0-0.2,0-0.5,0.4-0.6
		c0.1,0,0.2,0,0.2,0L143.6,106z M141.1,107c0-0.1,0-0.3,0.2-0.3c0.2,0,0.2,0.1,0.2,0.3l0.1,1.2c0,0.1,0,0.3-0.2,0.3
		c-0.2,0-0.2-0.2-0.2-0.2L141.1,107z M142.1,106.9c0-0.5-0.4-0.6-0.8-0.6c-0.5,0.1-0.8,0.3-0.8,0.8l0,1.1c0,0.5,0.3,0.7,0.8,0.6
		c0.5-0.1,0.8-0.3,0.8-0.8L142.1,106.9z M139.9,106.9l0.4,0l0-0.4l-0.4,0l0-0.9l-0.6,0.1l0,0.9l-0.3,0l0,0.4l0.3,0l0.1,1.6
		c0,0.4,0.2,0.5,0.7,0.4c0.2,0,0.2,0,0.3-0.1l0-0.4c0,0-0.1,0-0.1,0c-0.2,0-0.3,0-0.3-0.2L139.9,106.9z M137.8,107.4
		c0-0.1,0-0.3,0.2-0.3c0.2,0,0.2,0.1,0.2,0.3l0.1,1.2c0,0.1,0,0.3-0.2,0.3c-0.2,0-0.2-0.2-0.2-0.2L137.8,107.4z M138.8,107.3
		c0-0.5-0.4-0.6-0.8-0.6c-0.5,0.1-0.8,0.3-0.8,0.8l0,1.1c0,0.5,0.3,0.7,0.8,0.6c0.5-0.1,0.8-0.3,0.8-0.8L138.8,107.3z M136.8,109.4
		l-0.1-3.4l-1,0.1l-0.3,2.4l-0.5-2.3l-1.1,0.1l0.1,3.4l0.6-0.1c-0.1-0.8-0.2-2.9-0.2-2.9l0.7,2.8l0.6-0.1l0.4-3
		c0,0.7,0.1,2.9,0.1,2.9L136.8,109.4z"/>
	<path class="st2" d="M121.9,93.5c6.6,0,11.9,1.7,11.9,3.8c0,2.1-5.3,3.8-11.9,3.8c-6.6,0-11.9-1.7-11.9-3.8
		C110,95.2,115.3,93.5,121.9,93.5z"/>
	<path class="st19" d="M121.9,93.5c6.6,0,11.9,1.7,11.9,3.8s-5.3,3.8-11.9,3.8c-6.6,0-11.9-1.7-11.9-3.8S115.3,93.5,121.9,93.5"/>
	<path class="st7" d="M129.3,97.3h-0.4V97c0-0.1,0-0.3,0.2-0.3c0.2,0,0.2,0.2,0.2,0.3V97.3z M129.9,97.8V97c0-0.4-0.3-0.7-0.8-0.7
		c-0.5,0-0.8,0.3-0.8,0.8v1.1c0,0.4,0.2,0.8,0.8,0.8c0.5,0,0.8-0.2,0.8-0.7v-0.2h-0.6v0.1c0,0.2,0,0.4-0.2,0.4
		c-0.2,0-0.2-0.1-0.2-0.3v-0.5H129.9z M127.4,97.9v0.3c0,0.2,0,0.3-0.2,0.3c-0.2,0-0.2-0.2-0.2-0.3v-1.1c0-0.2,0.1-0.4,0.2-0.4
		c0.2,0,0.2,0.2,0.2,0.3v0.3h0.6V97c0-0.6-0.5-0.7-0.8-0.7c-0.5,0-0.8,0.3-0.8,0.8v1.2c0,0.5,0.3,0.8,0.8,0.8c0.5,0,0.8-0.3,0.8-0.8
		v-0.3H127.4z M126,98.9v-2.1c0-0.2-0.1-0.5-0.5-0.5c-0.2,0-0.3,0.1-0.5,0.2v-0.2h-0.6v2.6h0.6V97c0-0.2,0.1-0.4,0.2-0.4
		c0.2,0,0.2,0.1,0.2,0.3v1.9H126z M123.4,98.4c-0.1,0.1-0.2,0.1-0.3,0.1c-0.1,0-0.1-0.1-0.1-0.3c0-0.3,0-0.4,0.1-0.4l0.3-0.2V98.4z
		 M124.1,98.9c-0.1-0.1-0.1-0.3-0.1-0.5v-1.6c0-0.6-0.7-0.6-0.7-0.6c-0.7,0-0.8,0.4-0.8,0.6v0.3h0.5V97c0-0.2,0-0.3,0.2-0.3
		c0.1,0,0.2,0.1,0.2,0.3v0.2l-0.6,0.3c-0.3,0.1-0.4,0.3-0.4,0.7v0.2c0,0.4,0.1,0.7,0.5,0.7c0.3,0,0.4-0.2,0.5-0.3
		c0,0.1,0,0.2,0.1,0.2H124.1z M122.3,96.3L122.3,96.3c-0.3,0-0.4,0.1-0.6,0.4v-0.3h-0.6v2.6h0.6v-1.5c0-0.3,0-0.6,0.4-0.6
		c0.1,0,0.2,0,0.2,0V96.3z M120.7,98.9v-2.6h-0.6v1.9c0,0.2,0,0.3-0.2,0.3s-0.2-0.2-0.2-0.3v-1.9h-0.6v2.1c0,0.3,0.1,0.6,0.5,0.6
		c0.3,0,0.5-0.2,0.5-0.3v0.2H120.7z M117.2,98v0.3c0,0.6,0.4,0.7,0.8,0.7c0.6,0,0.8-0.2,0.8-0.8c0-0.3,0-0.4-0.2-0.6l-0.5-0.4
		c-0.1-0.1-0.2-0.2-0.2-0.3c0-0.1,0-0.2,0.2-0.2c0.2,0,0.2,0.1,0.2,0.3v0.2h0.5v-0.3c0-0.3-0.1-0.6-0.7-0.6c-0.4,0-0.8,0.1-0.8,0.7
		c0,0.3,0.1,0.5,0.3,0.6l0.5,0.4c0.1,0.1,0.2,0.2,0.2,0.3c0,0.3-0.2,0.3-0.2,0.3c-0.2,0-0.2-0.2-0.2-0.3V98H117.2z M116.8,98.9v-2.1
		c0-0.2-0.1-0.5-0.5-0.5c-0.2,0-0.3,0.1-0.5,0.2v-0.2h-0.6v2.6h0.6V97c0-0.2,0.1-0.4,0.2-0.4c0.2,0,0.2,0.1,0.2,0.3v1.9H116.8z
		 M114.7,98.9v-3.6h-0.6v3.6H114.7z"/>
	<g>
		<defs>
			<path id="SVGID_1_" d="M122,116.8c3.7,0,7,1.3,9.7,3.4c1.4,1.1,2.6,2.4,3.5,4c1.5,2.4,2.4,5.2,2.4,8.2c0,8.6-7,15.6-15.6,15.6
				c-8.6,0-15.6-7-15.6-15.6C106.5,123.8,113.4,116.8,122,116.8"/>
		</defs>
		<use xlink:href="#SVGID_1_"  style="overflow:visible;fill-rule:evenodd;clip-rule:evenodd;fill:#FFFFFF;"/>
		<clipPath id="SVGID_2_">
			<use xlink:href="#SVGID_1_"  style="overflow:visible;"/>
		</clipPath>
		<rect x="106.5" y="116.8" class="st20" width="31.1" height="31.1"/>
	</g>
	<path class="st7" d="M122,118.1c3.3,0,6.4,1.2,8.9,3.1c1.3,1,2.4,2.2,3.2,3.6c1.4,2.2,2.2,4.8,2.2,7.5c0,7.9-6.4,14.2-14.2,14.2
		c-7.9,0-14.2-6.4-14.2-14.2C107.8,124.5,114.2,118.1,122,118.1z"/>
	<path class="st7" d="M187.9,126.3h-3v11.3c0,0.7-0.1,1.1-0.4,1.4c-0.3,0.3-0.6,0.5-1,0.5c-0.4,0-0.7-0.2-1-0.5
		c-0.3-0.3-0.4-0.8-0.4-1.4v-11.3h-3c-0.5,0-0.8-0.1-1-0.4c-0.2-0.2-0.3-0.6-0.3-0.9c0-0.4,0.1-0.7,0.4-1c0.2-0.2,0.6-0.4,1-0.4h8.7
		c0.5,0,0.8,0.1,1.1,0.4c0.2,0.2,0.3,0.6,0.3,0.9c0,0.4-0.1,0.7-0.4,0.9C188.7,126.2,188.3,126.3,187.9,126.3 M176.7,134.6
		c0,0.9-0.2,1.8-0.6,2.5c-0.4,0.7-1,1.3-1.9,1.8c-0.8,0.4-1.8,0.6-2.9,0.6c-1.3,0-2.4-0.3-3.3-0.9c-0.6-0.4-1.1-1-1.5-1.7
		c-0.4-0.7-0.6-1.4-0.6-2c0-0.4,0.1-0.7,0.3-1c0.2-0.3,0.5-0.4,0.9-0.4c0.3,0,0.5,0.1,0.7,0.3c0.2,0.2,0.4,0.5,0.5,0.9
		c0.2,0.5,0.4,0.9,0.6,1.2c0.2,0.3,0.5,0.6,0.8,0.8c0.4,0.2,0.8,0.3,1.4,0.3c0.8,0,1.5-0.2,2-0.7c0.5-0.4,0.8-1,0.8-1.6
		c0-0.5-0.1-0.9-0.4-1.3c-0.3-0.3-0.6-0.6-1.1-0.7c-0.4-0.2-1-0.4-1.7-0.5c-1-0.3-1.8-0.6-2.4-0.9c-0.7-0.4-1.2-0.8-1.6-1.4
		c-0.4-0.6-0.6-1.4-0.6-2.3c0-0.9,0.2-1.6,0.6-2.3c0.4-0.7,1-1.2,1.8-1.5c0.8-0.4,1.7-0.5,2.7-0.5c0.8,0,1.6,0.1,2.2,0.4
		c0.6,0.2,1.1,0.6,1.5,0.9c0.4,0.4,0.7,0.8,0.9,1.2c0.2,0.4,0.3,0.9,0.3,1.3c0,0.4-0.1,0.7-0.3,1c-0.2,0.3-0.5,0.4-0.9,0.4
		c-0.3,0-0.6-0.1-0.7-0.3c-0.2-0.2-0.3-0.5-0.5-0.9c-0.2-0.6-0.5-1-0.9-1.4c-0.3-0.3-0.9-0.5-1.7-0.5c-0.7,0-1.3,0.2-1.7,0.5
		c-0.4,0.4-0.7,0.8-0.7,1.3c0,0.3,0.1,0.6,0.2,0.8c0.1,0.2,0.4,0.4,0.6,0.6c0.3,0.2,0.5,0.3,0.8,0.4c0.3,0.1,0.7,0.2,1.3,0.4
		c0.8,0.2,1.5,0.4,2.1,0.7c0.6,0.2,1.1,0.5,1.6,0.9c0.4,0.4,0.8,0.8,1,1.3C176.6,133.1,176.7,133.8,176.7,134.6z M162.7,126.1h-6.2
		v3.8h5.7c0.4,0,0.7,0.1,0.9,0.3c0.2,0.2,0.3,0.5,0.3,0.9c0,0.4-0.1,0.6-0.3,0.9c-0.2,0.2-0.5,0.3-0.9,0.3h-5.7v4.4h6.4
		c0.4,0,0.8,0.1,1,0.3c0.2,0.2,0.3,0.5,0.3,0.9c0,0.4-0.1,0.7-0.3,0.9c-0.2,0.2-0.5,0.3-1,0.3h-7.5c-0.6,0-1-0.2-1.3-0.5
		c-0.3-0.3-0.4-0.8-0.4-1.5v-11.7c0-0.5,0.1-0.8,0.2-1.1c0.1-0.3,0.3-0.5,0.5-0.6c0.2-0.1,0.6-0.2,1-0.2h7.2c0.4,0,0.8,0.1,1,0.3
		c0.2,0.2,0.3,0.5,0.3,0.9c0,0.4-0.1,0.7-0.3,0.9C163.5,126,163.2,126.1,162.7,126.1z M142.9,126.1v4h2.5c0.7,0,1.2-0.1,1.6-0.2
		c0.4-0.1,0.7-0.4,0.9-0.8c0.2-0.3,0.2-0.6,0.2-1c0-0.8-0.2-1.3-0.7-1.6c-0.5-0.3-1.2-0.4-2.2-0.4H142.9z M145.8,132.3h-2.9v4.5h3
		c1.9,0,2.8-0.8,2.8-2.3c0-0.8-0.2-1.4-0.7-1.7C147.4,132.5,146.7,132.3,145.8,132.3z M146,139.2h-4.1c-0.6,0-1-0.2-1.3-0.5
		c-0.3-0.3-0.4-0.8-0.4-1.5v-11.7c0-0.7,0.1-1.2,0.4-1.5c0.3-0.3,0.7-0.5,1.3-0.5h4.4c0.6,0,1.2,0,1.7,0.1c0.5,0.1,0.9,0.3,1.3,0.5
		c0.3,0.2,0.6,0.5,0.9,0.8c0.2,0.3,0.4,0.7,0.6,1.1c0.1,0.4,0.2,0.8,0.2,1.3c0,1.6-0.7,2.7-2,3.4c1.8,0.7,2.7,1.9,2.7,3.8
		c0,0.9-0.2,1.7-0.6,2.3c-0.4,0.7-0.9,1.2-1.6,1.5c-0.4,0.2-0.9,0.3-1.4,0.4C147.3,139.2,146.7,139.2,146,139.2z"/>
	<g>
		<defs>
			<path id="SVGID_3_" d="M131.5,120c0,0,9.4-6.6,13-6.4l-9.3,10.5L131.5,120z"/>
		</defs>
		<use xlink:href="#SVGID_3_"  style="overflow:visible;fill-rule:evenodd;clip-rule:evenodd;fill:#FFFFFF;"/>
		<clipPath id="SVGID_4_">
			<use xlink:href="#SVGID_3_"  style="overflow:visible;"/>
		</clipPath>
		<rect x="131.5" y="113.5" class="st21" width="13" height="10.7"/>
	</g>
	<path class="st19" d="M111.8,131.9l1.9-1.8c1-0.9,2-1.2,2.9-0.2c0.9,1,2.8,3.4,3.3,4.8c0,0,9.3-14.4,23-20.5
		c-3.9,3.6-9.1,8.1-12.5,12.2c-3.4,4.1-9.1,11.8-11.3,16.8c0,0-1.9-5.7-7.5-10.7C111.3,132.2,111.4,132.3,111.8,131.9"/>
</g>
</svg>
