<?xml version="1.0" encoding="utf-8"?>
<!-- Generator: Adobe Illustrator 23.0.0, SVG Export Plug-In . SVG Version: 6.00 Build 0)  -->
<svg version="1.1" id="Layer_1" xmlns="http://www.w3.org/2000/svg" xmlns:xlink="http://www.w3.org/1999/xlink" x="0px" y="0px"
	 viewBox="0 0 595.3 563.8" style="enable-background:new 0 0 595.3 563.8;" xml:space="preserve">
<style type="text/css">
	.st0{opacity:7.000000e-02;fill:#4286F5;}
	.st1{fill:#4286F5;}
	.st2{clip-path:url(#SVGID_4_);fill:#4286F5;}
	.st3{opacity:0.46;fill:#A7B7CE;}
</style>
<path class="st0" d="M215,78.2c-46.2-27.9-155.9-76-167,137c0,0-1.8,61.5-36,129c-19.6,38.7-10,200,127,152c0,0,134-62,287,27
	s158-106,158-106s6-101,6-168c0,0,8.7-137.9-160-121C326.9,138.5,262.2,106.7,215,78.2z"/>
<g>
	
		<image style="overflow:visible;opacity:0.5;" width="429" height="521" xlink:href="CD7A5E90.png"  transform="matrix(1 0 0 1 57 62.2)">
	</image>
	<g>
		<g>
			<g>
				<defs>
					<path id="SVGID_1_" d="M424.1,454.8l-164.9,71c-6.1,2.6-13.2-0.2-15.8-6.3l-140-325.2c-2.6-6.1,0.2-13.2,6.3-15.8l164.9-71
						c6.1-2.6,13.2,0.2,15.8,6.3l140,325.2C433,445.1,430.2,452.2,424.1,454.8z"/>
				</defs>
				<clipPath id="SVGID_2_">
					<use xlink:href="#SVGID_1_"  style="overflow:visible;"/>
				</clipPath>
			</g>
		</g>
		<g>
			<path class="st1" d="M424.1,454.8l-164.9,71c-6.1,2.6-13.2-0.2-15.8-6.3L93,170c-2.6-6.1,0.2-13.2,6.3-15.8l164.9-71
				c6.1-2.6,13.2,0.2,15.8,6.3L430.4,439C433,445.1,430.2,452.2,424.1,454.8z"/>
			<g>
				<defs>
					<path id="SVGID_3_" d="M424.1,454.8l-164.9,71c-6.1,2.6-13.2-0.2-15.8-6.3l-140-325.2c-2.6-6.1,0.2-13.2,6.3-15.8l164.9-71
						c6.1-2.6,13.2,0.2,15.8,6.3l140,325.2C433,445.1,430.2,452.2,424.1,454.8z"/>
				</defs>
				<clipPath id="SVGID_4_">
					<use xlink:href="#SVGID_3_"  style="overflow:visible;"/>
				</clipPath>
				<g transform="matrix(1 2.980232e-08 -2.980232e-08 1 0 1.525879e-05)" style="clip-path:url(#SVGID_4_);">
					
						<image style="overflow:visible;" width="720" height="1280" xlink:href="../WhatsApp Image 2021-11-18 at 11.17.46 AM (1).jpeg"  transform="matrix(0.2797 -0.1191 0.1191 0.2797 90.0219 180.5613)">
					</image>
				</g>
				
					<rect x="226.2" y="472.2" transform="matrix(0.921 -0.3895 0.3895 0.921 -164.9048 173.1958)" class="st2" width="236.8" height="42.1"/>
				
					<rect x="62.5" y="114.2" transform="matrix(0.9185 -0.3954 0.3954 0.9185 -38.7523 82.5545)" class="st2" width="236.8" height="42.1"/>
			</g>
		</g>
		<g>
			<g>
				<defs>
					<path id="SVGID_5_" d="M424.1,454.8l-164.9,71c-6.1,2.6-13.2-0.2-15.8-6.3l-140-325.2c-2.6-6.1,0.2-13.2,6.3-15.8l164.9-71
						c6.1-2.6,13.2,0.2,15.8,6.3l140,325.2C433,445.1,430.2,452.2,424.1,454.8z"/>
				</defs>
				<clipPath id="SVGID_6_">
					<use xlink:href="#SVGID_5_"  style="overflow:visible;"/>
				</clipPath>
			</g>
		</g>
	</g>
</g>
<g>
	
		<image style="overflow:visible;opacity:0.5;" width="248" height="476" xlink:href="CD7A5E97.png"  transform="matrix(1 0 0 1 229 35.2)">
	</image>
	<g>
		<g>
			<g>
				<defs>
					<path id="SVGID_7_" d="M438.4,447.1H258.9c-6.6,0-12-5.4-12-12v-354c0-6.6,5.4-12,12-12h179.5c6.6,0,12,5.4,12,12v354
						C450.4,441.7,445,447.1,438.4,447.1z"/>
				</defs>
				<clipPath id="SVGID_8_">
					<use xlink:href="#SVGID_7_"  style="overflow:visible;"/>
				</clipPath>
			</g>
		</g>
		<g>
			<path class="st1" d="M438.4,447.1H258.9c-6.6,0-12-5.4-12-12V54.6c0-6.6,5.4-12,12-12h179.5c6.6,0,12,5.4,12,12v380.5
				C450.4,441.7,445,447.1,438.4,447.1z"/>
			<g>
				<defs>
					<path id="SVGID_9_" d="M438.4,447.1H258.9c-6.6,0-12-5.4-12-12v-354c0-6.6,5.4-12,12-12h179.5c6.6,0,12,5.4,12,12v354
						C450.4,441.7,445,447.1,438.4,447.1z"/>
				</defs>
				<clipPath id="SVGID_10_">
					<use xlink:href="#SVGID_9_"  style="overflow:visible;"/>
				</clipPath>
				<g style="clip-path:url(#SVGID_10_);">
					
						<image style="overflow:visible;" width="1080" height="2160" xlink:href="../Screenshot_20211202-115705.png"  transform="matrix(0.2012 0 0 0.2012 235.7676 53.08)">
					</image>
				</g>
			</g>
		</g>
		<g>
			<g>
				<defs>
					<path id="SVGID_11_" d="M438.4,447.1H258.9c-6.6,0-12-5.4-12-12v-354c0-6.6,5.4-12,12-12h179.5c6.6,0,12,5.4,12,12v354
						C450.4,441.7,445,447.1,438.4,447.1z"/>
				</defs>
				<clipPath id="SVGID_12_">
					<use xlink:href="#SVGID_11_"  style="overflow:visible;"/>
				</clipPath>
			</g>
		</g>
	</g>
</g>
<rect x="307" y="56.9" class="st3" width="85.3" height="3.4"/>
<rect x="149" y="128" transform="matrix(0.9185 -0.3954 0.3954 0.9185 -35.6513 86.371)" class="st3" width="85.3" height="3.4"/>
</svg>
