<?xml version="1.0" encoding="utf-8"?>
<!-- Generator: Adobe Illustrator 23.0.0, SVG Export Plug-In . SVG Version: 6.00 Build 0)  -->
<svg version="1.1" id="Group_2" xmlns="http://www.w3.org/2000/svg" xmlns:xlink="http://www.w3.org/1999/xlink" x="0px" y="0px"
	 viewBox="0 0 1366 769" style="enable-background:new 0 0 1366 769;" xml:space="preserve">
<style type="text/css">
	.st0{fill:url(#Path_2_1_);}
	.st1{opacity:0.3;fill:url(#Path_3_1_);enable-background:new    ;}
	.st2{opacity:0.14;fill:url(#Path_4_1_);enable-background:new    ;}
	.st3{fill:#547CBE;}
	.st4{opacity:0.19;fill:url(#Path_6_1_);enable-background:new    ;}
	.st5{opacity:0.2;fill:#FFFFFF;enable-background:new    ;}
	.st6{opacity:0.12;fill:#FFFFFF;enable-background:new    ;}
	.st7{opacity:0.13;fill:#FFFFFF;enable-background:new    ;}
	.st8{opacity:0.3;fill:url(#Path_7_1_);enable-background:new    ;}
</style>
<linearGradient id="Path_2_1_" gradientUnits="userSpaceOnUse" x1="636.868" y1="384.5" x2="1366" y2="384.5">
	<stop  offset="0" style="stop-color:#547CBE"/>
	<stop  offset="1" style="stop-color:#73BE44"/>
</linearGradient>
<path id="Path_2" class="st0" d="M825.5,769H1366V0H787.7c-34,19.4-80.6,54.3-112.2,112.5c-46.2,85.1-57.3,214.9,2,262
	c67.8,53.8,176-41.1,240,6c71.7,52.9,78.8,222.9-4,323C887.9,734.5,856.6,755.2,825.5,769z"/>
<linearGradient id="Path_3_1_" gradientUnits="userSpaceOnUse" x1="385.4684" y1="805.8209" x2="384.4865" y2="804.7748" gradientTransform="matrix(547.932 0 0 -769 -209750.75 619693.25)">
	<stop  offset="0" style="stop-color:#FFFFFF;stop-opacity:0.6"/>
	<stop  offset="0.686" style="stop-color:#FFFFFF;stop-opacity:5.100000e-02"/>
	<stop  offset="1" style="stop-color:#FFFFFF;stop-opacity:0"/>
</linearGradient>
<path id="Path_3" class="st1" d="M1230,181c15.3,107.8,67.6,118.2,80,206c17.1,121.2-59.3,265-124,264c-48-0.7-26.7-130.6-132-228
	c-77.4-71.6-197.5-104.3-228-70c-5.3,5.9-7.6,13.5-7.9,22.2c36.8-9,72.2-14.8,99.4,5.3c51.2,37.7,69.4,135.1,45.6,224.1
	c25.7,25.4,50.1,52.3,72.9,80.4c31.9,39.3,47.9,65.3,60.6,84H1366V0h-110C1222.9,45,1222.5,128.2,1230,181z"/>
<linearGradient id="Path_4_1_" gradientUnits="userSpaceOnUse" x1="383.9037" y1="805.4911" x2="383.4137" y2="804.0931" gradientTransform="matrix(214.4613 0 0 -112.2748 -82042.5078 90608.1484)">
	<stop  offset="0" style="stop-color:#A52EFF"/>
	<stop  offset="0.498" style="stop-color:#6747F8"/>
	<stop  offset="0.647" style="stop-color:#6049F7"/>
	<stop  offset="0.863" style="stop-color:#4C51F4"/>
	<stop  offset="1" style="stop-color:#3D58F3"/>
</linearGradient>
<path id="Path_4" class="st2" d="M354.4,250.9c3.1-22-44.1-65.2-90.1-80c-13-4.2-88.4-28.4-114.1,36.4c-5.5,14-16.1,47-5.8,60.6
	c9.6,12.7,56.7,9.7,122.8-13.3C336.9,230.2,352.5,264.3,354.4,250.9z"/>
<path id="Path_5" class="st3" d="M302.5,640.5C188.1,626.3,61.9,670.1,0,718.1V769h568.7C482.9,728.3,422.3,655.4,302.5,640.5z"/>
<linearGradient id="Path_6_1_" gradientUnits="userSpaceOnUse" x1="386.7302" y1="810.4943" x2="384.2822" y2="803.5473" gradientTransform="matrix(523.728 0 0 -131.2239 -201250.2969 106339.7578)">
	<stop  offset="0" style="stop-color:#A52EFF"/>
	<stop  offset="0.498" style="stop-color:#6747F8"/>
	<stop  offset="0.647" style="stop-color:#6049F7"/>
	<stop  offset="0.863" style="stop-color:#4C51F4"/>
	<stop  offset="1" style="stop-color:#3D58F3"/>
</linearGradient>
<path id="Path_6" class="st4" d="M0,675.8V755h523.7c-85.9-40.7-146.4-113.6-266.2-128.5C166.4,615.2,67.7,640.7,0,675.8z"/>
<circle id="Ellipse_1" class="st5" cx="1107.5" cy="86.5" r="11.5"/>
<circle id="Ellipse_2" class="st6" cx="752" cy="365" r="3"/>
<circle id="Ellipse_3" class="st5" cx="1126" cy="412" r="8"/>
<circle id="Ellipse_4" class="st7" cx="782" cy="42" r="7"/>
<linearGradient id="Path_7_1_" gradientUnits="userSpaceOnUse" x1="382.988" y1="805.262" x2="383.988" y2="805.262" gradientTransform="matrix(191.3549 0 0 -281.8562 -72647.4453 227178.7031)">
	<stop  offset="0" style="stop-color:#FFFFFF;stop-opacity:0.6"/>
	<stop  offset="0.686" style="stop-color:#FFFFFF;stop-opacity:5.100000e-02"/>
	<stop  offset="1" style="stop-color:#FFFFFF;stop-opacity:0"/>
</linearGradient>
<path id="Path_7" class="st8" d="M816,287c27.1-49.5,13.9-119.5-20-138c-25.7-14-48.9,9.4-72-6c-22.2-14.8-19-48.6-19.7-73.3
	c-10.9,13.3-20.6,27.7-28.8,42.8c-18.5,34.1-31.3,75.3-36.3,115.5c9.5,9.2,17.2,20,22.8,32c21,43.7,3.7,69.4,23,84
	C712.8,365.1,786.6,340.7,816,287z"/>
</svg>
