<?xml version="1.0" encoding="utf-8"?>
<!-- Generator: Adobe Illustrator 23.0.0, SVG Export Plug-In . SVG Version: 6.00 Build 0)  -->
<svg version="1.1" id="Layer_1" xmlns="http://www.w3.org/2000/svg" xmlns:xlink="http://www.w3.org/1999/xlink" x="0px" y="0px"
	 viewBox="0 0 477.5 361.9" style="enable-background:new 0 0 477.5 361.9;" xml:space="preserve">
<style type="text/css">
	.st0{opacity:0.15;fill:#606060;}
	.st1{opacity:0.24;fill:#C9A8F4;enable-background:new    ;}
	.st2{opacity:0.53;fill:#606060;}
	.st3{opacity:0.57;enable-background:new    ;}
	.st4{fill:#FFFFFF;}
	.st5{fill:#85B267;}
	.st6{fill:url(#Path_17_1_);}
	.st7{opacity:0.63;}
	.st8{fill:#234270;}
	.st9{fill:#547CBE;}
	.st10{opacity:0.57;fill:#E3DCE5;enable-background:new    ;}
	.st11{opacity:0.65;fill:#CAC2CE;enable-background:new    ;}
	.st12{fill:#FF0000;}
	.st13{fill:#72BE44;}
	.st14{opacity:0.61;fill:#E3DCE5;enable-background:new    ;}
	.st15{opacity:0.57;fill:#CAC2CE;enable-background:new    ;}
	.st16{fill:#E4B69D;}
	.st17{fill:#C0A58D;}
	.st18{fill:url(#Path_54_1_);stroke:#04006A;stroke-width:0.413;stroke-miterlimit:10;}
	.st19{fill:#4F349B;}
	.st20{fill:#CED5E0;stroke:#04006A;stroke-width:0.413;stroke-miterlimit:10;}
	.st21{fill:url(#Path_66_1_);}
	.st22{fill:url(#Path_67_1_);}
	.st23{fill:url(#Path_70_1_);}
	.st24{fill:url(#Path_71_1_);}
	.st25{fill:none;}
	.st26{fill:url(#Path_74_1_);}
	.st27{fill:url(#Path_75_1_);}
	.st28{fill:#EBEFF7;}
	.st29{fill:url(#Path_77_1_);}
	.st30{fill:#D8DDE5;}
	.st31{fill:#6149B7;}
	.st32{fill:url(#Path_87_1_);}
	.st33{fill:#F2F2F7;}
	.st34{fill:url(#Path_90_1_);}
	.st35{fill:url(#Path_91_1_);}
	.st36{fill:#7938E0;}
	.st37{fill:#5F3BB7;}
	.st38{fill:url(#Path_102_1_);}
	.st39{fill:url(#Path_103_1_);}
	.st40{fill:url(#Path_104_1_);}
	.st41{fill:url(#Path_107_1_);}
	.st42{fill:#F28941;}
	.st43{fill:url(#Path_119_1_);}
	.st44{fill:url(#Path_120_1_);}
	.st45{fill:url(#Path_121_1_);}
	.st46{fill:url(#Path_129_1_);}
	.st47{fill:url(#Path_132_1_);}
	.st48{fill:url(#Path_133_1_);}
	.st49{fill:url(#Path_134_1_);}
	.st50{fill:url(#Path_135_1_);}
	.st51{fill:#1E0C12;}
	.st52{fill:url(#Path_139_1_);}
	.st53{fill:url(#Path_140_1_);}
	.st54{fill:#804ECE;}
</style>
<g id="Group_1" transform="translate(22.094)">
	<path id="Path_1" class="st0" d="M42,321.5c-13.2,0.8-37.8,4.9-36.7,16.3s15.8,8.1,29.9,3.2s32,5.9,34.6-1.6S60.3,320.4,42,321.5z"
		/>
	<path id="Path_2" class="st0" d="M102.1,334c0,0-8.7,2.4,0.5,9s19.1-9,29.7-6.4s28.6,4,23.6-9.7S110.3,325.7,102.1,334z"/>
	<path id="Path_3" class="st0" d="M399.1,325.4c-6-3.9-33.3,3.8-32.8,12.3s21.7,1.9,28.6,9.9S440.8,352.3,399.1,325.4z"/>
	<path id="Path_4" class="st0" d="M167.8,321.8c0,0-27.8,27.6-21.4,36.1s114-12.3,135,0s47.4-5.7,21.9-36.3S167.8,321.8,167.8,321.8
		z"/>
	<path id="Path_5" class="st1" d="M145.8,248.2c-28.3,20.4-75.5,47.9-125.2-15c-46.9-59.4-9.7-190.3,73.4-213.7
		c81.2-22.8,139.7,96.1,169.7,56.8s65.1-105.2,121.9-62.5s121.2,211.2,5.2,269C308.8,323.8,308.6,131,145.8,248.2z"/>
</g>
<g id="Group_15" transform="translate(92.729 98.37)">
	<g id="Group_6">
		<g id="Group_2" transform="translate(20.134 20.554)">
			<path id="Path_6" class="st2" d="M79.9,63.4l-1.5,32.9c0,0-6.1-32.3-19.2-32.9S43.2,51.7,44.9,42.3s-0.4-20.6-14.6-25.9
				S17.6,0,9.5,0S-8,19.2,11.4,32.5S14.3,68.6,36.8,79s0.6,36.7,44.4,35.4L79.9,63.4z"/>
			<g id="Path_7" class="st3">
				<path class="st4" d="M9.1,12.1c0.9,2.1,2.3,4,3.7,5.8c1.5,1.8,3.1,3.4,4.9,4.8c1.8,1.4,3.7,2.7,5.7,3.8c1,0.6,2,1.2,2.8,2.1
					c0.8,0.8,1.5,1.8,2.1,2.8c1.2,2,1.8,4.3,2.4,6.5c0.5,2.3,0.9,4.5,1.4,6.8c0.9,4.5,2,9,4.3,13c1.1,2,2.5,3.8,4.1,5.4l5,4.8
					c3.3,3.2,6.6,6.5,9.6,10c3,3.5,5.5,7.4,7.5,11.6c1.9,4.2,3.2,8.6,4.1,13.2c-1-4.5-2.3-8.9-4.3-13.1c-2-4.1-4.5-8-7.5-11.5
					c-3-3.5-6.3-6.7-9.6-9.9l-5-4.8c-1.7-1.6-3.1-3.5-4.2-5.5c-2.3-4-3.5-8.6-4.3-13.1c-0.4-2.3-0.8-4.5-1.3-6.8
					c-0.5-2.2-1.2-4.4-2.3-6.4c-0.6-1-1.3-1.9-2-2.7c-0.8-0.8-1.7-1.5-2.7-2c-2-1.2-3.9-2.4-5.7-3.9c-1.8-1.5-3.4-3.1-4.9-4.9
					C11.3,16.2,10,14.2,9.1,12.1z"/>
			</g>
		</g>
		<g id="Group_3" transform="translate(61.827)">
			<path id="Path_8" class="st2" d="M60.1,83.3l-12.3,30.5c0,0,4.8-32.5-7.3-37.4S29.3,60.2,34,51.9s6.4-19.5-5.3-29.3
				S22.2,3,14.5,0.3S-8.3,12.7,5.7,31.6s-9.2,35.1,8.7,52.3s-11.5,34.9,30.3,48L60.1,83.3z"/>
			<g id="Path_9" class="st3">
				<path class="st4" d="M10.2,11.6c0.2,2.3,0.8,4.5,1.6,6.7c0.8,2.1,1.9,4.2,3.1,6.1c1.2,1.9,2.6,3.8,4.1,5.5
					c0.7,0.9,1.5,1.8,2,2.9c0.5,1.1,0.9,2.2,1.1,3.3c0.4,2.3,0.3,4.6,0.1,6.9c-0.2,2.3-0.6,4.6-0.9,6.8c-0.7,4.5-1.1,9.2-0.2,13.7
					c0.4,2.2,1.1,4.4,2.1,6.5l3.1,6.2c2.1,4.1,4.1,8.3,5.7,12.6c1.6,4.3,2.8,8.8,3.3,13.4c0.5,4.6,0.2,9.2-0.4,13.8
					c0.6-4.6,0.7-9.2,0.2-13.8c-0.5-4.6-1.6-9-3.3-13.3c-1.7-4.3-3.7-8.4-5.8-12.5l-3.1-6.2c-1-2.1-1.8-4.3-2.2-6.6
					c-0.9-4.6-0.4-9.3,0.3-13.8c0.3-2.3,0.7-4.5,1-6.8c0.2-2.3,0.3-4.6-0.1-6.8c-0.2-1.1-0.6-2.2-1-3.2c-0.5-1-1.2-1.9-1.9-2.8
					c-1.5-1.7-2.9-3.6-4.1-5.6c-1.2-2-2.2-4.1-3-6.2C10.9,16.2,10.3,13.9,10.2,11.6z"/>
			</g>
		</g>
		<g id="Group_4" transform="translate(0 75.701)">
			<path id="Path_10" class="st2" d="M95.8,24.2L109.7,54c0,0-20.5-25.7-32.3-20.1S57.8,30.9,55,21.8s-9.9-18-25-16.2
				S11.1-2.9,4,0.8S-2.5,26,20.8,28.7S40.2,59.3,64.9,58s17.6,32.2,55.7,10.6L95.8,24.2z"/>
			<g id="Path_11" class="st3">
				<path class="st4" d="M9.3,11.7c1.8,1.4,3.9,2.5,6,3.4c2.1,0.9,4.3,1.5,6.6,1.9c2.3,0.4,4.5,0.7,6.8,0.7c1.2,0.1,2.3,0.2,3.4,0.5
					c1.1,0.3,2.2,0.8,3.2,1.5c2,1.3,3.6,2.9,5.1,4.7c1.5,1.7,2.9,3.6,4.4,5.4c2.9,3.6,6,7,9.9,9.5c1.9,1.2,4,2.2,6.2,2.9l6.6,1.9
					c4.4,1.3,8.8,2.6,13.1,4.4c4.3,1.7,8.3,4,12,6.8c3.7,2.8,6.9,6.1,9.8,9.7c-2.9-3.5-6.2-6.8-9.9-9.5c-3.7-2.7-7.7-5-12-6.7
					c-4.3-1.7-8.7-3-13.1-4.3l-6.6-1.9c-2.2-0.7-4.4-1.7-6.3-2.9c-3.9-2.5-7.1-6-9.9-9.6c-1.4-1.8-2.8-3.6-4.3-5.4
					c-1.5-1.7-3.1-3.4-5-4.6c-1-0.6-2-1.1-3.1-1.4c-1.1-0.3-2.2-0.5-3.4-0.5c-2.3-0.1-4.6-0.3-6.9-0.8c-2.3-0.5-4.5-1.1-6.6-2.1
					C13.1,14.3,11.1,13.2,9.3,11.7z"/>
			</g>
		</g>
		<g id="Group_5" transform="translate(6.371 115.578)">
			<path id="Path_12" class="st2" d="M95.8,24.2L109.7,54c0,0-20.5-25.7-32.3-20.1S57.8,30.9,55,21.8s-9.9-18-25-16.2
				S11.2-2.9,4,0.8S-2.5,26,20.8,28.7S40.2,59.3,64.9,58s17.6,32.2,55.7,10.6L95.8,24.2z"/>
			<g id="Path_13" class="st3">
				<path class="st4" d="M9.3,11.7c1.8,1.4,3.9,2.5,6,3.4c2.1,0.9,4.3,1.5,6.6,1.9c2.3,0.4,4.5,0.7,6.8,0.7c1.2,0.1,2.3,0.2,3.4,0.5
					c1.1,0.3,2.2,0.8,3.2,1.5c2,1.3,3.6,2.9,5.1,4.7c1.5,1.7,2.9,3.6,4.4,5.4c2.9,3.6,6,7,9.9,9.5c1.9,1.2,4,2.2,6.2,2.9l6.6,1.9
					c4.4,1.3,8.8,2.6,13.1,4.4c4.3,1.7,8.3,4,12,6.8c3.7,2.8,6.9,6.1,9.8,9.7c-2.9-3.5-6.2-6.8-9.9-9.5c-3.7-2.7-7.7-5-12-6.7
					c-4.3-1.7-8.7-3-13.1-4.3l-6.6-1.9c-2.2-0.7-4.4-1.7-6.3-2.9c-3.9-2.5-7.1-6-9.9-9.6c-1.4-1.8-2.8-3.6-4.3-5.4
					c-1.5-1.7-3.1-3.4-5-4.6c-1-0.6-2-1.1-3.1-1.4c-1.1-0.3-2.2-0.5-3.4-0.5c-2.3-0.1-4.6-0.3-6.9-0.8c-2.3-0.5-4.5-1.1-6.6-2.1
					C13.1,14.3,11.1,13.2,9.3,11.7z"/>
			</g>
		</g>
	</g>
	<g id="Group_8" transform="translate(31.559 117.533)">
		<path id="Path_14" class="st5" d="M55.1,111.4c0,0-49.1-0.7-52.4-9.2S38.1,93.7,55.1,111.4z"/>
		<path id="Path_15" class="st5" d="M55.1,111.4c0,0-11.1-26.2-36-34.7s-24.9,14.4-3.3,17S55.1,111.4,55.1,111.4z"/>
		<path id="Path_16" class="st5" d="M60.4,104.8c0,0-16.4-38-27.5-51.8S13.2,34.1,6.7,38s-5.2,17,9.2,28.2s28.8,27.5,39.3,45.2
			L60.4,104.8z"/>
		
			<linearGradient id="Path_17_1_" gradientUnits="userSpaceOnUse" x1="-179.8973" y1="383.2562" x2="-180.2493" y2="383.6342" gradientTransform="matrix(35.1772 0 0 -111.3988 6379.4463 42758.4648)">
			<stop  offset="0" style="stop-color:#9F42DD"/>
			<stop  offset="1" style="stop-color:#E774E0"/>
		</linearGradient>
		<path id="Path_17" class="st6" d="M55.1,111.4c0,0-7.2-38-22.9-70.7C17.5,9.9,28.2-5.9,39.8,2c13.9,9.4,22.1,50.3,20.1,103.9
			L55.1,111.4z"/>
		<g id="Group_7" transform="translate(9.605 11.466)" class="st7">
			<g id="Path_18">
				<path class="st4" d="M2,90.4c3.3,0,6.7,0.1,10,0.4c3.3,0.3,6.6,0.8,9.9,1.4c3.3,0.7,6.5,1.5,9.7,2.4c3.2,1,6.3,2.1,9.4,3.4
					c-3.1-1.1-6.3-2.1-9.5-3c-3.2-0.9-6.4-1.7-9.7-2.3c-3.3-0.7-6.5-1.2-9.8-1.6C8.6,90.9,5.3,90.6,2,90.4z"/>
			</g>
			<g id="Path_19">
				<path class="st4" d="M0,69.5c2.2,0.4,4.3,1,6.4,1.6c2.1,0.7,4.1,1.4,6.1,2.3c4,1.7,7.9,3.8,11.5,6.3c3.6,2.5,7.1,5.2,10.1,8.4
					c1.6,1.5,3,3.2,4.4,4.8c0.7,0.8,1.3,1.7,2,2.6l1.9,2.6c-2.7-3.5-5.4-6.8-8.6-9.8c-3.1-3.1-6.5-5.8-10.1-8.2
					c-3.6-2.5-7.4-4.6-11.4-6.4C8.4,71.9,4.3,70.4,0,69.5z"/>
			</g>
			<g id="Path_20">
				<path class="st4" d="M2,37.4c5.4,3,10.1,7.1,14.5,11.4c4.4,4.4,8.3,9.2,11.9,14.2l2.6,3.8c0.9,1.3,1.6,2.6,2.4,3.9
					c1.6,2.6,3.1,5.3,4.5,8.1c0.7,1.3,1.4,2.8,2,4.2l1.9,4.2c1.2,2.8,2.3,5.7,3.4,8.6c-1.2-2.8-2.4-5.7-3.7-8.5l-2-4.2
					c-0.7-1.4-1.3-2.8-2.1-4.1l-2.2-4c-0.7-1.4-1.6-2.6-2.3-4c-0.8-1.3-1.6-2.7-2.4-3.9l-2.6-3.8c-3.6-5-7.4-9.8-11.7-14.2
					c-1.1-1.1-2.1-2.2-3.3-3.2l-1.7-1.6l-1.8-1.5C7.1,40.8,4.6,38.9,2,37.4z"/>
			</g>
			<g id="Path_21">
				<path class="st4" d="M25.6,0c1.3,3.2,2.7,6.5,4,9.7c1.3,3.3,2.5,6.5,3.6,9.8c2.3,6.6,4.5,13.2,6.5,19.9c2,6.7,3.7,13.5,5.4,20.3
					c0.8,3.4,1.6,6.8,2.4,10.2c0.7,3.4,1.4,6.8,2.1,10.3l0,0l0,0l-0.3,0.3l0.3-0.3l0,0c-0.8-3.4-1.5-6.8-2.3-10.2
					c-0.8-3.4-1.6-6.8-2.4-10.2c-1.7-6.8-3.5-13.5-5.5-20.2c-1.9-6.7-4.1-13.4-6.3-20c-1.1-3.3-2.3-6.6-3.6-9.9
					C28.1,6.5,26.8,3.3,25.6,0z"/>
			</g>
		</g>
	</g>
	<g id="Group_13" transform="translate(187.116)">
		<g id="Group_9" transform="translate(25.715 20.554)">
			<path id="Path_22" class="st2" d="M1.3,63.4l1.5,32.9c0,0,6.1-32.3,19.2-32.9S38,51.7,36.3,42.3s0.4-20.6,14.6-25.9
				S63.6,0,71.7,0s17.5,19.2-1.9,32.5S66.9,68.6,44.4,79S43.8,115.7,0,114.3L1.3,63.4z"/>
			<g id="Path_23" class="st3">
				<path class="st4" d="M72.1,12.1c-0.9,2.1-2.2,4.1-3.6,5.9c-1.4,1.8-3.1,3.4-4.9,4.9c-1.8,1.5-3.7,2.8-5.7,3.9
					c-1,0.6-1.9,1.2-2.7,2c-0.8,0.8-1.5,1.7-2,2.7c-1.1,2-1.8,4.2-2.3,6.4c-0.5,2.2-0.9,4.5-1.3,6.8c-0.8,4.5-2,9.1-4.3,13.1
					c-1.2,2-2.6,3.9-4.2,5.5l-5,4.8c-3.3,3.2-6.6,6.4-9.6,9.9c-3,3.5-5.5,7.3-7.5,11.5c-2,4.1-3.4,8.6-4.3,13.1
					c0.9-4.5,2.2-9,4.1-13.2c2-4.2,4.5-8.1,7.5-11.6c3-3.5,6.3-6.8,9.6-10l5-4.8c1.6-1.6,3-3.4,4.1-5.4c2.3-4,3.5-8.5,4.3-13
					c0.4-2.3,0.8-4.5,1.4-6.8c0.5-2.2,1.2-4.5,2.4-6.5c0.6-1,1.3-1.9,2.1-2.8c0.8-0.8,1.8-1.5,2.8-2.1c2-1.1,3.9-2.4,5.7-3.8
					c1.8-1.4,3.5-3,4.9-4.8C69.8,16.1,71.1,14.2,72.1,12.1z"/>
			</g>
		</g>
		<g id="Group_10" transform="translate(5.094)">
			<path id="Path_24" class="st2" d="M0,83.3l12.3,30.5c0,0-4.8-32.5,7.3-37.4s11.2-16.3,6.5-24.6s-6.4-19.5,5.3-29.3S38,3,45.6,0.3
				s22.8,12.4,8.9,31.3s9.2,35.1-8.7,52.3s11.5,34.9-30.3,48L0,83.3z"/>
			<g id="Path_25" class="st3">
				<path class="st4" d="M49.9,11.6c-0.1,2.3-0.7,4.6-1.5,6.7c-0.8,2.2-1.8,4.3-3,6.2c-1.2,2-2.6,3.8-4.1,5.6
					c-0.7,0.9-1.4,1.8-1.9,2.8c-0.5,1-0.8,2.1-1,3.2c-0.4,2.2-0.3,4.6-0.1,6.8c0.3,2.3,0.6,4.5,1,6.8c0.7,4.5,1.1,9.2,0.3,13.8
					c-0.4,2.3-1.2,4.5-2.2,6.6l-3.1,6.2c-2.1,4.1-4.1,8.2-5.8,12.5c-1.7,4.3-2.8,8.8-3.3,13.3c-0.5,4.6-0.4,9.2,0.2,13.8
					c-0.7-4.6-0.9-9.2-0.4-13.8c0.5-4.6,1.6-9.1,3.3-13.4c1.6-4.3,3.7-8.5,5.7-12.6l3.1-6.2c1-2.1,1.7-4.2,2.1-6.5
					c0.9-4.5,0.5-9.1-0.2-13.7c-0.3-2.3-0.7-4.6-0.9-6.8c-0.2-2.3-0.3-4.6,0.1-6.9c0.2-1.1,0.6-2.3,1.1-3.3c0.5-1.1,1.2-2,2-2.9
					c1.5-1.7,2.9-3.6,4.1-5.5c1.2-1.9,2.3-4,3.1-6.1C49.1,16.1,49.7,13.9,49.9,11.6z"/>
			</g>
		</g>
		<g id="Group_11" transform="translate(6.372 75.701)">
			<path id="Path_26" class="st2" d="M24.9,24.2L11,54c0,0,20.5-25.7,32.3-20.1s19.6-2.9,22.4-12.1s9.9-18,25-16.2s18.8-8.5,26-4.8
				s6.5,25.1-16.8,27.8S80.5,59.3,55.7,58S38.1,90.2,0,68.6L24.9,24.2z"/>
			<g id="Path_27" class="st3">
				<path class="st4" d="M111.4,11.7c-1.8,1.5-3.8,2.6-5.9,3.5c-2.1,0.9-4.3,1.6-6.6,2.1c-2.3,0.5-4.6,0.7-6.9,0.8
					c-1.1,0.1-2.3,0.2-3.4,0.5c-1.1,0.3-2.1,0.8-3.1,1.4c-1.9,1.2-3.5,2.9-5,4.6c-1.5,1.7-2.9,3.6-4.3,5.4c-2.9,3.6-6,7.1-9.9,9.6
					c-2,1.2-4.1,2.2-6.3,2.9l-6.6,1.9c-4.4,1.3-8.8,2.6-13.1,4.3c-4.3,1.7-8.3,3.9-12,6.7c-3.7,2.7-7,6-9.9,9.5
					c2.9-3.6,6.1-6.9,9.8-9.7c3.7-2.8,7.8-5,12-6.8c4.3-1.7,8.7-3.1,13.1-4.4l6.6-1.9c2.2-0.7,4.3-1.6,6.2-2.9
					c3.9-2.4,7-5.9,9.9-9.5c1.4-1.8,2.8-3.6,4.4-5.4c1.5-1.7,3.2-3.4,5.1-4.7c1-0.6,2.1-1.1,3.2-1.5c1.1-0.4,2.3-0.5,3.4-0.5
					c2.3-0.1,4.6-0.3,6.8-0.7c2.3-0.4,4.5-1.1,6.6-1.9C107.5,14.2,109.6,13.2,111.4,11.7z"/>
			</g>
		</g>
		<g id="Group_12" transform="translate(0 115.578)">
			<path id="Path_28" class="st2" d="M24.9,24.2L11,54c0,0,20.5-25.7,32.3-20.1s19.6-2.9,22.4-12.1s9.9-18,25-16.2s18.8-8.5,26-4.8
				s6.5,25.1-16.8,27.8S80.5,59.3,55.7,58S38.1,90.2,0,68.6L24.9,24.2z"/>
			<g id="Path_29" class="st3">
				<path class="st4" d="M111.4,11.7c-1.8,1.5-3.8,2.6-5.9,3.5c-2.1,0.9-4.3,1.6-6.6,2.1c-2.3,0.5-4.6,0.7-6.9,0.8
					c-1.1,0.1-2.3,0.2-3.4,0.5c-1.1,0.3-2.1,0.8-3.1,1.4c-1.9,1.2-3.5,2.9-5,4.6c-1.5,1.7-2.9,3.6-4.3,5.4c-2.9,3.6-6,7.1-9.9,9.6
					c-2,1.2-4.1,2.2-6.3,2.9l-6.6,1.9c-4.4,1.3-8.8,2.6-13.1,4.3c-4.3,1.7-8.3,3.9-12,6.7c-3.7,2.7-7,6-9.9,9.5
					c2.9-3.6,6.1-6.9,9.8-9.7c3.7-2.8,7.8-5,12-6.8c4.3-1.7,8.7-3.1,13.1-4.4l6.6-1.9c2.2-0.7,4.3-1.6,6.2-2.9
					c3.9-2.4,7-5.9,9.9-9.5c1.4-1.8,2.8-3.6,4.4-5.4c1.5-1.7,3.2-3.4,5.1-4.7c1-0.6,2-1.1,3.2-1.5c1.1-0.4,2.3-0.5,3.4-0.5
					c2.3-0.1,4.6-0.3,6.8-0.7c2.3-0.4,4.5-1.1,6.6-1.9C107.5,14.2,109.6,13.2,111.4,11.7z"/>
			</g>
		</g>
	</g>
	<path id="Path_30" class="st5" d="M227.5,228.9c0,0,49.1-0.7,52.4-9.2S244.5,211.2,227.5,228.9z"/>
	<path id="Path_31" class="st5" d="M227.5,228.9c0,0,11.1-26.2,36-34.7s24.9,14.4,3.3,17S227.5,228.9,227.5,228.9z"/>
	<path id="Path_32" class="st5" d="M222.2,222.4c0,0,16.4-38,27.5-51.8c11.1-13.8,19.7-19,26.2-15.1s5.2,17-9.2,28.2
		c-14.4,11.1-28.8,27.5-39.3,45.2L222.2,222.4z"/>
	<path id="Path_33" class="st5" d="M227.5,228.9c0,0,7.2-38,22.9-70.7c14.7-30.7,4.1-46.5-7.6-38.6c-13.9,9.4-22.1,50.3-20.1,103.9
		L227.5,228.9z"/>
	<g id="Group_14" transform="translate(223.527 128.999)" class="st7">
		<g id="Path_34">
			<path class="st4" d="M47.5,90.4c-3.3,0.2-6.6,0.4-9.9,0.8c-3.3,0.4-6.6,0.9-9.8,1.6c-3.3,0.6-6.5,1.4-9.7,2.3
				c-3.2,0.9-6.4,1.9-9.5,3c3.1-1.3,6.2-2.4,9.4-3.4c3.2-1,6.4-1.8,9.7-2.4c3.3-0.6,6.6-1.1,9.9-1.4C40.8,90.5,44.2,90.4,47.5,90.4z
				"/>
		</g>
		<g id="Path_35">
			<path class="st4" d="M49.5,69.5c-4.3,1-8.4,2.5-12.3,4.3c-4,1.8-7.8,3.9-11.4,6.4c-3.6,2.4-7,5.1-10.1,8.2c-3.2,3-6,6.4-8.6,9.8
				l1.9-2.6c0.7-0.9,1.3-1.8,2-2.6c1.4-1.7,2.8-3.3,4.4-4.8c3.1-3.1,6.5-5.9,10.1-8.4c3.6-2.5,7.5-4.6,11.5-6.3
				c2-0.9,4.1-1.6,6.1-2.3C45.2,70.4,47.3,69.8,49.5,69.5z"/>
		</g>
		<g id="Path_36">
			<path class="st4" d="M47.5,37.4c-2.7,1.6-5.1,3.4-7.4,5.4l-1.8,1.5l-1.7,1.6c-1.2,1-2.2,2.1-3.3,3.2c-4.3,4.4-8.2,9.2-11.7,14.2
				L19,67c-0.9,1.3-1.6,2.6-2.4,3.9c-0.8,1.3-1.6,2.6-2.3,4l-2.2,4c-0.8,1.3-1.4,2.7-2.1,4.1l-2,4.2c-1.3,2.8-2.4,5.6-3.7,8.5
				c1.1-2.9,2.2-5.7,3.4-8.6l1.9-4.2c0.6-1.4,1.3-2.8,2-4.2c1.4-2.7,2.9-5.5,4.5-8.1c0.8-1.3,1.5-2.7,2.4-3.9l2.6-3.8
				c3.6-5,7.5-9.8,11.9-14.2C37.4,44.4,42.1,40.4,47.5,37.4z"/>
		</g>
		<g id="Path_37">
			<path class="st4" d="M23.9,0c-1.3,3.3-2.5,6.5-3.7,9.8c-1.2,3.3-2.4,6.6-3.6,9.9c-2.3,6.6-4.4,13.3-6.3,20
				c-2,6.7-3.8,13.4-5.5,20.2C3.9,63.2,3.1,66.6,2.3,70C1.5,73.4,0.8,76.9,0,80.3l0,0l0.3,0.3L0,80.3l0,0l0,0
				c0.7-3.4,1.4-6.9,2.1-10.3c0.8-3.4,1.5-6.8,2.4-10.2C6.1,53,7.9,46.2,9.8,39.5c2-6.7,4.2-13.4,6.5-19.9c1.2-3.3,2.4-6.6,3.6-9.8
				C21.2,6.5,22.6,3.2,23.9,0z"/>
		</g>
	</g>
</g>
<g id="Group_22" transform="translate(169.586 28.428)">
	<path id="Rectangle_2" class="st8" d="M15.6,0h129.3c8.6,0,15.6,7,15.6,15.6v270.1c0,8.6-7,15.6-15.6,15.6H15.6
		c-8.6,0-15.6-7-15.6-15.6V15.6C0,7,7,0,15.6,0z"/>
	<path id="Path_38" class="st4" d="M154.5,21.2v258.8c0,8.3-6.7,15-15,15H21.1c-8.3,0-15-6.7-15-15V21.2c0-8.3,6.7-15,15-15h32
		c1.2,0,2.3,0.7,2.8,1.9l2.3,5.6c0.4,1,1.4,1.7,2.6,1.7h44.4c1.1,0,2.1-0.7,2.5-1.7l2.1-4.9c0.7-1.6,2.3-2.6,4-2.6h25.6
		C147.7,6.2,154.4,12.9,154.5,21.2z"/>
	<path id="Union_1" class="st9" d="M6.2,39.5v-13H6.1V21c0-8.3,6.7-15,15-15h32c1.2,0,2.3,0.7,2.8,1.9l2.3,5.6
		c0.4,1,1.4,1.7,2.6,1.7h44.4c1.1,0,2.1-0.7,2.5-1.7l2.1-4.9c0.7-1.6,2.3-2.6,4-2.6h25.6c8.3,0,15,6.7,15,15v4.5h0v14L6.2,39.5z"/>
	<g id="Group_16" transform="translate(54.283 90.388)">
		<path id="Path_40" class="st10" d="M51.9,25.9c0,14.3-11.6,25.9-25.9,25.9C11.6,51.9,0,40.3,0,25.9S11.6,0,25.9,0
			c14.3,0,25.9,11.5,25.9,25.8C51.9,25.9,51.9,25.9,51.9,25.9z"/>
		<path id="Path_41" class="st11" d="M42.7,45.8c-9.6,8.1-23.6,8.2-33.3,0.2c0.4-4.5,1.7-8.9,3.8-12.9c1.3-2.4,4.2-3.3,6.6-2.2
			c3.9,1.8,8.5,1.8,12.4-0.1c2.4-1.2,5.4-0.2,6.7,2.2C41,36.9,42.3,41.3,42.7,45.8z"/>
		<path id="Path_42" class="st11" d="M36.7,17.6c0,6-4.8,10.8-10.8,10.8c-6,0-10.8-4.8-10.8-10.8c0-6,4.8-10.8,10.8-10.8
			C31.9,6.8,36.7,11.6,36.7,17.6L36.7,17.6z"/>
	</g>
	<g id="Group_20" transform="translate(22.401 210.128)">
		<g id="Group_17" transform="translate(84.417)">
			<circle id="Ellipse_1" class="st12" cx="15.7" cy="15.7" r="15.7"/>
			<path id="Path_43" class="st4" d="M18.5,9.3c0,0,1.4-4.3,2.6-4.5s5.5,2.8,4.8,7.6S18.6,24,13.5,24.5s-8.5-2.8-8.1-3.8
				s2.6-3.8,4.4-2.8s3.5,2.9,5.6,1.2s5.7-4.7,5.9-6.3S18.5,11,18.5,9.3z"/>
		</g>
		<g id="Group_18" transform="translate(0 0)">
			<circle id="Ellipse_2" class="st13" cx="15.7" cy="15.7" r="15.7"/>
			<path id="Path_44" class="st4" d="M18.5,9.3c0,0,1.4-4.3,2.6-4.5s5.5,2.8,4.8,7.6S18.6,24,13.5,24.5s-8.5-2.8-8.1-3.8
				s2.6-3.8,4.4-2.8s3.4,2.9,5.6,1.2s5.7-4.7,5.9-6.3S18.5,11,18.5,9.3z"/>
		</g>
		<g id="Group_19" transform="translate(38.516 13.271)">
			<path id="Path_45" class="st14" d="M4.8,2.4c0,1.3-1.1,2.4-2.4,2.4S0,3.7,0,2.4C0,1.1,1.1,0,2.4,0l0,0C3.7,0,4.8,1.1,4.8,2.4z"/>
			<path id="Path_46" class="st14" d="M15.4,2.5c0,1.3-1.1,2.4-2.4,2.4s-2.4-1.1-2.4-2.4c0-1.3,1.1-2.4,2.4-2.4l0,0
				C14.3,0.1,15.4,1.2,15.4,2.5z"/>
			<path id="Path_47" class="st14" d="M25.9,2.4c0,1.3-1.1,2.4-2.4,2.4s-2.4-1.1-2.4-2.4c0-1.3,1.1-2.4,2.4-2.4l0,0
				C24.9,0,25.9,1.1,25.9,2.4z"/>
			<path id="Path_48" class="st14" d="M36.5,2.5c0,1.3-1.1,2.4-2.4,2.4s-2.4-1.1-2.4-2.4s1.1-2.4,2.4-2.4c0,0,0,0,0,0
				C35.4,0.1,36.5,1.2,36.5,2.5z"/>
		</g>
	</g>
	<g id="Group_21" transform="translate(36.67 152.454)">
		<path id="Path_49" class="st15" d="M61.8,11.4H21.9c-3.1,0-5.7-2.5-5.7-5.7l0,0c0-3.1,2.5-5.7,5.7-5.7h39.9c3.1,0,5.7,2.5,5.7,5.7
			l0,0C67.5,8.8,64.9,11.4,61.8,11.4z"/>
		<path id="Rectangle_3" class="st14" d="M8.9,28.3h11.9c0.8,0,1.5,0.7,1.5,1.5v0.6c0,0.8-0.7,1.5-1.5,1.5H8.9
			c-0.8,0-1.5-0.7-1.5-1.5v-0.6C7.4,29,8.1,28.3,8.9,28.3z"/>
		<path id="Rectangle_4" class="st14" d="M29.5,28.3h11.9c0.8,0,1.5,0.7,1.5,1.5v0.6c0,0.8-0.7,1.5-1.5,1.5H29.5
			c-0.8,0-1.5-0.7-1.5-1.5v-0.6C27.9,29,28.6,28.3,29.5,28.3z"/>
		<path id="Rectangle_5" class="st14" d="M49.8,28.3h11.9c0.8,0,1.5,0.7,1.5,1.5v0.6c0,0.8-0.7,1.5-1.5,1.5H49.8
			c-0.8,0-1.5-0.7-1.5-1.5v-0.6C48.3,29,49,28.3,49.8,28.3z"/>
		<path id="Rectangle_6" class="st14" d="M70.4,28.3h11.9c0.8,0,1.5,0.7,1.5,1.5v0.6c0,0.8-0.7,1.5-1.5,1.5H70.4
			c-0.8,0-1.5-0.7-1.5-1.5v-0.6C68.9,29,69.5,28.3,70.4,28.3z"/>
		<path id="Path_50" class="st14" d="M84.3,21.2H2.9c-1.6,0-2.9-1.3-2.9-2.9l0,0c0-1.6,1.3-2.9,2.9-2.9h81.4c1.6,0,2.9,1.3,2.9,2.9
			l0,0l0,0C87.2,19.9,85.9,21.2,84.3,21.2z"/>
	</g>
	<path id="Path_51" class="st14" d="M104.9,278.4H52c-2.5,0-4.5-2-4.5-4.5l0,0c0-2.5,2-4.5,4.5-4.5h52.9c2.5,0,4.5,2,4.5,4.5l0,0
		C109.4,276.4,107.4,278.4,104.9,278.4C104.9,278.4,104.9,278.4,104.9,278.4z"/>
</g>
<g id="Group_23" transform="translate(360.926 113.265)">
	<path id="Path_52" class="st16" d="M18.6,36.6l0.9,5.6h-0.5l-3.4,0.7l-1.2,0.2c-0.6-3.9-1.6-5.4-3.3-9.2c-0.6-1.6-1.1-3.3-1.3-5
		c-0.4-2.9-0.5-5.7-0.3-5.7c0.3-0.2,1.7,6.9,1.7,6.9s-1.1-9.5-0.5-9.5c0.6,0,1.8,8.2,1.9,8.7c0-0.5-0.9-9.8-0.3-10s2.6,9.7,2.6,10
		c0-0.3-0.9-8.5-0.5-8.6c0.5-0.1,1,3.4,1.6,6.1c0.2,1,0.5,1.9,0.8,2.8c1.6-2.2,0.6-5.8,1.1-5.8s1.4,3.3,1.4,5.1c0,0.2,0,0.4,0,0.7
		l0,0c0,0.1,0,0.2,0,0.3l0,0c0,0.4-0.1,0.8-0.1,1.2C19.1,33.5,18.6,36.6,18.6,36.6z"/>
	<path id="Path_53" class="st17" d="M15.1,38.8c0,1.4,0.2,2.7,0.6,4l-1.2,0.2c-0.6-3.9-1.6-5.4-3.3-9.2c-0.6-1.6-1.1-3.3-1.3-5
		c0.5,2,1.2,3.8,2.3,5.6C13.9,36.5,15.1,36.8,15.1,38.8z"/>
	
		<linearGradient id="Path_54_1_" gradientUnits="userSpaceOnUse" x1="2135.5815" y1="-391.0122" x2="2136.5906" y2="-391.0122" gradientTransform="matrix(2.270508e-02 0 0 -0.273 -28.976 -76.9689)">
		<stop  offset="0" style="stop-color:#F99393"/>
		<stop  offset="1" style="stop-color:#FFB0B4"/>
	</linearGradient>
	<path id="Path_54" class="st18" d="M19.5,29.6c0,0.1,0,0.2,0,0.3C19.5,29.8,19.5,29.7,19.5,29.6z"/>
	<path id="Path_55" class="st17" d="M19.6,42.2h-0.5l-3.4,0.7l3.3-0.8c0,0-1.7-4.8-1.4-6.2c0.3-1.1,1.4-2.9,1.8-4.7
		c-0.3,2.3-0.8,5.4-0.8,5.4L19.6,42.2z"/>
	<path id="Path_56" class="st19" d="M67,207.8l0.5,15.1h-0.7l-0.8-7.5c0,0,0.4,5.7-3.9,8.7c-5.5,3.9-7.3-0.4-5.8-2.8
		c2.5-3.9,3.7-7.5,4.4-13.9C62.6,206.1,65.2,206.3,67,207.8z"/>
	<path id="Path_57" class="st17" d="M61.1,209.4c1.3,0.4,2.6,0.4,3.9,0.2c0,0-0.4,7.8-3.4,10c-3.3,2.3-2.4-1.1-1.9-2.3
		C61,214.4,61.1,209.4,61.1,209.4z"/>
	<path id="Path_58" class="st16" d="M50.7,131.6c0,0,2.5,15.6,3.3,22.5s4.7,44.6,6.7,53.8c0.5,0.3,1.1,0.6,1.7,0.7
		c1.5,0.4,3.2,0.1,4.5-0.7c0,0-1.2-33.7-0.6-44.1s-0.8-24.2,0.6-32.1c1.1-6.1-8.9-2.9-13.7-1C51.7,131.1,50.7,131.6,50.7,131.6z"/>
	<path id="Path_59" class="st19" d="M45,207.9l0.5,15.1h-0.7l-0.8-7.5c0,0,0.4,5.7-3.9,8.7c-5.5,3.9-7.3-0.4-5.8-2.8
		c2.5-3.9,3.7-7.5,4.4-13.9C40.6,206.2,43.2,206.4,45,207.9z"/>
	<path id="Path_60" class="st17" d="M39.1,209.4c1.3,0.4,2.6,0.4,3.9,0.2c0,0-0.4,7.8-3.4,10c-3.3,2.3-2.4-1.1-1.9-2.3
		C39,214.4,39.1,209.4,39.1,209.4z"/>
	<path id="Path_61" class="st16" d="M44.3,138c-0.3,7.8,0.4,17.7,0,25.7c-0.6,10.4,0.6,44.1,0.6,44.1c-0.9,0.6-2,0.9-3.1,0.9
		c-0.5,0-0.9-0.1-1.4-0.2c-0.6-0.1-1.2-0.4-1.7-0.7c-2-9.2-5.9-46.9-6.7-53.8s-3.3-22.5-3.3-22.5s1-0.5,2.5-1c4.8-1.9,14.8-5,13.7,1
		C44.6,133.7,44.4,135.9,44.3,138z"/>
	<path id="Path_62" class="st17" d="M41.8,208.8c1.4-5,1.5-13.3,0-21.3c-1.9-10.4-0.3-16.2,0-25.4s-2.2-21.8-2.2-21.8l4.7-2.2
		c-0.3,7.8,0.4,17.7,0,25.7c-0.6,10.4,0.6,44.1,0.6,44.1C44,208.5,42.9,208.8,41.8,208.8z"/>
	<path id="Path_63" class="st17" d="M63.8,208.8c1.4-5,1.5-13.3,0-21.3c-1.9-10.4-0.3-16.2,0-25.4s-2.2-21.8-2.2-21.8l4.7-2.2
		c-0.3,7.8,0.4,17.7,0,25.7c-0.6,10.4,0.6,44.1,0.6,44.1C65.9,208.5,64.9,208.8,63.8,208.8z"/>
	<path id="Path_65" d="M35.6,39.2c0,0,1.1-4.9-0.6-16.8c-1.7-11.9-0.4-19.6,4.3-17.5c0,0,0-3.6,5.5-4.7s11.6,3,13,10.8
		s2.3,23.5,4.8,28.2S35.6,39.2,35.6,39.2z"/>
	
		<linearGradient id="Path_66_1_" gradientUnits="userSpaceOnUse" x1="-416.7505" y1="484.2335" x2="-417.1914" y2="483.2945" gradientTransform="matrix(41.9256 0 0 -54.1732 17533.1699 26319.1699)">
		<stop  offset="0" style="stop-color:#662ACC"/>
		<stop  offset="1" style="stop-color:#7459D6"/>
	</linearGradient>
	<path id="Path_66" class="st21" d="M69.3,117.5c-0.2,10.7-0.8,21.7-0.8,21.7c-22,7.8-39.9,0.9-39.9,0.9
		c-1.4-11.1-1.8-27.2,0.9-38.3c1.7-7,3.1-11.8,3.1-11.8l35.4-1.2C69.4,95,69.5,107,69.3,117.5z"/>
	
		<linearGradient id="Path_67_1_" gradientUnits="userSpaceOnUse" x1="-416.605" y1="481.5144" x2="-417.084" y2="478.9494" gradientTransform="matrix(39.9121 0 0 -28.7 16691.6816 13872.3613)">
		<stop  offset="0" style="stop-color:#5629A9"/>
		<stop  offset="1" style="stop-color:#603DB7;stop-opacity:0"/>
	</linearGradient>
	<path id="Path_67" class="st22" d="M69.3,117.5c-5.2-2.7-10-6-14.5-9.8c-10.9-9.1-21.6-7-25.4-5.8c1.7-7,3.1-11.8,3.1-11.8
		l35.4-1.2C69.4,95,69.5,107,69.3,117.5z"/>
	<path id="Path_68" class="st16" d="M68.7,95.7c0,1.3-0.2,2.5-0.6,3.7c-0.5,1.5-1.8,2.7-2.8,4.1c-0.3,0.5-0.5,1.1-0.6,1.6
		c0,0.3,0,0.6,0,0.9c0,0.9,1.6,4.1,0.8,3.7c-0.5-0.2-1.5-2.3-1.9-3.6c-0.2-1.5-0.2-2.9,0.2-4.4c-0.7,1.3-0.9,2.8-0.8,4.2
		c0.6,2.7,1.6,4.7,1.1,4.7s-1.3-1.7-2.2-3.9c-0.3-1-0.4-2-0.3-3c0-0.9,0-1.8,0.2-2.7c-0.4,1.4-0.6,2.9-0.6,4.4
		c0,1.1,0.5,4.4,0.2,4.2c-0.4-0.2-1.1-2.7-1.2-3.7c-0.3-2-0.2-5.1,0.2-5.8c0.6-1.1,5-7.5,5-7.5l3.1,1.5l1.2,0.6L68.7,95.7z"/>
	<path id="Path_69" class="st17" d="M68.7,95.7c0,1.3-0.2,2.5-0.6,3.7c-0.5,1.5-1.8,2.7-2.8,4.1c-0.3,0.5-0.5,1.1-0.6,1.6
		c0,0-0.5-1.6,1.2-3.8s1.1-4.5,1.4-5.5c0.2-0.6,0.5-1.1,0.9-1.6l1.2,0.6L68.7,95.7z"/>
	
		<linearGradient id="Path_70_1_" gradientUnits="userSpaceOnUse" x1="-417.4812" y1="483.086" x2="-417.6242" y2="484.597" gradientTransform="matrix(69.7196 0 0 -59.3945 29162.2344 28817.2891)">
		<stop  offset="0" style="stop-color:#F4BA38"/>
		<stop  offset="1" style="stop-color:#FFD349"/>
	</linearGradient>
	<path id="Path_70" class="st23" d="M82.6,64c-0.2-1.7-17-27-18.2-27.4S50.6,35.2,47.8,36L44.3,36c0,0-10.1,1.2-12,3.2
		c-1.3,1.4-4.9,12.2-7,18.7c-0.8,2.4-1.3,4.1-1.5,4.7c0,0.1-0.1,0.2-0.1,0.2l-0.7-4.1l-2.9-17.4l-7.3,1.4c0,0,1.9,17.8,2.7,24.5
		S18,80.4,20,81.8s7.5,0.5,8.7-1.6c1.8-3,3.2-6.1,4.3-9.4c0.8-2.3,1.5-4.5,1.9-6c0.1-0.3,0.1-0.5,0.2-0.8c0.1-0.3,0,0.8,0,2.2
		c0,0.1,0,0.2,0,0.4C35,75.1,33.9,83.5,32,91.8c9.9,4.2,21.1,4.2,31,0c0.6-0.3,1.2-0.5,1.8-0.8c0.1,0,0.2-0.1,0.2-0.1l-0.8,1.4l0,0
		l5.6,2.8c0,0,6.9-14.2,9.4-20S82.7,65.7,82.6,64z M71.5,65c-0.1,0.7-1.7,8.1-2.8,13.1c-0.3,1.6-0.6,2.9-0.8,3.7
		c-0.1,0.5-0.2,0.8-0.2,0.8s0,0,0-0.1c-0.2-1.4-2.3-14.8-2.3-17c0.2-2.6,0.5-5.2,0.9-7.8c0,0,0,0,0.1,0.1C67.2,58.7,71.6,64,71.5,65
		L71.5,65z"/>
	
		<linearGradient id="Path_71_1_" gradientUnits="userSpaceOnUse" x1="-404.9367" y1="476.4112" x2="-406.5038" y2="478.3892" gradientTransform="matrix(4.5762 0 0 -22.072 1890.7561 10593.667)">
		<stop  offset="0" style="stop-color:#FF911E"/>
		<stop  offset="1" style="stop-color:#FE931E;stop-opacity:0"/>
	</linearGradient>
	<path id="Path_71" class="st24" d="M34.1,57.9c0.2,1.5,0.6,4.8,0.9,6.8c-0.4,1.6-1.1,3.7-1.9,6c-0.7-4.1-1.9-12.3-1.2-13.6
		c0.9-1.9,4.4-8.4,4.4-8.4S33.8,55.8,34.1,57.9z"/>
	<g id="Path_72">
		<path class="st4" d="M35.2,66.3c0,0,0.1,0.1,0.2,0.2l0,0.1l0.1,0.2l-0.5-0.1c0-0.1,0.1-0.2,0.2-0.3C35.1,66.3,35.2,66.3,35.2,66.3
			z M35.2,66.3c0,0.1,0,0.2,0.1,0.3c0.1,0.1,0.1,0.1,0.2,0.1l-0.5-0.1l0.1-0.1l0,0.1C35.1,66.5,35.2,66.4,35.2,66.3z"/>
	</g>
	
		<linearGradient id="Path_74_1_" gradientUnits="userSpaceOnUse" x1="-409.0532" y1="481.4334" x2="-411.2292" y2="483.0594" gradientTransform="matrix(6.8746 0 0 -40.855 2882.8271 19774.3184)">
		<stop  offset="0" style="stop-color:#FF911E"/>
		<stop  offset="1" style="stop-color:#FE931E;stop-opacity:0"/>
	</linearGradient>
	<path id="Path_74" class="st26" d="M65.4,65.4c0,2.2,2.1,15.6,2.3,17c-0.8,2.9-1.8,5.7-2.9,8.5c-0.6,0.3-2.9,1.2-3.5,1.4
		c0.3-4.5,2.3-9.2,0.8-18.4c-2.7-15.9-0.3-22.5-0.3-22.5l4.6,6.2c-0.1-0.1-0.1-0.1-0.1-0.1C65.9,60.2,65.6,62.8,65.4,65.4z"/>
	
		<linearGradient id="Path_75_1_" gradientUnits="userSpaceOnUse" x1="-349.2145" y1="422.978" x2="-348.2145" y2="422.978" gradientTransform="matrix(0.832 0 0 -3.684 358.4827 1638.156)">
		<stop  offset="0" style="stop-color:#FF911E"/>
		<stop  offset="1" style="stop-color:#FE931E;stop-opacity:0"/>
	</linearGradient>
	<path id="Path_75" class="st27" d="M68.8,78.6c-0.3,1.1-0.6,2.2-0.8,3.2c0.2-0.8,0.5-2.1,0.8-3.7L68.8,78.6z"/>
	<path id="Path_76" class="st28" d="M54,37.1c0,0-1,4.1-2.3,9.1c-2,7.6-4.5,17.2-4.9,16.9c-0.2-0.2-0.6-3.3-1-7.3
		c-0.8-7.7-1.8-18.7-1.8-18.7L54,37.1z"/>
	
		<linearGradient id="Path_77_1_" gradientUnits="userSpaceOnUse" x1="-392.668" y1="473.1845" x2="-389.276" y2="473.1845" gradientTransform="matrix(2.13 0 0 -16.064 858.1474 7667.2119)">
		<stop  offset="0" style="stop-color:#FF911E"/>
		<stop  offset="1" style="stop-color:#FE931E;stop-opacity:0"/>
	</linearGradient>
	<path id="Path_77" class="st29" d="M26,74l-2.1-11.4c0.2-0.5,0.7-2.3,1.5-4.7L26,74z"/>
	<path id="Path_78" class="st16" d="M54,37.1c0,0-4.4,4.8-10,0c0.4-1.3,0.6-2.6,0.6-3.9c0-0.7,0-1.5,0-2.2c-0.4,0.3-0.8,0.4-1.3,0.5
		c-0.4,0.1-0.9,0-1.3-0.1c-1.4-0.5-4.8-5.5-5.1-16.1c0,0,2.3-1.2,3.9-5.2c0.3-0.8,0.5-1.6,0.7-2.4c1.1,3.4,3.7,6.1,7,7.5l0,0.2
		c0.2,0.8,0.9,4.7,2.5,6.6c0,0,0.2-6.6,2.2-6.1c2,0.5,0.8,5.7,0.6,6.2c-0.3,0.8-1.1,0.3-1.1,0.3S52.6,32.7,54,37.1z"/>
	<path id="Path_79" class="st17" d="M48.7,28.3c-0.7,2.1-2.1,3.8-4,4.9c0-0.7,0-1.5,0-2.2c-0.4,0.3-0.8,0.4-1.3,0.5l0,0
		C45.4,30.7,47.2,29.7,48.7,28.3z"/>
	<path id="Path_80" class="st17" d="M48.6,15.4c-3.6-0.2-6.4-3.4-7.8-5.3c0.3-0.8,0.5-1.6,0.7-2.4c1.1,3.4,3.7,6.1,7,7.5L48.6,15.4z
		"/>
	<path id="Path_81" class="st30" d="M51.7,46.2c-2,7.6-4.5,17.2-4.9,16.9c-0.2-0.2-0.6-3.3-1-7.3L51.7,46.2z"/>
</g>
<g id="Group_24" transform="translate(32.634 120.2)">
	<path id="Path_82" class="st28" d="M23.8,37.3l6.8-6.5l13.7,6.5l-2.4,65.4H30.5L23.8,37.3z"/>
	<path id="Path_83" class="st31" d="M15.2,210.9c-0.9,0.4-1.8,0.7-2.8,0.8L1.3,209c3.6-1.1,6.6-2.9,7.5-4.3c0.5-1.3,0.8-2.7,0.9-4.1
		c0.1-1.5,0.2-2.9,0.2-2.9l6-0.9c0,0,0,1.6,0,3.8C15.9,204.6,15.8,210.5,15.2,210.9z"/>
	<path id="Path_84" class="st16" d="M15.9,200.5c-2.1,0.3-4.2,0.3-6.2,0c0.1-1.5,0.2-2.9,0.2-2.9l6-0.9
		C15.8,196.7,15.9,198.4,15.9,200.5z"/>
	<path id="Path_85" class="st31" d="M55,211.2c0,0-8.1,2.7-9.9,2.3s-0.6-4.6-0.3-7c0.1-1.9,0.1-3.8-0.1-5.6
		c-0.2-2.2-0.3-4.1-0.3-4.1h6.2c0,0,0.1,1.9,0.2,3.9c0.1,1.7,0.2,3.4,0.4,4C51.4,206.2,55,211.2,55,211.2z"/>
	<path id="Path_86" class="st16" d="M50.7,200.7c-1.6,0.1-3.7,0.2-6,0.2c-0.2-2.2-0.3-4.1-0.3-4.1h6.2
		C50.5,196.8,50.6,198.7,50.7,200.7z"/>
	
		<linearGradient id="Path_87_1_" gradientUnits="userSpaceOnUse" x1="-88.6422" y1="479.1609" x2="-88.7942" y2="478.4899" gradientTransform="matrix(43.648 0 0 -101.4 3906.7688 48700.1953)">
		<stop  offset="0" style="stop-color:#7C45CC"/>
		<stop  offset="1" style="stop-color:#AB6FD6"/>
	</linearGradient>
	<path id="Path_87" class="st32" d="M52.4,97.5v52.8c0,4.2-0.9,48-0.9,48H44c0,0-4.5-39.4-4.6-46.3s-3.2-37.3-3.2-37.3l-0.1,0.2
		l-9.7,32.8c-1.4,5.3-2.4,10.6-3.2,16c-1.3,9.7-7,34.6-7,34.6H8.8l3.3-48.6l5.2-52.8c9.7,1.2,19.5,1.6,29.2,1
		C48.5,97.8,50.5,97.6,52.4,97.5z"/>
	<path id="Path_88" class="st33" d="M12.5,211.8c0,0-3.7-5-8.8-3.6s-3.9,3.1-3,3.6C4.6,212.8,8.7,212.8,12.5,211.8z"/>
	<path id="Path_89" class="st33" d="M54.7,213.1c-1.2,0.2-10.3,1.3-10.5,0c-0.2-1.8,1.1-3.4,2.8-3.6c2.6-0.4,7.7,1.2,8.4,2
		S55.4,213,54.7,213.1z"/>
	
		<linearGradient id="Path_90_1_" gradientUnits="userSpaceOnUse" x1="-80.8002" y1="478.8087" x2="-79.8002" y2="478.8087" gradientTransform="matrix(5.898 0 0 -100.795 523.0836 48409.3711)">
		<stop  offset="0" style="stop-color:#6D5BB8"/>
		<stop  offset="1" style="stop-color:#604AB7;stop-opacity:0"/>
	</linearGradient>
	<path id="Path_90" class="st34" d="M52.4,97.5v52.8c0,4.2-0.9,48-0.9,48h-2c0.6-8.2,0.5-16.4-0.1-24.6c-1.2-13.8-1.9-18.9,0-35.2
		c1.6-13.1-1.6-33-2.9-40.5C48.5,97.8,50.5,97.6,52.4,97.5z"/>
	
		<linearGradient id="Path_91_1_" gradientUnits="userSpaceOnUse" x1="-87.33" y1="479.2413" x2="-87.712" y2="477.9313" gradientTransform="matrix(22.25 0 0 -93.298 1972.5125 44805.6484)">
		<stop  offset="0" style="stop-color:#6D5BB8"/>
		<stop  offset="1" style="stop-color:#604AB7;stop-opacity:0"/>
	</linearGradient>
	<path id="Path_91" class="st35" d="M36.2,114.8l-9.7,32.8c-1.4,5.3-2.4,10.6-3.2,16c-1.3,9.7-7,34.6-7,34.6h-2.4
		c2.2-8.1,3.9-16.3,4.9-24.6c1.5-10.3-0.5-11,2.6-26.1c1.5-7.4,6.6-14.2,8.1-22.9c1.1-6.7,2.8-13.3,5.1-19.6L36.2,114.8z"/>
	<path id="Path_92" class="st36" d="M65.3,117.4c0,0,1,9.7,0.8,10.3c-0.3,0.6-8.8,3.7-9.9,0.8c-1.5-4,0-26.2,0-26.2
		s-0.2-7.6,1.5-7.4S65.3,117.4,65.3,117.4z"/>
	<path id="Path_93" class="st37" d="M57.4,109.3c0,0-0.9-10.5,0-11.8s2.1-1.2,3.9,6.9s2.1,14.4,3.3,15c1,0.4,2.1,0.7,3.1,0.8
		c0,0-7.2-28.6-9.1-28.6s-4.3,2.3-3.9,17.2C54.7,108.7,55.1,114.3,57.4,109.3z"/>
	<path id="Path_94" class="st16" d="M37.7,20.1l-0.2,5.2l-0.1,3.5l-0.2,4.8c-5.8,8.6-10,0-10,0l-0.6-5.5l-0.2-1.8l-0.1-1.1
		L37.7,20.1z"/>
	<path id="Path_95" class="st17" d="M37.4,25.1l0,3.5c-1.4,1.9-3.3,4-4.8,4.1c-2,0.1-4.6-2.7-6-4.4l-0.3-1.8
		C29,24.7,34.4,24.9,37.4,25.1z"/>
	<path id="Path_96" d="M21.7,15.7c0,0-1.4-5.2-0.8-7.7s2.9-1.4,2.9-1.4c-0.7-1.4-0.5-3.2,0.6-4.4C26.2,0.1,33.6-0.9,38,1
		s1.7,5.8,1.7,5.8s5.5-1.4,1.7,8.3l-8.4,3.5l-11.2-2.7V15.7z"/>
	<path id="Path_97" class="st17" d="M24.2,15.6c0,0-2.1-2.2-2.8-0.8s0.8,6.6,4.2,6.3L24.2,15.6z"/>
	<path id="Path_98" class="st17" d="M38.9,15.6c0,0,2.1-2.2,2.8-0.8s-0.8,6.6-4.2,6.3L38.9,15.6z"/>
	<path id="Path_99" class="st16" d="M39.6,15.5L39.6,15.5c0,0.3-1.1,9.2-1.7,10.9c-1,1.9-2.6,3.5-4.6,4.3c-0.4,0.2-0.9,0.3-1.3,0.2
		c-1.7-0.2-3.3-1.1-4.4-2.4c-0.6-0.7-1.2-1.4-1.6-2.2C25,24.4,24,14.5,24,14.5c1.1-1.4,1.7-3.1,1.8-4.9C25.9,9.2,26,8.8,26,8.3
		c0,0,7.7-2.5,12.6,0.9c0,0,0,0,0,0.1C38.4,11.4,38.8,13.5,39.6,15.5z"/>
	<path id="Path_100" class="st17" d="M39.4,15c0,0.3-0.6,9.3-1,10.9c-0.9,2-2.4,3.6-4.3,4.6C37.8,28,39.3,15.3,39.4,15z"/>
	<path id="Path_101" class="st17" d="M38,8.8C38,8.8,38,8.8,38,8.8C32.8,7.7,27.2,9.3,25.3,10c0-0.4,0-0.8,0-1.3
		C25.3,8.7,32.9,5.7,38,8.8z"/>
	
		<linearGradient id="Path_102_1_" gradientUnits="userSpaceOnUse" x1="-88.2506" y1="477.0851" x2="-88.3946" y2="478.0151" gradientTransform="matrix(31.195 0 0 -65.7056 2771.0566 31443.252)">
		<stop  offset="0" style="stop-color:#F4BA38"/>
		<stop  offset="1" style="stop-color:#FFD349"/>
	</linearGradient>
	<path id="Path_102" class="st38" d="M32.9,99.3c-2.5,0-5-0.1-7.5-0.5c-2.7-0.3-5.3-1-7.8-1.9l-1.5-38.2c0,0-2.4,7.7-3.1,11
		c-0.1,0.4-0.2,0.9-0.2,1.3c0.2,1.2,1.9,9.6,1.9,9.6l-8.7,3.3c0,0-4.3-8.5-4.3-11.4S8,42.1,9.4,40s17.8-6.4,17.8-6.4L32.9,99.3z"/>
	
		<linearGradient id="Path_103_1_" gradientUnits="userSpaceOnUse" x1="-88.3105" y1="477.012" x2="-87.4295" y2="478.427" gradientTransform="matrix(25.049 0 0 -66.4677 2249.8638 31810.3711)">
		<stop  offset="0" style="stop-color:#F4BA38"/>
		<stop  offset="1" style="stop-color:#FFD349"/>
	</linearGradient>
	<path id="Path_103" class="st39" d="M52.4,72c0.1-0.7,0.1-1.4,0-2.1c-0.3-1.5-2.4-7.9-2.4-7.9c0.3,3.6,2.4,38.1,2.4,38.1
		c-2,0.1-4.3,0-6.4-0.2c-3.7-0.2-6.8-0.6-6.8-0.6l-1.7-65.7c6.2,0.7,12.2,2.4,17.8,5.1c0.9,0.6,7.2,30.1,7.2,31.3s-2.6,9.9-2.6,9.9
		l-8.5-2.4l-0.1,0c0,0,0-0.1,0-0.2c0.1-0.8,0.6-3.2,0.8-5.2l0,0v0L52.4,72L52.4,72z"/>
	
		<linearGradient id="Path_104_1_" gradientUnits="userSpaceOnUse" x1="-86.9177" y1="475.9399" x2="-84.4207" y2="477.3959" gradientTransform="matrix(14.416 0 0 -51.592 1259.603 24658.5488)">
		<stop  offset="0" style="stop-color:#FF911E"/>
		<stop  offset="1" style="stop-color:#FE931E;stop-opacity:0"/>
	</linearGradient>
	<path id="Path_104" class="st40" d="M25.4,98.8c-2.7-0.3-5.3-1-7.8-1.9l-1.5-38.2c0,0-2.4,7.7-3.1,11l-2,5.8l6.3-28.2
		c1.9,7.7,2.5,15.6,1.8,23.4C18.3,81.1,25.3,89.1,25.4,98.8z"/>
	<g id="Path_105">
		<path class="st4" d="M51.5,77.5c-0.1,0-0.2-0.2-0.2-0.3l0.1-1.1l0.4,1.1c0,0.1,0,0.2-0.1,0.3l-0.1,0.2l0,0
			C51.5,77.6,51.5,77.5,51.5,77.5z M51.5,77.5c0.1,0,0.1-0.1,0.1-0.1L51.5,77.5c-0.2,0-0.2-0.1-0.2-0.2l0.5,0
			C51.8,77.3,51.7,77.3,51.5,77.5z"/>
	</g>
	<g id="Path_106">
		<path class="st4" d="M52.4,72C52.4,71.9,52.4,71.9,52.4,72c0.2,0,0.2,0.1,0.2,0.1L52.1,72C52.2,72,52.2,71.9,52.4,72
			C52.4,71.9,52.4,71.9,52.4,72z M52.4,72c0,0.1,0,0.1,0.1,0.1c0.1,0,0.1,0,0.2,0L52.1,72c0,0,0.1,0.1,0.2,0.1
			C52.3,72.1,52.4,72,52.4,72z"/>
	</g>
	
		<linearGradient id="Path_107_1_" gradientUnits="userSpaceOnUse" x1="-79.8845" y1="476.2986" x2="-87.3945" y2="478.0326" gradientTransform="matrix(6.87 0 0 -54.7647 610.6558 26184.8711)">
		<stop  offset="0" style="stop-color:#FF911E"/>
		<stop  offset="1" style="stop-color:#FE931E;stop-opacity:0"/>
	</linearGradient>
	<path id="Path_107" class="st41" d="M50,61.9c0.3,3.6,2.4,38.1,2.4,38.1c-2,0.1-4.3,0-6.4-0.2c3.7-7.4,2.5-22.6,1.3-30
		c-1.3-8.3,0-24.6,0-24.6s5.5,20.9,5.5,21.6c0,0.7-0.4,4.4-0.5,5.1c0.1-0.7,0.1-1.4,0-2.1C52.1,68.4,50,61.9,50,61.9z"/>
	<path id="Path_108" class="st16" d="M22.6,103.3c-0.2,0.6-0.5,1.2-1,1.6c-0.8,0.9-1.8,1.6-2.9,2.1c-4.2-6.6-12.6-23.2-12.6-23.2
		l5.9-2.3l2.8-1c0.4,0.8,1.7,5.9,3.4,11.4S22.6,103.3,22.6,103.3z"/>
	<path id="Path_109" class="st17" d="M22.6,103.3c-0.2,0.6-0.5,1.2-1,1.6c-1.2-5.4-3.9-7-5.3-13.2c-0.9-3.6-2.3-7-4.3-10.2l2.8-1
		c0.4,0.8,1.7,5.9,3.4,11.4S22.6,103.3,22.6,103.3z"/>
	<path id="Path_110" class="st42" d="M16.1,83.2c0,0-9.1,3.3-9.6,3.6s-3-4.8-3-4.8l11.8-4.2C15.4,77.8,16.8,82.2,16.1,83.2z"/>
	<path id="Path_111" class="st36" d="M44.3,34.3c0,0-1.8,44.3,10.4,55.3l-1.9,4.1c0,0-14.2-14.3-12-59.7
		C40.9,34,42.1,33.3,44.3,34.3z"/>
	<path id="Path_112" class="st16" d="M58.1,105.1c0.3,0.9,0.6,6-0.8,6.6s-4.5,0.3-4.5,0.3s5.1,5.5,4.3,5.7s-5.4-3.9-5.7-4.8
		s-2.3-8.4-2.1-12.3s2.1-23.4,2.1-23.4l5.3,1.7l3.3,1c-1,3-6.1,21-6.1,21c0,0,0,0,0,0.1c1.1,2.4,2.7,8.3,2.7,8.3
		S57.8,104.2,58.1,105.1z"/>
	<path id="Path_113" class="st17" d="M53.9,100.9C53.9,100.9,53.9,101,53.9,100.9l-1.5,1.8c1.8-4.6,0.9-9.6,3-15.3
		c1-2.7,1.5-5.6,1.4-8.5l3.3,1C59.1,82.9,53.9,100.9,53.9,100.9z"/>
	<path id="Path_114" class="st42" d="M50.3,76.2l11.8,3.3c-0.6,1.6-1.3,3.1-2.1,4.6c-3.3-0.6-6.5-1.5-9.6-2.5
		C50.3,81.3,50.3,76.2,50.3,76.2z"/>
</g>
<g id="Group_25" transform="translate(103.069 122.462)">
	<path id="Path_115" class="st31" d="M25.3,215.5c1.8,1.2,15.7-6.1,16.8-6.9c1-0.7,0.2-6.2,0-7.3c0-0.1,0-0.2,0-0.2l0-3.4l-7.9-1.5
		l0.2,5l0,0.4c0.2,0.8,0,1.7-0.5,2.4C33.3,205.1,23.5,214.2,25.3,215.5z"/>
	<path id="Path_116" class="st16" d="M34.3,196.2l0.2,5c2.4,1.1,5.2,1.1,7.7,0.1c0-0.1,0-0.2,0-0.2l0-3.4L34.3,196.2z"/>
	<path id="Path_117" class="st31" d="M57.8,208.1c0.8,0.9,3.5,0.6,5.6,0.8s16.8,2.1,17.5,0c0.7-2.1-14.8-7.3-15.8-7.6l-0.1,0
		l0.1-3.8l-7.5-2.2l0.1,6.2l0,0.1C57.7,202.2,57.1,207.3,57.8,208.1z"/>
	<path id="Path_118" class="st16" d="M57.8,201.4L57.8,201.4c2.4,0.6,5,0.6,7.4-0.1l-0.1,0l0.1-3.8l-7.5-2.2L57.8,201.4z"/>
	
		<linearGradient id="Path_119_1_" gradientUnits="userSpaceOnUse" x1="-158.1959" y1="489.0062" x2="-158.2659" y2="488.0482" gradientTransform="matrix(39.2274 0 0 -107.438 6289.6201 51360.6484)">
		<stop  offset="0" style="stop-color:#7C45CC"/>
		<stop  offset="1" style="stop-color:#AB6FD6"/>
	</linearGradient>
	<path id="Path_119" class="st43" d="M29.3,132.5l1.8,17.5c0,0,1.2,27.6,3.4,48.4c0.7,0.3,1.4,0.6,2.1,0.7c1.9,0.5,3.8,0.2,5.5-0.7
		c0,0,2.6-48.2,3.1-52.8c0.4-3.8,1.1-22.2,1.3-28.5c0-1.3,0.1-2.1,0.1-2.1s7.6,31,8.2,33.4s2,37.1,3.2,50c0.5,0.2,1,0.3,1.6,0.4
		c1.9,0.3,3.8,0.2,5.6-0.4c0,0,3.1-51.3,3.4-54.5s-2.7-21.4-2.7-21.4L53.4,91.9L52.7,92l-17.9,1.5L29.3,132.5z"/>
	
		<linearGradient id="Path_120_1_" gradientUnits="userSpaceOnUse" x1="-94.3735" y1="592.5014" x2="-95.1695" y2="591.0583" gradientTransform="matrix(23.395 0 0 -107.132 3739.5093 51214.0156)">
		<stop  offset="0" style="stop-color:#6D5BB8"/>
		<stop  offset="1" style="stop-color:#604AB7;stop-opacity:0"/>
	</linearGradient>
	<path id="Path_120" class="st44" d="M29.3,132.5l1.8,17.5c0,0,1.2,27.6,3.4,48.4c0.7,0.3,1.4,0.6,2.1,0.7l0,0
		c-1-2.9-0.5-16.2-0.1-24.4s0.2-10.4-1.1-22.3s4.6-23.2,5.8-36.9s9.2-13.9,9.2-13.9l2.3-9.6l-17.9,1.5L29.3,132.5z"/>
	
		<linearGradient id="Path_121_1_" gradientUnits="userSpaceOnUse" x1="13.4126" y1="695.3261" x2="12.3616" y2="693.9711" gradientTransform="matrix(14.0837 0 0 -90.756 2256.9011 43378.9531)">
		<stop  offset="0" style="stop-color:#6D5BB8"/>
		<stop  offset="1" style="stop-color:#604AB7;stop-opacity:0"/>
	</linearGradient>
	<path id="Path_121" class="st45" d="M46.5,108v9.1c0-1.3,0.1-2.1,0.1-2.1s7.6,31,8.2,33.4s2,37.1,3.2,50c0.5,0.2,1,0.3,1.6,0.4
		c0.4-4.9-0.3-14.1-0.7-25c-0.4-8.8,0.1-17.7,1.7-26.4c0.6-3.8-4.1-8.2-7-17.7S46.5,108,46.5,108z"/>
	<path id="Path_122" class="st28" d="M34.8,39l1.7,28.1l1.8,28.5c9.5,3.1,13.6,0,13.6,0l0.4-13.4l1.1-38.6l-6.3-6.4
		c0,0-4.1,8.7-5.5,8.4S34.8,39,34.8,39z"/>
	<path id="Path_123" class="st30" d="M36.5,67.1l1.8,28.5c9.5,3.1,13.6,0,13.6,0l0.4-13.4c-0.8-0.4-1.6-0.6-2.5-0.6
		c-9.2-0.2-12.4-25.5-12.4-25.5L36.5,67.1z"/>
	<path id="Path_125" d="M33.4,3.7c-0.4-1.9-1.9-3.4-3.8-3.7c-3.5-0.8-9.8,4.1-8.7,12.5s7.6,5,7.6,5L33.4,3.7z"/>
	<path id="Path_126" d="M49,20.7l1.2,11.9c0,0,2.2-20.5,1.1-24.1C50,4.7,47,2.4,44.4,5.6c0,0-0.6-3.7-5.9-4S27.3,6.5,27,16.6
		c-0.2,5.9,2.6,11.5,7.4,14.9L49,20.7z"/>
	<path id="Path_127" class="st16" d="M75.7,66l4.6,2.9l3.4,2.1c0,0,8.8-27,10-27.6s9.6-1.1,10.5-1.5c0.2-0.1,0.8-0.4,1.5-0.8l0,0
		c2.1-1.2,5.3-3.2,4.9-3.3c-0.6-0.2-3.2,1.5-5.5,1.7S94.3,38.1,92.3,39s-4.3,5.5-7,10.5S75.7,66,75.7,66z"/>
	<path id="Path_128" class="st17" d="M80.3,68.9l3.4,2.1c0,0,8.8-27,10-27.6s9.6-1.1,10.5-1.5c0.2-0.1,0.8-0.4,1.5-0.8
		c-3.2,0.4-6.4,0.7-9.6,0.8c-3.5,0-4.7,0.6-5.8,5s-6.9,19.5-9.6,21.5C80.5,68.5,80.4,68.7,80.3,68.9z"/>
	
		<linearGradient id="Path_129_1_" gradientUnits="userSpaceOnUse" x1="1360.0679" y1="442.3535" x2="1361.0679" y2="442.3535" gradientTransform="matrix(4.192 0 0 -6.562 687.8365 2971.969)">
		<stop  offset="0" style="stop-color:#891531"/>
		<stop  offset="1" style="stop-color:#891531;stop-opacity:0"/>
	</linearGradient>
	<path id="Path_129" class="st46" d="M70.6,72.5l4.2-5.5l-1.9,2.4c0,0-0.4-1.4-1.1-3.5L70.6,72.5z"/>
	<path id="Path_130" class="st16" d="M32.3,23.6C33,24,33.9,23,33.9,23c0.3,3.6,1.6,10.8,1.3,14.3c-0.1,1.3-2,1.8-2,1.8
		s6.3,8.2,8.6,8s6.4-9.9,6.4-9.9c-1.1,0.1-2.3,0-3.4-0.3c-0.5-0.2-0.8-0.5-1-1c-0.5-0.9-0.8-2-0.9-3c0-0.1,0-0.1,0-0.1
		c0.1,0.1,0.2,0.2,0.4,0.3h0c0.3,0.1,0.6,0.2,0.9,0.2h0c0.3,0,0.6,0,0.9-0.1l0,0c0.3-0.1,0.7-0.2,1-0.3c0.1,0,0.1-0.1,0.2-0.1
		c2.3-1.7,3-15.3,3-15.3c-0.4-0.2-0.7-0.5-1.1-0.8c-2.3-1.9-4.2-4.4-5.3-7.2c-0.3,0.9-0.6,1.8-1,2.6c-1.7,3.4-4.1,6.4-7.1,8.8
		c0,0-1.8-4.9-3.2-3.5S31.7,23.1,32.3,23.6z"/>
	<path id="Path_131" d="M34.8,20.8c0,0,0.5,9.3,2.3,13.1c0,0-0.9-12.4,0.8-18L34.8,20.8z"/>
	
		<linearGradient id="Path_132_1_" gradientUnits="userSpaceOnUse" x1="-159.2647" y1="476.0801" x2="-159.0247" y2="476.9361" gradientTransform="matrix(38.36 0 0 -98.3764 6166.6118 46961.2734)">
		<stop  offset="0" style="stop-color:#F4BA38"/>
		<stop  offset="1" style="stop-color:#FFD349"/>
	</linearGradient>
	<path id="Path_132" class="st47" d="M49.1,74.2c-0.9,17.1,1.1,45.8,3.1,55.2s19.5,4.6,19.5,4.6s-2.9-14.8-5.5-24.7
		c-2.1-7.9-4.8-30.8-5.8-39.9c-0.3-2.3-0.4-3.7-0.4-3.7S66.5,86,71.7,86.4c0.8,0,1.6-0.2,2.3-0.8c4.8-3.3,10.4-16.2,10.4-16.2
		l-7.9-4.4l-1.6,2l0,0l-1.9,2.4c0,0-0.4-1.4-1.1-3.5c-2.3-7-7.4-22.4-10.5-25.9c-4-4.6-15.3-2.8-15.3-2.8S49.9,59.3,49.1,74.2z"/>
	
		<linearGradient id="Path_133_1_" gradientUnits="userSpaceOnUse" x1="112.4855" y1="269.5762" x2="111.1525" y2="270.5752" gradientTransform="matrix(15.093 0 0 -32.0338 2431.9067 15172.2822)">
		<stop  offset="0" style="stop-color:#FF911E"/>
		<stop  offset="1" style="stop-color:#FE931E;stop-opacity:0"/>
	</linearGradient>
	<path id="Path_133" class="st48" d="M60.4,69.4c-0.3-2.3-0.4-3.7-0.4-3.7S66.5,86,71.7,86.4c0.8,0,1.6-0.2,2.3-0.8
		c-1.7-0.7-3.1-2.2-3.7-4c-2.1-5.6-2.4-11.1-6.1-14.5s-4.4-9.2-5.3-12.8C59,59.4,59.5,64.4,60.4,69.4z"/>
	
		<linearGradient id="Path_134_1_" gradientUnits="userSpaceOnUse" x1="-159.0413" y1="476.0452" x2="-159.4333" y2="477.0092" gradientTransform="matrix(43.421 0 0 -96.9471 6935.7827 46277.707)">
		<stop  offset="0" style="stop-color:#F4BA38"/>
		<stop  offset="1" style="stop-color:#FFD349"/>
	</linearGradient>
	<path id="Path_134" class="st49" d="M0,75.6c0.5,4.1,6.1,8.1,6.1,8.1l6-6.7l0.6-0.6l-2.3-2.1l15.1-13c0,0,0,0.2,0,0.6
		c0.1,3.4,0.9,21.7,1.5,31.6c0.6,11-2.3,41.8-2.3,41.8s16.2,2.6,18.2-7.2s-2-51.3-2.1-55.7s-6.5-33.8-6.5-33.8s-8.5,0.5-12,3.4
		S-0.4,71.5,0,75.6z"/>
	
		<linearGradient id="Path_135_1_" gradientUnits="userSpaceOnUse" x1="35.9735" y1="619.0339" x2="37.6385" y2="620.3169" gradientTransform="matrix(20.743 0 0 -26.392 3289.9268 12463.6328)">
		<stop  offset="0" style="stop-color:#FF911E"/>
		<stop  offset="1" style="stop-color:#FE931E;stop-opacity:0"/>
	</linearGradient>
	<path id="Path_135" class="st50" d="M6.9,72.8l5.2,4.1l0.6-0.6l-2.3-2.1l15.1-13c0,0,0,0.2,0,0.6l2.1-11.2c-3,3.6-5.7,7.3-8.1,11.3
		C15,69.2,6.9,72.8,6.9,72.8z"/>
	<path id="Path_136" class="st16" d="M6.1,83.7c7.2,4.3,22.4,12.2,22.4,12.2c0.6,0.7,1.3,1.3,2.1,1.7c1.7,0.9,7,0,7.6,0.3
		s1.8,3.1,2.1,2.9s-0.5-3.2-0.6-3.7s-4-1.8-4-1.8s4,0.8,4.4,1.4s2.7,3.8,2.9,3.7c-0.4-1.8-1.1-3.5-2-5c-1.3-0.8-2.8-1.5-4.2-2
		c1.5,0.1,3,0.5,4.4,1.1c0.9,0.5,2.3,2.7,2.7,2.9s-0.2-2-0.5-2.6s-4.4-3.1-5.6-3.5c-0.8-0.3-2.9,0-4.7,0.2c-0.9,0.1-1.8,0-2.6-0.2
		c-1.8-0.6-18-14.6-18-14.6L11,78.3L6.1,83.7z"/>
	<path id="Path_137" class="st17" d="M11,78.3c2.6,2,12.9,9.8,15.8,11.7c1.9,1.3,4.2,1.8,6.5,1.2c-0.9,0.1-1.8,0-2.6-0.2
		c-1.8-0.6-18-14.6-18-14.6L11,78.3z"/>
	<path id="Path_138" class="st51" d="M41.9,12c1.9,1.8,4,3.3,6.3,4.5c-2.3-1.9-4.2-4.4-5.3-7.2C42.6,10.3,42.3,11.2,41.9,12z"/>
	
		<linearGradient id="Path_139_1_" gradientUnits="userSpaceOnUse" x1="53.4026" y1="-872.5217" x2="53.2053" y2="-871.4057" gradientTransform="matrix(1.171 0 0 -0.57 175.7152 65.763)">
		<stop  offset="0" style="stop-color:#E85B7D"/>
		<stop  offset="1" style="stop-color:#FF78AF"/>
	</linearGradient>
	<path id="Path_139" class="st52" d="M45.1,33.1c0.3-0.1,0.7-0.2,1-0.3c0.1,0,0.1-0.1,0.2-0.1c-0.2-0.1-0.3-0.1-0.3-0.1
		C45.7,32.8,45.4,32.9,45.1,33.1z"/>
	
		<linearGradient id="Path_140_1_" gradientUnits="userSpaceOnUse" x1="-55.2282" y1="-1363.5789" x2="-55.2711" y2="-1363.0038" gradientTransform="matrix(0.887 0 0 -0.1835 128.1292 -119.011)">
		<stop  offset="0" style="stop-color:#E85B7D"/>
		<stop  offset="1" style="stop-color:#FF78AF"/>
	</linearGradient>
	<path id="Path_140" class="st53" d="M43.3,33c0.3,0.1,0.6,0.2,0.9,0.2C43.8,33.2,43.5,33.1,43.3,33z"/>
	<path id="Path_141" class="st17" d="M39.3,29.4c0,0,0.1,5.7,4.5,6.4c-0.5-0.9-0.8-2-0.9-3C41.4,32,40.2,30.9,39.3,29.4z"/>
</g>
<g id="Group_27" transform="translate(397.455 53.425)">
	<path id="Path_142" class="st9" d="M56.7,0H6.9C4.4,0,2.3,2.1,2.3,4.6c0,0,0,0,0,0v35.6c0,1.7,0.9,3.2,2.4,4.1L0.1,57.5
		c-0.2,0.7,0.1,1.4,0.8,1.6c0.4,0.2,0.9,0.1,1.2-0.2L19,44.8h37.7c2.6,0,4.6-2.1,4.6-4.6l0,0V4.6C61.3,2.1,59.2,0,56.7,0
		C56.7,0,56.7,0,56.7,0z"/>
	<g id="Group_26" transform="translate(17.573 8.168)">
		<path id="Path_143" class="st8" d="M28.5,14.2c0,7.9-6.4,14.3-14.2,14.3C6.4,28.5,0,22.1,0,14.3S6.4,0,14.2,0c0,0,0,0,0,0
			C22.1,0,28.5,6.3,28.5,14.2C28.5,14.2,28.5,14.2,28.5,14.2z"/>
		<path id="Path_144" class="st4" d="M23.5,25.1c-5.3,4.5-13,4.5-18.3,0.1c0.2-2.5,0.9-4.9,2.1-7.1c0.7-1.3,2.3-1.8,3.6-1.2
			c2.2,1,4.7,1,6.8,0c1.3-0.6,2.9-0.1,3.7,1.2C22.5,20.2,23.2,22.6,23.5,25.1z"/>
		<path id="Path_145" class="st4" d="M20.2,9.6c0,3.3-2.6,5.9-5.9,5.9c-3.3,0-5.9-2.6-5.9-5.9c0-3.3,2.6-5.9,5.9-5.9
			C17.5,3.7,20.2,6.4,20.2,9.6C20.2,9.6,20.2,9.6,20.2,9.6z"/>
	</g>
</g>
<g id="Group_29" transform="translate(0 53.471)">
	<path id="Path_146" class="st9" d="M59,40.2V4.6C59,2.1,56.9,0,54.4,0c0,0,0,0,0,0H4.6C2.1,0,0,2.1,0,4.6c0,0,0,0,0,0v35.6
		c0,2.6,2.1,4.6,4.6,4.6c0,0,0,0,0,0h36.3l15.3,16.2c0.3,0.3,0.9,0.4,1.2,0c0.2-0.2,0.3-0.5,0.3-0.8l-3.1-15.5
		C57,44.7,59,42.7,59,40.2z"/>
	<g id="Group_28" transform="translate(9.968 2.906)">
		<circle id="Ellipse_3" class="st8" cx="19.6" cy="19.6" r="14.1"/>
		<path id="Path_147" class="st4" d="M22.2,13.9c0,0,1.3-3.9,2.3-4s5,2.5,4.3,6.8s-6.6,10.5-11.2,10.9s-7.7-2.5-7.2-3.4
			s2.3-3.4,4-2.5s3.1,2.6,5,1.1s5.1-4.2,5.3-5.6S22.2,15.4,22.2,13.9z"/>
	</g>
</g>
<g id="Group_30" transform="translate(86.251 45.805)">
	<path id="Path_148" class="st9" d="M54.4,0H4.6C2.1,0,0,2.1,0,4.6l0,0v35.6c0,2.6,2.1,4.6,4.6,4.6h0h23.7l10.9,19.5
		c0.2,0.4,0.7,0.5,1.1,0.3c0.3-0.2,0.4-0.5,0.4-0.8l-1.2-19h14.8c2.6,0,4.6-2.1,4.6-4.6l0,0V4.6C59,2.1,56.9,0,54.4,0z"/>
	<path id="Path_149" class="st4" d="M41.2,16.8v12.8c0,0.8-0.7,1.5-1.5,1.5H19.2c-0.8,0-1.4-0.7-1.4-1.5V16.8c0-0.1,0-0.2,0-0.3
		l10.5,5.9c0.8,0.4,1.7,0.4,2.5,0l10.5-5.9C41.2,16.6,41.2,16.7,41.2,16.8z"/>
	<path id="Path_150" class="st4" d="M41.2,14.6l-10.5,5.9c-0.8,0.4-1.7,0.4-2.5,0l-10.5-5.9c0,0,0,0,0-0.1c0.1-0.3,0.2-0.6,0.5-0.8
		c0.2-0.2,0.5-0.3,0.8-0.3c0,0,0.1,0,0.1,0h20.6C40.5,13.4,41.1,13.9,41.2,14.6z"/>
	<path id="Path_151" class="st54" d="M14,13.6C14,13.6,14,13.6,14,13.6L14,13.6C13.9,13.6,14,13.6,14,13.6z"/>
</g>
</svg>
