<?xml version="1.0" encoding="utf-8"?>
<!-- Generator: Adobe Illustrator 23.0.0, SVG Export Plug-In . SVG Version: 6.00 Build 0)  -->
<svg version="1.1" id="Layer_1" xmlns="http://www.w3.org/2000/svg" xmlns:xlink="http://www.w3.org/1999/xlink" x="0px" y="0px"
	 viewBox="0 0 595.3 354.2" style="enable-background:new 0 0 595.3 354.2;" xml:space="preserve">
<style type="text/css">
	.st0{fill:#547DBF;}
	.st1{fill-rule:evenodd;clip-rule:evenodd;fill:#547DBF;}
	.st2{fill:#231F20;}
	.st3{fill-rule:evenodd;clip-rule:evenodd;fill:#72BF44;}
	.st4{fill:none;stroke:#FFFFFF;stroke-width:0.1658;stroke-linecap:round;stroke-linejoin:round;stroke-miterlimit:2.6131;}
	.st5{clip-path:url(#SVGID_2_);fill:url(#SVGID_3_);}
	.st6{fill:none;stroke:#FFFFFF;stroke-width:0.1256;stroke-linecap:round;stroke-linejoin:round;stroke-miterlimit:2.6131;}
	.st7{fill:#72BF44;}
	.st8{clip-path:url(#SVGID_5_);fill:url(#SVGID_6_);}
</style>
<path class="st0" d="M178.3,232.1v-19.9l-14.9-23.8c-1.3-2.1-2.2-3.8-2.8-5c-0.5-1.2-0.8-2.2-0.8-3.1c0-1.5,0.6-2.7,1.6-3.8
	c1.1-1,2.4-1.6,4.1-1.6c1.7,0,3,0.5,3.9,1.5c0.9,1,2.2,2.9,3.9,5.9l11.4,19l11.5-19c0.7-1.2,1.3-2.1,1.8-3c0.5-0.8,1-1.5,1.6-2.2
	c0.6-0.7,1.2-1.2,1.9-1.6c0.7-0.4,1.5-0.6,2.5-0.6c1.6,0,2.8,0.5,3.9,1.6c1.1,1,1.6,2.2,1.6,3.6c0,1.1-0.3,2.2-0.8,3.3
	c-0.5,1.1-1.4,2.6-2.7,4.6l-15.3,24.1v19.9c0,2.6-0.6,4.5-1.7,5.8c-1.2,1.3-2.7,1.9-4.5,1.9c-1.8,0-3.3-0.6-4.5-1.9
	C178.9,236.7,178.3,234.8,178.3,232.1 M99.9,212.9v-30.2c0-2.6,0.6-4.5,1.7-5.8c1.1-1.3,2.6-1.9,4.4-1.9c1.9,0,3.4,0.6,4.6,1.9
	c1.1,1.3,1.7,3.2,1.7,5.8v30.9c0,3.5,0.4,6.4,1.2,8.8c0.8,2.4,2.1,4.2,4.1,5.5c1.9,1.3,4.7,1.9,8.2,1.9c4.8,0,8.2-1.3,10.3-4
	c2-2.6,3-6.7,3-12v-31.1c0-2.6,0.6-4.5,1.7-5.8c1.1-1.3,2.6-1.9,4.5-1.9c1.8,0,3.4,0.6,4.5,1.9c1.2,1.3,1.7,3.2,1.7,5.8v30.2
	c0,4.9-0.5,9-1.4,12.3c-0.9,3.3-2.7,6.2-5.3,8.7c-2.2,2.1-4.8,3.6-7.8,4.6c-2.9,1-6.4,1.5-10.3,1.5c-4.7,0-8.7-0.5-12.1-1.6
	c-3.4-1-6.1-2.7-8.3-4.8c-2.1-2.2-3.7-5-4.7-8.4C100.4,221.7,99.9,217.6,99.9,212.9z M54,185.6v16.2h11.4c3.1,0,5.5-0.3,7.1-0.9
	c1.7-0.6,3-1.7,3.9-3.4c0.7-1.2,1-2.5,1-4c0-3.2-1.1-5.3-3.3-6.3c-2.2-1-5.6-1.6-10-1.6H54z M66.9,210.9H54v18.3h13.3
	c8.4,0,12.6-3.1,12.6-9.3c0-3.2-1.1-5.5-3.3-6.9C74.4,211.6,71.2,210.9,66.9,210.9z M67.8,238.8H49.1c-2.7,0-4.6-0.6-5.8-1.9
	c-1.2-1.2-1.7-3.2-1.7-5.9v-47.2c0-2.8,0.6-4.8,1.8-6c1.2-1.2,3.1-1.8,5.7-1.8h19.8c2.9,0,5.4,0.2,7.6,0.6c2.1,0.4,4.1,1.1,5.8,2.1
	c1.5,0.9,2.7,2,3.8,3.4c1.1,1.4,2,2.8,2.5,4.5c0.6,1.7,0.9,3.4,0.9,5.2c0,6.3-3.1,10.9-9.2,13.8c8,2.6,12,7.7,12,15.3
	c0,3.5-0.9,6.7-2.6,9.5c-1.7,2.8-4.1,4.9-7.1,6.2c-1.9,0.8-4,1.4-6.4,1.7C73.8,238.7,71,238.8,67.8,238.8z"/>
<rect x="41.6" y="254.1" class="st1" width="509.8" height="3.4"/>
<path class="st2" d="M256.6,280.7h-3.5l-1.3,6.5c-0.1,0.2-0.1,0.4-0.1,0.5c0,0.2,0,0.3,0,0.4c0,0.3,0.1,0.6,0.3,0.7
	c0.2,0.1,0.5,0.2,1,0.2c0.3,0,0.7,0,1.2-0.1c0.5-0.1,0.9-0.2,1.3-0.2l-0.5,2.8c-0.5,0.1-0.9,0.2-1.5,0.3c-0.5,0.1-1,0.1-1.5,0.1
	c-0.6,0-1.2-0.1-1.7-0.2c-0.5-0.1-0.9-0.3-1.2-0.6c-0.3-0.3-0.5-0.6-0.7-0.9c-0.1-0.4-0.2-0.8-0.2-1.2c0-0.2,0-0.3,0-0.6
	c0-0.2,0.1-0.5,0.1-0.8l1.4-6.9h-2.5l0.6-2.7h2.5l0.8-3.8h3.3l-0.8,3.8h3.5L256.6,280.7z M241.5,287.4c0-0.3-0.1-0.5-0.3-0.7
	c-0.2-0.2-0.4-0.3-0.7-0.5c-0.3-0.1-0.6-0.3-1-0.4c-0.4-0.1-0.7-0.2-1.1-0.4c-0.3-0.1-0.7-0.3-1-0.5s-0.6-0.4-0.8-0.7
	c-0.2-0.3-0.4-0.6-0.6-0.9c-0.1-0.4-0.2-0.8-0.2-1.3c0-0.8,0.1-1.4,0.4-2c0.3-0.6,0.7-1,1.2-1.4c0.5-0.4,1.1-0.6,1.7-0.8
	c0.6-0.2,1.3-0.3,2-0.3c0.4,0,0.8,0,1.2,0.1c0.4,0.1,0.8,0.1,1.2,0.2c0.4,0.1,0.8,0.2,1.1,0.3c0.4,0.1,0.7,0.2,1,0.4l-0.5,2.6
	c-0.7-0.3-1.4-0.5-2.1-0.6c-0.7-0.2-1.3-0.2-1.9-0.2c-0.6,0-1.1,0.1-1.5,0.4c-0.3,0.3-0.5,0.6-0.5,1c0,0.3,0.1,0.5,0.2,0.6
	c0.1,0.2,0.3,0.3,0.5,0.5c0.2,0.1,0.5,0.3,0.7,0.3c0.3,0.1,0.6,0.2,0.9,0.3c0.4,0.1,0.8,0.3,1.2,0.5c0.4,0.2,0.8,0.4,1.1,0.7
	c0.3,0.3,0.6,0.6,0.8,1c0.2,0.4,0.3,0.9,0.3,1.5c0,0.8-0.1,1.5-0.4,2c-0.3,0.6-0.7,1.1-1.3,1.5c-0.5,0.4-1.2,0.7-1.9,0.9
	c-0.8,0.2-1.6,0.3-2.5,0.3c-0.5,0-1,0-1.5-0.1c-0.5-0.1-0.9-0.1-1.2-0.2c-0.4-0.1-0.7-0.2-1-0.3c-0.3-0.1-0.5-0.2-0.7-0.3l0.5-2.6
	c0.6,0.2,1.2,0.4,1.9,0.5c0.6,0.1,1.3,0.2,1.9,0.2c0.9,0,1.7-0.2,2.1-0.5C241.2,288.4,241.5,288,241.5,287.4z M233.5,281.3
	c0,0.8-0.2,1.4-0.6,2c-0.4,0.6-0.9,1.1-1.6,1.5c-0.7,0.4-1.6,0.7-2.7,1c-1.1,0.2-2.3,0.3-3.7,0.3c-0.2,0-0.4,0-0.6,0v0.1
	c0,0.5,0.1,0.9,0.2,1.3c0.1,0.4,0.4,0.7,0.6,0.9c0.3,0.2,0.6,0.4,1,0.5c0.4,0.1,0.8,0.2,1.3,0.2c0.7,0,1.5-0.1,2.3-0.3
	c0.8-0.2,1.5-0.4,2.1-0.7l-0.6,2.9c-0.6,0.2-1.2,0.4-2,0.6c-0.7,0.1-1.5,0.2-2.4,0.2c-1,0-1.9-0.1-2.6-0.4c-0.7-0.3-1.4-0.7-1.8-1.1
	c-0.5-0.5-0.8-1.1-1.1-1.7c-0.2-0.7-0.3-1.4-0.3-2.2c0-0.7,0.1-1.4,0.2-2.1c0.2-0.7,0.4-1.4,0.7-2c0.3-0.6,0.6-1.2,1.1-1.8
	c0.4-0.6,0.9-1,1.5-1.5c0.6-0.4,1.2-0.7,1.9-1c0.7-0.2,1.5-0.3,2.3-0.3c0.7,0,1.4,0.1,2,0.3c0.6,0.2,1.1,0.4,1.5,0.8
	c0.4,0.3,0.7,0.7,0.9,1.2C233.4,280.3,233.5,280.8,233.5,281.3z M230.1,281.3c0-0.3-0.1-0.6-0.4-0.8c-0.2-0.2-0.6-0.3-1.1-0.3
	c-0.4,0-0.8,0.1-1.2,0.2c-0.4,0.1-0.8,0.4-1.1,0.7c-0.3,0.3-0.7,0.7-0.9,1.1c-0.3,0.4-0.5,0.9-0.6,1.5c1,0,1.8-0.1,2.5-0.2
	c0.7-0.1,1.2-0.3,1.6-0.5c0.4-0.2,0.7-0.5,0.9-0.7C230,281.9,230.1,281.6,230.1,281.3z M220.5,280.8c-0.4-0.1-0.8-0.1-1.2-0.1
	c-0.3,0-0.7,0-1,0.1c-0.3,0.1-0.7,0.2-1,0.4c-0.3,0.2-0.6,0.4-0.9,0.7c-0.3,0.3-0.5,0.6-0.8,1c-0.1,0.2-0.2,0.4-0.3,0.7
	c-0.1,0.3-0.2,0.7-0.3,1.2l-1.4,6.8h-3.3l2.8-13.6h2.8v1.7h0.1c0.5-0.6,1.1-1.1,1.8-1.5c0.7-0.4,1.4-0.5,2.3-0.5
	c0.3,0,0.7,0,1.1,0.1L220.5,280.8z M203.3,281.3c0,0.8-0.2,1.4-0.6,2c-0.4,0.6-0.9,1.1-1.6,1.5c-0.7,0.4-1.6,0.7-2.7,1
	c-1.1,0.2-2.3,0.3-3.7,0.3c-0.2,0-0.4,0-0.6,0v0.1c0,0.5,0.1,0.9,0.2,1.3c0.1,0.4,0.4,0.7,0.6,0.9c0.3,0.2,0.6,0.4,1,0.5
	c0.4,0.1,0.8,0.2,1.3,0.2c0.7,0,1.5-0.1,2.3-0.3c0.8-0.2,1.5-0.4,2.1-0.7l-0.6,2.9c-0.6,0.2-1.2,0.4-2,0.6c-0.7,0.1-1.5,0.2-2.4,0.2
	c-1,0-1.9-0.1-2.6-0.4c-0.7-0.3-1.4-0.7-1.8-1.1c-0.5-0.5-0.8-1.1-1.1-1.7c-0.2-0.7-0.3-1.4-0.3-2.2c0-0.7,0.1-1.4,0.2-2.1
	c0.1-0.7,0.4-1.4,0.7-2c0.3-0.6,0.6-1.2,1.1-1.8c0.4-0.6,0.9-1,1.5-1.5c0.6-0.4,1.2-0.7,1.9-1c0.7-0.2,1.5-0.3,2.3-0.3
	c0.7,0,1.4,0.1,2,0.3c0.6,0.2,1.1,0.4,1.5,0.8c0.4,0.3,0.7,0.7,0.9,1.2C203.2,280.3,203.3,280.8,203.3,281.3z M199.9,281.3
	c0-0.3-0.1-0.6-0.4-0.8c-0.2-0.2-0.6-0.3-1.1-0.3c-0.4,0-0.8,0.1-1.1,0.2c-0.4,0.1-0.8,0.4-1.1,0.7c-0.3,0.3-0.7,0.7-0.9,1.1
	c-0.3,0.4-0.5,0.9-0.6,1.5c1,0,1.8-0.1,2.5-0.2c0.7-0.1,1.2-0.3,1.6-0.5c0.4-0.2,0.7-0.5,0.9-0.7
	C199.8,281.9,199.9,281.6,199.9,281.3z M185.2,283.3c0.1-0.3,0.1-0.6,0.1-0.8c0-0.2,0-0.4,0-0.6c0-0.5-0.1-0.8-0.4-1.1
	c-0.3-0.3-0.7-0.4-1.2-0.4c-0.7,0-1.3,0.2-1.9,0.6c-0.6,0.4-1.1,0.9-1.5,1.5c-0.1,0.1-0.1,0.3-0.2,0.4c-0.1,0.1-0.1,0.3-0.2,0.5
	c-0.1,0.2-0.1,0.4-0.2,0.6c-0.1,0.2-0.1,0.5-0.2,0.8l-1.4,6.8h-3.3l4.2-20.3h3.3l-1.3,6.3c-0.1,0.5-0.3,1.2-0.6,2.1h0.1
	c0.2-0.3,0.5-0.5,0.8-0.8c0.3-0.3,0.6-0.5,1-0.7c0.4-0.2,0.8-0.3,1.2-0.4c0.4-0.1,0.9-0.2,1.3-0.2c0.5,0,1,0.1,1.5,0.2
	c0.5,0.2,0.9,0.4,1.2,0.7c0.4,0.3,0.7,0.7,0.9,1.1c0.2,0.4,0.3,0.9,0.3,1.5c0,0.3,0,0.7-0.1,1.1c-0.1,0.4-0.1,0.8-0.2,1.3l-1.7,8
	h-3.3L185.2,283.3z M174,280.7h-3.5l-1.3,6.5c0,0.2-0.1,0.4-0.1,0.5c0,0.2,0,0.3,0,0.4c0,0.3,0.1,0.6,0.3,0.7s0.5,0.2,1,0.2
	c0.3,0,0.7,0,1.2-0.1c0.5-0.1,0.9-0.2,1.3-0.2l-0.5,2.8c-0.4,0.1-0.9,0.2-1.5,0.3c-0.5,0.1-1,0.1-1.5,0.1c-0.7,0-1.2-0.1-1.7-0.2
	c-0.5-0.1-0.9-0.3-1.2-0.6c-0.3-0.3-0.5-0.6-0.7-0.9c-0.1-0.4-0.2-0.8-0.2-1.2c0-0.2,0-0.3,0-0.6c0-0.2,0.1-0.5,0.1-0.8l1.4-6.9
	h-2.6l0.6-2.7h2.5l0.8-3.8h3.3L171,278h3.5L174,280.7z M157.3,280.7h-3.5l-1.4,6.5c0,0.2-0.1,0.4-0.1,0.5c0,0.2,0,0.3,0,0.4
	c0,0.3,0.1,0.6,0.3,0.7c0.2,0.1,0.5,0.2,1,0.2c0.3,0,0.7,0,1.2-0.1c0.5-0.1,0.9-0.2,1.3-0.2l-0.5,2.8c-0.5,0.1-0.9,0.2-1.5,0.3
	c-0.5,0.1-1,0.1-1.5,0.1c-0.6,0-1.2-0.1-1.7-0.2c-0.5-0.1-0.9-0.3-1.2-0.6c-0.3-0.3-0.5-0.6-0.7-0.9c-0.1-0.4-0.2-0.8-0.2-1.2
	c0-0.2,0-0.3,0-0.6c0-0.2,0.1-0.5,0.1-0.8l1.4-6.9h-2.6l0.6-2.7h2.5l0.8-3.8h3.3l-0.8,3.8h3.5L157.3,280.7z M146.2,281.3
	c0,0.8-0.2,1.4-0.6,2c-0.4,0.6-0.9,1.1-1.6,1.5c-0.7,0.4-1.6,0.7-2.7,1c-1.1,0.2-2.3,0.3-3.7,0.3c-0.2,0-0.4,0-0.6,0v0.1
	c0,0.5,0.1,0.9,0.2,1.3c0.1,0.4,0.4,0.7,0.6,0.9c0.3,0.2,0.6,0.4,1,0.5c0.4,0.1,0.8,0.2,1.3,0.2c0.7,0,1.5-0.1,2.3-0.3
	c0.8-0.2,1.5-0.4,2.1-0.7l-0.6,2.9c-0.6,0.2-1.2,0.4-2,0.6c-0.7,0.1-1.5,0.2-2.4,0.2c-1,0-1.9-0.1-2.6-0.4c-0.7-0.3-1.4-0.7-1.8-1.1
	c-0.5-0.5-0.8-1.1-1.1-1.7c-0.2-0.7-0.3-1.4-0.3-2.2c0-0.7,0.1-1.4,0.2-2.1c0.1-0.7,0.4-1.4,0.7-2c0.3-0.6,0.6-1.2,1.1-1.8
	c0.4-0.6,0.9-1,1.5-1.5c0.6-0.4,1.2-0.7,1.9-1c0.7-0.2,1.5-0.3,2.3-0.3c0.7,0,1.4,0.1,2,0.3c0.6,0.2,1.1,0.4,1.5,0.8
	c0.4,0.3,0.7,0.7,0.9,1.2C146.1,280.3,146.2,280.8,146.2,281.3z M142.9,281.3c0-0.3-0.1-0.6-0.4-0.8c-0.2-0.2-0.6-0.3-1.1-0.3
	c-0.4,0-0.7,0.1-1.1,0.2c-0.4,0.1-0.8,0.4-1.1,0.7c-0.3,0.3-0.6,0.7-0.9,1.1c-0.3,0.4-0.5,0.9-0.6,1.5c1,0,1.8-0.1,2.5-0.2
	c0.7-0.1,1.2-0.3,1.6-0.5c0.4-0.2,0.7-0.5,0.9-0.7C142.8,281.9,142.9,281.6,142.9,281.3z M128.3,281.4c-0.1-0.1-0.2-0.2-0.3-0.4
	c-0.1-0.1-0.3-0.2-0.5-0.3c-0.2-0.1-0.4-0.2-0.6-0.2c-0.2-0.1-0.5-0.1-0.7-0.1c-0.5,0-0.9,0.1-1.2,0.3c-0.4,0.2-0.7,0.5-1,0.8
	c-0.3,0.3-0.5,0.7-0.7,1.2c-0.2,0.4-0.4,0.9-0.5,1.4c-0.1,0.5-0.2,1-0.3,1.4c-0.1,0.5-0.1,0.9-0.1,1.3c0,0.8,0.1,1.4,0.4,1.7
	c0.2,0.4,0.6,0.6,1.1,0.6c0.4,0,0.9-0.1,1.4-0.4c0.5-0.3,0.9-0.7,1.2-1.2c0.5-0.8,1-1.8,1.3-3.1L128.3,281.4z M126.6,290
	c-0.5,0.6-1,1.1-1.6,1.4c-0.6,0.3-1.3,0.5-2,0.5c-0.6,0-1.2-0.1-1.6-0.3c-0.5-0.2-0.9-0.5-1.2-1c-0.3-0.4-0.6-0.9-0.8-1.5
	c-0.2-0.6-0.3-1.2-0.3-1.9c0-0.8,0.1-1.5,0.2-2.3c0.1-0.8,0.3-1.5,0.6-2.2c0.3-0.7,0.6-1.4,0.9-2c0.4-0.6,0.8-1.2,1.3-1.6
	c0.5-0.5,1-0.8,1.6-1.1c0.6-0.3,1.3-0.4,2-0.4c0.6,0,1.3,0.1,1.8,0.4c0.6,0.3,1.1,0.7,1.5,1.3h0.1l0.5-1.3h2.8l-2.9,13.7
	c-0.2,1.1-0.6,2.1-1,3c-0.4,0.8-1,1.5-1.6,2.1c-0.7,0.6-1.4,1-2.3,1.2c-0.9,0.3-1.9,0.4-3.1,0.4c-0.8,0-1.6-0.1-2.4-0.2
	c-0.8-0.1-1.6-0.3-2.3-0.6l0.6-2.7c0.6,0.2,1.2,0.4,1.8,0.6c0.7,0.1,1.3,0.2,2,0.2c0.8,0,1.5-0.1,2.1-0.3c0.6-0.2,1.1-0.5,1.5-0.9
	c0.4-0.4,0.7-0.9,1-1.4c0.3-0.6,0.5-1.2,0.6-2C126.4,290.7,126.5,290.3,126.6,290L126.6,290z M118.4,280.8c-0.4-0.1-0.8-0.1-1.2-0.1
	c-0.3,0-0.7,0-1,0.1c-0.3,0.1-0.7,0.2-1,0.4c-0.3,0.2-0.6,0.4-0.9,0.7c-0.3,0.3-0.5,0.6-0.8,1c-0.1,0.2-0.2,0.4-0.3,0.7
	c-0.1,0.3-0.2,0.7-0.3,1.2l-1.4,6.8h-3.3L111,278h2.8v1.7h0.1c0.5-0.6,1.1-1.1,1.8-1.5c0.7-0.4,1.4-0.5,2.3-0.5c0.3,0,0.7,0,1.1,0.1
	L118.4,280.8z M101.6,277.6c0.8,0,1.5,0.1,2.2,0.3c0.7,0.2,1.2,0.5,1.7,1c0.5,0.4,0.8,1,1.1,1.6c0.2,0.7,0.4,1.4,0.4,2.3
	c0,1.2-0.2,2.3-0.5,3.4c-0.3,1.1-0.8,2.1-1.5,2.9c-0.6,0.8-1.4,1.5-2.4,2c-1,0.5-2.1,0.8-3.3,0.8c-0.8,0-1.5-0.1-2.2-0.3
	c-0.7-0.2-1.2-0.5-1.7-1c-0.5-0.4-0.8-1-1.1-1.6c-0.3-0.6-0.4-1.4-0.4-2.3c0-1.2,0.2-2.3,0.5-3.4c0.3-1.1,0.8-2.1,1.5-2.9
	c0.6-0.8,1.4-1.5,2.4-2C99.2,277.9,100.3,277.6,101.6,277.6z M101.3,280.4c-0.5,0-0.9,0.1-1.2,0.3c-0.4,0.2-0.7,0.4-1,0.7
	c-0.3,0.3-0.6,0.7-0.8,1.1c-0.2,0.4-0.4,0.8-0.6,1.3c-0.2,0.5-0.3,0.9-0.3,1.4c-0.1,0.5-0.1,1-0.1,1.5c0,0.8,0.2,1.4,0.5,1.8
	c0.4,0.4,0.9,0.7,1.7,0.7c0.4,0,0.9-0.1,1.2-0.3c0.4-0.2,0.7-0.4,1-0.7c0.3-0.3,0.6-0.7,0.8-1.1c0.2-0.4,0.4-0.9,0.6-1.3
	c0.1-0.5,0.3-1,0.3-1.5c0.1-0.5,0.1-1,0.1-1.5c0-0.8-0.2-1.4-0.5-1.8C102.6,280.6,102.1,280.4,101.3,280.4z M79.1,291.6l3.9-18.7
	h11.5l-0.6,2.9h-8.1l-1,4.9h7l-0.6,2.9h-7l-1.7,8.2H79.1z"/>
<polygon class="st3" points="278.3,128.5 278.3,288.7 284.4,288.7 284.4,129.2 "/>
<path class="st3" d="M260.4,308.2l0.2,4.2c0.5,9.8,17.1,13.3,16.9-5l0.2-18.2c0,0,2.9-7.5,7.8,0.2V311c0,21.2-28.2,22.6-31.8,6.9
	c-0.6-2.7-0.4-6.2-0.4-8.9C253.1,303.1,260,302.3,260.4,308.2"/>
<path class="st2" d="M449,280.7h-3.6l-1.4,6.5c0,0.2-0.1,0.4-0.1,0.5c0,0.2,0,0.3,0,0.4c0,0.3,0.1,0.6,0.3,0.7
	c0.2,0.1,0.5,0.2,1,0.2c0.3,0,0.7,0,1.2-0.1c0.5-0.1,1-0.2,1.3-0.2l-0.6,2.8c-0.5,0.1-0.9,0.2-1.5,0.3c-0.5,0.1-1,0.1-1.5,0.1
	c-0.7,0-1.2-0.1-1.7-0.2c-0.5-0.1-0.9-0.3-1.2-0.6c-0.3-0.3-0.5-0.6-0.7-0.9c-0.1-0.4-0.2-0.8-0.2-1.2c0-0.2,0-0.3,0-0.6
	c0-0.2,0.1-0.5,0.1-0.8l1.4-6.9h-2.6l0.6-2.7h2.5l0.8-3.8h3.3l-0.8,3.8h3.6L449,280.7z M433.8,287.4c0-0.3-0.1-0.5-0.3-0.7
	c-0.2-0.2-0.4-0.3-0.7-0.5c-0.3-0.1-0.6-0.3-1-0.4c-0.4-0.1-0.7-0.2-1.1-0.4c-0.3-0.1-0.7-0.3-1-0.5c-0.3-0.2-0.6-0.4-0.9-0.7
	c-0.2-0.3-0.4-0.6-0.6-0.9c-0.1-0.4-0.2-0.8-0.2-1.3c0-0.8,0.1-1.4,0.4-2c0.3-0.6,0.7-1,1.2-1.4c0.5-0.4,1.1-0.6,1.7-0.8
	c0.6-0.2,1.3-0.3,2-0.3c0.4,0,0.8,0,1.2,0.1c0.4,0.1,0.8,0.1,1.2,0.2c0.4,0.1,0.8,0.2,1.1,0.3c0.4,0.1,0.7,0.2,1,0.4l-0.5,2.6
	c-0.7-0.3-1.4-0.5-2.1-0.6c-0.7-0.2-1.3-0.2-1.9-0.2c-0.6,0-1.1,0.1-1.5,0.4c-0.4,0.3-0.5,0.6-0.5,1c0,0.3,0.1,0.5,0.2,0.6
	c0.1,0.2,0.3,0.3,0.5,0.5c0.2,0.1,0.5,0.3,0.7,0.3c0.3,0.1,0.6,0.2,0.9,0.3c0.4,0.1,0.8,0.3,1.2,0.5c0.4,0.2,0.8,0.4,1.1,0.7
	c0.3,0.3,0.6,0.6,0.8,1c0.2,0.4,0.3,0.9,0.3,1.5c0,0.8-0.1,1.5-0.4,2c-0.3,0.6-0.7,1.1-1.3,1.5c-0.5,0.4-1.2,0.7-2,0.9
	c-0.8,0.2-1.6,0.3-2.5,0.3c-0.5,0-1,0-1.5-0.1c-0.5-0.1-0.9-0.1-1.3-0.2c-0.4-0.1-0.7-0.2-1-0.3c-0.3-0.1-0.5-0.2-0.7-0.3l0.6-2.6
	c0.6,0.2,1.2,0.4,1.9,0.5c0.6,0.1,1.3,0.2,1.9,0.2c0.9,0,1.7-0.2,2.1-0.5C433.6,288.4,433.8,288,433.8,287.4z M425.8,281.3
	c0,0.8-0.2,1.4-0.6,2c-0.4,0.6-0.9,1.1-1.6,1.5c-0.7,0.4-1.6,0.7-2.7,1c-1.1,0.2-2.3,0.3-3.7,0.3c-0.2,0-0.4,0-0.6,0v0.1
	c0,0.5,0.1,0.9,0.2,1.3c0.1,0.4,0.4,0.7,0.6,0.9c0.3,0.2,0.6,0.4,1,0.5c0.4,0.1,0.8,0.2,1.3,0.2c0.7,0,1.5-0.1,2.3-0.3
	c0.8-0.2,1.5-0.4,2.1-0.7l-0.6,2.9c-0.6,0.2-1.3,0.4-2,0.6c-0.8,0.1-1.5,0.2-2.4,0.2c-1,0-1.9-0.1-2.6-0.4c-0.7-0.3-1.4-0.7-1.8-1.1
	c-0.5-0.5-0.8-1.1-1.1-1.7c-0.2-0.7-0.3-1.4-0.3-2.2c0-0.7,0.1-1.4,0.2-2.1c0.1-0.7,0.4-1.4,0.7-2c0.3-0.6,0.7-1.2,1.1-1.8
	c0.4-0.6,0.9-1,1.5-1.5c0.6-0.4,1.2-0.7,1.9-1c0.7-0.2,1.5-0.3,2.3-0.3c0.7,0,1.4,0.1,2,0.3c0.6,0.2,1.1,0.4,1.5,0.8
	c0.4,0.3,0.7,0.7,1,1.2C425.7,280.3,425.8,280.8,425.8,281.3z M422.4,281.3c0-0.3-0.1-0.6-0.4-0.8c-0.3-0.2-0.6-0.3-1.1-0.3
	c-0.4,0-0.8,0.1-1.2,0.2c-0.4,0.1-0.8,0.4-1.1,0.7c-0.3,0.3-0.6,0.7-0.9,1.1c-0.3,0.4-0.5,0.9-0.6,1.5c1,0,1.8-0.1,2.5-0.2
	c0.7-0.1,1.2-0.3,1.6-0.5c0.4-0.2,0.7-0.5,0.9-0.7C422.3,281.9,422.4,281.6,422.4,281.3z M404.3,277.1c-0.2,0.7-0.3,1.4-0.5,2h0.1
	c0.2-0.2,0.4-0.4,0.6-0.6c0.2-0.2,0.5-0.3,0.8-0.5c0.3-0.2,0.6-0.3,1-0.4c0.3-0.1,0.7-0.1,1.1-0.1c0.6,0,1.1,0.1,1.7,0.3
	c0.5,0.2,1,0.5,1.4,0.9c0.4,0.4,0.7,0.9,0.9,1.5c0.2,0.6,0.3,1.3,0.3,2.1c0,0.7-0.1,1.4-0.2,2.1c-0.1,0.7-0.3,1.5-0.6,2.2
	c-0.3,0.7-0.6,1.4-1.1,2c-0.4,0.6-0.9,1.2-1.5,1.6c-0.6,0.5-1.3,0.8-2,1.1c-0.8,0.3-1.6,0.4-2.5,0.4c-0.7,0-1.4-0.1-2-0.3
	c-0.6-0.2-1.1-0.5-1.5-0.9c-0.4-0.4-0.7-0.8-0.9-1.4c-0.2-0.5-0.3-1.1-0.3-1.7c0-0.2,0-0.5,0-0.8c0-0.3,0.1-0.6,0.2-1l3.1-14.6h3.3
	L404.3,277.1z M402.4,286.2c-0.1,0.3-0.1,0.5-0.1,0.7c0,0.2,0,0.3,0,0.4c0,0.6,0.1,1,0.4,1.4c0.3,0.3,0.7,0.5,1.2,0.5
	c0.5,0,0.9-0.1,1.3-0.3c0.4-0.2,0.7-0.5,1.1-0.8c0.3-0.3,0.6-0.7,0.8-1.1c0.2-0.4,0.5-0.9,0.6-1.4c0.2-0.5,0.3-1,0.4-1.5
	c0.1-0.5,0.1-0.9,0.1-1.4c0-0.3,0-0.6-0.1-0.9c-0.1-0.3-0.2-0.5-0.3-0.8c-0.1-0.2-0.3-0.4-0.6-0.5c-0.2-0.1-0.5-0.2-0.9-0.2
	c-0.3,0-0.6,0.1-1,0.2c-0.4,0.1-0.7,0.3-1,0.6c-0.3,0.3-0.6,0.7-0.9,1.1c-0.3,0.4-0.5,1-0.6,1.6L402.4,286.2z M391.2,281.3
	c0,0.8-0.2,1.4-0.6,2c-0.4,0.6-0.9,1.1-1.6,1.5c-0.7,0.4-1.6,0.7-2.7,1c-1.1,0.2-2.3,0.3-3.7,0.3c-0.2,0-0.4,0-0.6,0v0.1
	c0,0.5,0.1,0.9,0.2,1.3c0.1,0.4,0.4,0.7,0.6,0.9c0.3,0.2,0.6,0.4,1,0.5c0.4,0.1,0.8,0.2,1.3,0.2c0.7,0,1.5-0.1,2.3-0.3
	c0.8-0.2,1.5-0.4,2.1-0.7l-0.6,2.9c-0.6,0.2-1.3,0.4-2,0.6c-0.7,0.1-1.5,0.2-2.4,0.2c-1,0-1.9-0.1-2.6-0.4c-0.8-0.3-1.4-0.7-1.8-1.1
	c-0.5-0.5-0.8-1.1-1.1-1.7c-0.2-0.7-0.3-1.4-0.3-2.2c0-0.7,0.1-1.4,0.2-2.1c0.1-0.7,0.4-1.4,0.7-2c0.3-0.6,0.7-1.2,1.1-1.8
	c0.4-0.6,0.9-1,1.5-1.5c0.6-0.4,1.2-0.7,1.9-1c0.7-0.2,1.5-0.3,2.3-0.3c0.7,0,1.4,0.1,2,0.3c0.6,0.2,1.1,0.4,1.5,0.8
	c0.4,0.3,0.7,0.7,1,1.2C391.1,280.3,391.2,280.8,391.2,281.3z M387.8,281.3c0-0.3-0.1-0.6-0.4-0.8c-0.2-0.2-0.6-0.3-1.1-0.3
	c-0.4,0-0.8,0.1-1.2,0.2c-0.4,0.1-0.8,0.4-1.1,0.7c-0.3,0.3-0.7,0.7-0.9,1.1c-0.3,0.4-0.5,0.9-0.7,1.5c1,0,1.8-0.1,2.5-0.2
	c0.7-0.1,1.2-0.3,1.6-0.5c0.4-0.2,0.7-0.5,0.9-0.7C387.7,281.9,387.8,281.6,387.8,281.3z M373.1,283.3c0.1-0.3,0.1-0.6,0.1-0.8
	c0-0.2,0.1-0.4,0.1-0.6c0-0.5-0.1-0.8-0.4-1.1c-0.3-0.3-0.7-0.4-1.2-0.4c-0.7,0-1.3,0.2-1.9,0.6s-1.1,0.9-1.5,1.5
	c-0.1,0.1-0.1,0.3-0.2,0.4c-0.1,0.1-0.1,0.3-0.2,0.5c-0.1,0.2-0.1,0.4-0.2,0.6c-0.1,0.2-0.1,0.5-0.2,0.8l-1.4,6.8h-3.3l4.2-20.3h3.3
	l-1.3,6.3c-0.1,0.5-0.3,1.2-0.6,2.1h0.1c0.2-0.3,0.5-0.5,0.8-0.8c0.3-0.3,0.6-0.5,1-0.7c0.4-0.2,0.8-0.3,1.2-0.4
	c0.4-0.1,0.9-0.2,1.3-0.2c0.5,0,1,0.1,1.5,0.2c0.5,0.2,0.9,0.4,1.3,0.7c0.4,0.3,0.7,0.7,0.9,1.1c0.2,0.4,0.3,0.9,0.3,1.5
	c0,0.3,0,0.7-0.1,1.1c-0.1,0.4-0.1,0.8-0.2,1.3l-1.7,8h-3.3L373.1,283.3z M361.8,280.7h-3.6l-1.4,6.5c0,0.2-0.1,0.4-0.1,0.5
	c0,0.2,0,0.3,0,0.4c0,0.3,0.1,0.6,0.3,0.7c0.2,0.1,0.5,0.2,1,0.2c0.3,0,0.7,0,1.2-0.1c0.5-0.1,0.9-0.2,1.3-0.2l-0.6,2.8
	c-0.5,0.1-0.9,0.2-1.5,0.3c-0.5,0.1-1,0.1-1.5,0.1c-0.7,0-1.2-0.1-1.7-0.2c-0.5-0.1-0.9-0.3-1.2-0.6c-0.3-0.3-0.5-0.6-0.7-0.9
	c-0.1-0.4-0.2-0.8-0.2-1.2c0-0.2,0-0.3,0-0.6c0-0.2,0.1-0.5,0.1-0.8l1.4-6.9h-2.6l0.6-2.7h2.6l0.8-3.8h3.3l-0.8,3.8h3.6L361.8,280.7
	z M332.2,278h3.4l1.3,5.9c0.3,1.3,0.5,2.5,0.7,3.6h0.1c0.5-1.1,1.1-2.2,1.7-3.4l3.4-6.1h3.8l-8,14c-0.5,0.9-1.1,1.8-1.6,2.6
	c-0.5,0.8-1.1,1.5-1.8,2c-0.6,0.6-1.4,1-2.1,1.3c-0.8,0.3-1.6,0.5-2.6,0.5c-0.7,0-1.3-0.1-1.8-0.2l0.6-2.7c0.4,0.1,0.7,0.1,1.1,0.1
	c0.5,0,1-0.1,1.5-0.3c0.4-0.2,0.9-0.5,1.2-0.8c0.4-0.4,0.8-0.8,1.1-1.4c0.4-0.5,0.8-1.2,1.2-1.9L332.2,278z M322.2,291.9
	c-0.9,0-1.7-0.1-2.3-0.3c-0.6-0.2-1.2-0.5-1.6-0.8c-0.4-0.4-0.7-0.8-0.9-1.3c-0.2-0.5-0.3-1.1-0.3-1.7c0-0.2,0-0.4,0-0.7
	c0-0.3,0.1-0.6,0.2-1l1.7-8.1h3.3l-1.7,8.3c0,0.2-0.1,0.4-0.1,0.6c0,0.2,0,0.4,0,0.5c0,0.6,0.2,1,0.5,1.3c0.3,0.3,0.8,0.5,1.5,0.5
	c0.5,0,0.9-0.1,1.3-0.2c0.3-0.1,0.7-0.3,0.9-0.6s0.4-0.6,0.6-0.9c0.2-0.4,0.3-0.8,0.4-1.2l1.7-8.2h3.3l-1.9,9.1
	c-0.1,0.6-0.3,1.2-0.6,1.8c-0.3,0.6-0.7,1.1-1.2,1.5c-0.5,0.4-1.2,0.8-1.9,1.1C324.3,291.8,323.3,291.9,322.2,291.9z M314.8,277.3
	c0,1.1-0.3,2-0.9,2.8c-0.6,0.7-1.4,1.3-2.5,1.8v0.1c0.4,0.1,0.8,0.3,1.1,0.5c0.3,0.2,0.6,0.5,0.8,0.8c0.2,0.3,0.4,0.6,0.5,1
	c0.1,0.4,0.2,0.7,0.2,1.1c0,1.3-0.4,2.4-1.2,3.3c-0.8,1-1.9,1.7-3.4,2.2c-0.7,0.2-1.5,0.4-2.3,0.5c-0.9,0.1-1.8,0.2-2.9,0.2h-5.4
	l3.9-18.7h5.3c0.8,0,1.4,0,2,0.1c0.6,0.1,1.1,0.2,1.6,0.4c1,0.4,1.8,0.9,2.3,1.6C314.5,275.6,314.8,276.4,314.8,277.3z M304,283.4
	l-1.1,5.3h1.8c1.6,0,2.8-0.2,3.6-0.5c0.8-0.3,1.4-0.7,1.7-1.3c0.4-0.5,0.5-1.1,0.5-1.7c0-0.4-0.1-0.7-0.3-1c-0.2-0.3-0.5-0.5-1-0.6
	c-0.2-0.1-0.5-0.1-0.8-0.2c-0.3,0-0.7,0-1.1,0H304z M307.1,280.5c0.6,0,1,0,1.4-0.1c0.4-0.1,0.7-0.1,1-0.2c0.6-0.2,1-0.6,1.3-1
	c0.3-0.4,0.5-1,0.5-1.6c0-0.4-0.1-0.7-0.3-1c-0.2-0.3-0.5-0.5-1-0.7c-0.2-0.1-0.5-0.1-0.8-0.2c-0.3-0.1-0.7-0.1-1.2-0.1h-2.4l-1,4.9
	H307.1z"/>
<path class="st1" d="M182.2,137c0,0-1.6-80,96.4-87.4l0.1-4.6c0-3,5.6-3.1,5.7,0.5l0.1,3.7c0,0,94.1,6,96,88.5c0,0-31.9-17.4-58,4.8
	c0,0-39-25.8-82.6,0C239.8,142.6,218.2,121,182.2,137"/>
<path class="st3" d="M281.3,49.8c0,0-43.6,42.3-41.5,92.8c-0.1,0.5,37.3-26,82.6,0C322.4,142.6,327.5,93.3,281.3,49.8"/>
<path class="st2" d="M297.6,113.2h-3.1v-1.9c0-0.4,0-1.6,1.6-1.6c1.5,0,1.5,1.2,1.5,1.6V113.2z M301.9,115.8v-4.7
	c0-2.5-2.2-4.2-5.7-4.2c-3.7,0-6,1.7-6,4.6v6.6c0,2.5,1.1,5,5.9,5c3.4,0,5.7-1.2,5.7-4.2v-1.3h-4.2v0.5c0,1-0.1,2.1-1.5,2.1
	c-1.1,0-1.6-0.6-1.6-1.7v-2.8H301.9z M286.5,107.2v-1.9c0-0.5,0.1-1.1,1.1-1.1c0.3,0,0.5,0,0.9,0.1v-3c-0.5,0-1.1-0.1-1.6-0.1
	c-2.9,0-4.8,0.5-4.8,3.6v2.4h-2v2.4h1.9v13.2h4.3v-13.2h1.9v-2.4H286.5z M278.2,122.8v-15.7h-4.4v15.7H278.2z M278.2,104.9v-3.7
	h-4.4v3.7H278.2z M272.1,122.8v-3.3h-6.9v-18.3h-4.7v21.6H272.1z"/>
<path class="st2" d="M239.6,118.2l1-7.7c0.2-1.3-0.4-2.4-2-2.6c-1.3-0.1-2.1,0.5-2.4,0.7l0.6-4.5l-2.5-0.3l-1.7,13.6l2.5,0.3
	l0.9-7.1c0.1-0.4,0.2-1.1,1.1-1c0.9,0.1,0.9,0.7,0.8,1.3l-0.9,7L239.6,118.2z M231,108.7l1.5,0.2l0.2-1.5l-1.5-0.2l0.5-3.6l-2.5-0.3
	l-0.4,3.6l-1.4-0.2l-0.2,1.5l1.4,0.2l-0.8,6.4c-0.2,1.5,0.4,2.1,2.5,2.4c0.7,0.1,1,0.1,1.3,0l0.2-1.7c-0.2,0-0.3,0-0.4,0
	c-0.9-0.1-1.1-0.4-1-1.2L231,108.7z M224.9,116.4l1.7-13.6l-2.6-0.3l-1.7,13.6L224.9,116.4z M218.2,113.5c-0.7,0.4-1,0.4-1.3,0.4
	c-0.4-0.1-0.6-0.4-0.5-1.2c0.1-1,0.2-1.3,0.8-1.6l1.3-0.6L218.2,113.5z M221,115.9c-0.4-0.4-0.3-1.2-0.3-2l0.8-6
	c0.3-2.2-2.7-2.5-3-2.6c-3.3-0.4-3.6,1.3-3.6,1.7l-0.1,1.1l2.3,0.3l0-0.4c0.1-0.9,0.2-1.3,1-1.2c0.6,0.1,0.9,0.3,0.8,1.1l-0.1,0.7
	l-2.8,0.9c-1.3,0.4-1.8,0.8-2,2.3l-0.1,0.7c-0.2,1.3-0.1,2.7,1.8,2.9c1.3,0.2,1.8-0.4,2.3-0.8c0,0.5,0,0.7,0.2,0.9L221,115.9z
	 M210.5,108.5l-1.8-0.2l0.2-1.2c0-0.3,0.1-1,1.1-0.9c0.9,0.1,0.8,0.9,0.7,1.1L210.5,108.5z M212.8,110.4l0.4-3
	c0.2-1.6-0.9-2.8-3-3.1c-2.2-0.3-3.6,0.6-3.9,2.5l-0.5,4.2c-0.2,1.6,0.3,3.3,3.1,3.6c2,0.3,3.4-0.3,3.7-2.2l0.1-0.8l-2.5-0.3l0,0.3
	c-0.1,0.7-0.2,1.3-1.1,1.2c-0.7-0.1-0.9-0.5-0.8-1.2l0.2-1.7L212.8,110.4z M203.5,113.8l1.7-13.6l-2.8-0.3l-0.7,5.3l-2.5-0.3
	l0.7-5.3l-2.8-0.3l-1.7,13.6l2.8,0.3l0.8-6.2l2.5,0.3l-0.8,6.2L203.5,113.8z"/>
<path class="st2" d="M368.3,104.5l-0.1,0c-1,0.1-1.7,0.7-2.1,1.7L366,105l-2.4,0.3l0.4,9.9l2.4-0.3l-0.3-5.8c0-1,0-2.1,1.5-2.3
	c0.4-0.1,0.6,0,0.8,0L368.3,104.5z M358,108.6c0-0.5-0.1-1.2,0.8-1.3c0.7-0.1,0.8,0.5,0.9,1.1l0.2,5c0,0.4,0,1-0.8,1.2
	c-0.8,0.1-0.9-0.7-0.9-0.9L358,108.6z M362.1,108.1c-0.1-2.2-1.7-2.5-3.3-2.3c-2.1,0.3-3.2,1.3-3.1,3.3l0.2,4.4
	c0.1,2.2,1.4,2.8,3.2,2.6c1.8-0.3,3.3-1.2,3.2-3.2L362.1,108.1z M353.2,108.3l1.4-0.2l-0.1-1.5l-1.4,0.2l-0.2-3.6l-2.4,0.3l0.2,3.6
	l-1.3,0.2l0.1,1.5l1.3-0.2l0.3,6.4c0.1,1.5,0.7,2,2.7,1.7c0.6-0.1,1-0.2,1.2-0.3l-0.1-1.7c-0.1,0-0.3,0.1-0.4,0.1
	c-0.8,0.1-1.1-0.1-1.1-0.9L353.2,108.3z M344.7,110.3c0-0.5-0.1-1.2,0.8-1.3c0.7-0.1,0.8,0.5,0.9,1.1l0.2,5c0,0.4,0,1-0.8,1.2
	c-0.8,0.1-0.9-0.7-0.9-0.9L344.7,110.3z M348.7,109.9c-0.1-2.2-1.7-2.5-3.3-2.3c-2.1,0.3-3.2,1.3-3.1,3.3l0.2,4.4
	c0.1,2.2,1.4,2.8,3.2,2.6c1.8-0.2,3.3-1.2,3.2-3.2L348.7,109.9z M340.8,118.3l-0.6-13.6l-4.2,0.6l-1.3,9.8l-2.1-9.3l-4.3,0.6
	l0.6,13.6l2.6-0.3c-0.2-3.4-0.7-11.8-0.7-11.8l2.9,11.5l2.4-0.3l1.8-12.1c0.1,2.8,0.3,11.8,0.3,11.8L340.8,118.3z"/>
<path class="st4" d="M280.5,54.1c26.6,0,48.2,6.9,48.2,15.4c0,8.5-21.6,15.4-48.2,15.4c-26.6,0-48.2-6.9-48.2-15.4
	C232.3,61,253.9,54.1,280.5,54.1z"/>
<path class="st3" d="M280.6,54.1c26.6,0,48.2,6.9,48.2,15.4s-21.6,15.4-48.2,15.4c-26.6,0-48.2-6.9-48.2-15.4S253.9,54.1,280.6,54.1
	"/>
<path class="st2" d="M310.5,69.6h-1.7v-1.3c0-0.3,0-1.1,0.9-1.1c0.8,0,0.8,0.8,0.8,1.1V69.6z M312.9,71.3v-3.2
	c0-1.7-1.2-2.8-3.1-2.8c-2,0-3.2,1.2-3.2,3.1v4.5c0,1.7,0.6,3.4,3.2,3.4c1.9,0,3.1-0.8,3.1-2.8v-0.9h-2.3v0.3c0,0.7-0.1,1.4-0.8,1.4
	c-0.6,0-0.9-0.4-0.9-1.2v-1.9H312.9z M302.9,71.9v1.2c0,0.6-0.2,1.4-0.9,1.4c-0.8,0-0.9-0.7-0.9-1.4v-4.6c0-0.9,0.2-1.4,1-1.4
	c0.8,0,0.9,0.7,0.9,1.2v1.3h2.3v-1.4c0-2.4-2-2.8-3.2-2.8c-1.9,0-3.3,1-3.3,3.1v4.9c0,2,1.1,3,3.3,3c2.2,0,3.2-1.2,3.2-3.2v-1.2
	H302.9z M297.1,76.1v-8.6c0-1-0.6-2.1-2.1-2.1c-0.9,0-1.4,0.3-2,1v-0.8h-2.4v10.6h2.3v-7.6c0-1,0.3-1.4,1-1.4c0.7,0,0.8,0.5,0.8,1.3
	v7.8H297.1z M286.5,73.8c-0.6,0.5-0.9,0.6-1.1,0.6c-0.4,0-0.6-0.3-0.6-1.2c0-1.1,0.1-1.4,0.5-1.8l1.1-0.8V73.8z M289.3,76.1
	c-0.5-0.3-0.5-1.3-0.5-2v-6.4c0-2.3-2.8-2.3-3-2.3c-3,0-3.1,1.8-3.1,2.3v1.2h2.2v-0.4c0-1,0.1-1.4,0.8-1.4c0.6,0,0.8,0.2,0.8,1.1
	v0.8l-2.4,1.3c-1.1,0.6-1.5,1.1-1.5,2.6v0.7c0,1.4,0.3,2.8,2,2.8c1.2,0,1.6-0.7,2-1.2c0,0.5,0.1,0.7,0.3,0.9H289.3z M282,65.3h-0.1
	c-1,0-1.7,0.5-2.2,1.5v-1.3h-2.4v10.6h2.3v-6.2c0-1.1,0.1-2.3,1.5-2.3c0.4,0,0.6,0.1,0.8,0.2V65.3z M275.7,76.1V65.5h-2.4V73
	c0,0.8-0.1,1.4-0.9,1.4c-0.8,0-0.9-0.6-0.9-1.3v-7.6h-2.4v8.4c0,1.3,0.5,2.4,2,2.4c1.1,0,1.9-0.8,2.1-1.1v0.9H275.7z M261.4,72.3
	v1.1c0,2.4,1.6,2.8,3.1,2.8c2.5,0,3.1-1,3.1-3.3c0-1.1-0.2-1.8-1-2.4l-2.2-1.6c-0.5-0.3-0.7-0.6-0.7-1.2c0-0.5,0.2-0.9,0.8-0.9
	c0.7,0,0.9,0.6,0.9,1.2v0.8h2v-1.2c0-1-0.4-2.4-2.9-2.4c-1.8,0-3,0.6-3,2.7c0,1.2,0.5,2,1.2,2.5l2,1.4c0.6,0.4,0.7,0.6,0.7,1.4
	c0,1.2-0.7,1.2-0.9,1.2c-0.9,0-0.9-0.8-0.9-1.3v-0.9H261.4z M260,76.1v-8.6c0-1-0.6-2.1-2.1-2.1c-0.9,0-1.4,0.3-2,1v-0.8h-2.4v10.6
	h2.3v-7.6c0-1,0.3-1.4,1-1.4c0.7,0,0.8,0.5,0.8,1.3v7.8H260z M251.7,76.1V61.5h-2.5v14.6H251.7z"/>
<g>
	<defs>
		<path id="SVGID_1_" d="M281.1,148.2c14.8,0,28.4,5.1,39.1,13.6c5.6,4.5,10.4,9.9,14.3,16c6,9.6,9.5,21,9.5,33.3
			c0,34.7-28.2,62.9-62.9,62.9c-34.7,0-62.9-28.2-62.9-62.9C218.2,176.4,246.3,148.2,281.1,148.2"/>
	</defs>
	<clipPath id="SVGID_2_">
		<use xlink:href="#SVGID_1_"  style="overflow:visible;"/>
	</clipPath>
	
		<linearGradient id="SVGID_3_" gradientUnits="userSpaceOnUse" x1="268.429" y1="196.4656" x2="288.9699" y2="196.4656" gradientTransform="matrix(6.1223 0 0 6.1228 -1425.1991 -991.8098)">
		<stop  offset="0" style="stop-color:#547DBF"/>
		<stop  offset="1" style="stop-color:#73BF44"/>
	</linearGradient>
	<rect x="218.2" y="148.2" class="st5" width="125.8" height="125.8"/>
</g>
<path class="st6" d="M281,153.6c13.5,0,25.9,4.7,35.7,12.5c5.1,4.1,9.5,9,13,14.6c5.5,8.8,8.7,19.2,8.7,30.4
	c0,31.7-25.7,57.5-57.5,57.5c-31.7,0-57.5-25.7-57.5-57.5C223.6,179.4,249.3,153.6,281,153.6z"/>
<path class="st7" d="M546.9,186.5h-12.1v45.6c0,2.6-0.5,4.6-1.5,5.9c-1,1.3-2.3,1.9-4,1.9c-1.6,0-3-0.6-4-1.9
	c-1-1.3-1.6-3.2-1.6-5.8v-45.6h-12.1c-1.9,0-3.3-0.5-4.2-1.4c-0.9-1-1.4-2.2-1.4-3.8c0-1.6,0.5-2.9,1.4-3.9c1-0.9,2.3-1.4,4.2-1.4
	h35.3c1.9,0,3.3,0.5,4.3,1.5c0.9,1,1.4,2.3,1.4,3.8c0,1.6-0.5,2.9-1.4,3.8C550.2,186.1,548.8,186.5,546.9,186.5 M501.9,220
	c0,3.8-0.9,7.2-2.6,10.2c-1.7,3-4.2,5.4-7.5,7.1c-3.3,1.7-7.2,2.6-11.7,2.6c-5.4,0-9.9-1.2-13.4-3.5c-2.5-1.7-4.5-3.9-6.1-6.7
	c-1.6-2.8-2.3-5.5-2.3-8.2c0-1.5,0.5-2.8,1.4-4c0.9-1.1,2.1-1.6,3.6-1.6c1.2,0,2.2,0.4,3,1.3c0.8,0.8,1.5,2.1,2.1,3.8
	c0.7,2,1.5,3.7,2.3,5c0.8,1.3,1.9,2.5,3.4,3.3c1.5,0.9,3.4,1.3,5.8,1.3c3.3,0,6-0.9,8-2.6c2.1-1.8,3.1-3.9,3.1-6.6
	c0-2.1-0.5-3.8-1.7-5.1c-1.1-1.3-2.5-2.3-4.3-3c-1.7-0.7-4.1-1.4-7-2.2c-3.9-1.1-7.2-2.3-9.9-3.7c-2.6-1.4-4.8-3.3-6.3-5.8
	c-1.6-2.4-2.3-5.5-2.3-9.1c0-3.4,0.8-6.5,2.5-9.2c1.6-2.7,4-4.7,7.1-6.2c3.1-1.5,6.8-2.2,11-2.2c3.4,0,6.3,0.5,8.7,1.4
	c2.5,1,4.5,2.2,6.1,3.8c1.6,1.6,2.8,3.3,3.5,5c0.7,1.7,1.1,3.4,1.1,5.1c0,1.5-0.5,2.9-1.4,4.1c-0.9,1.2-2.1,1.8-3.5,1.8
	c-1.3,0-2.2-0.4-2.9-1.1c-0.7-0.7-1.4-1.9-2.1-3.6c-1-2.4-2.2-4.2-3.6-5.6c-1.4-1.3-3.6-2-6.7-2c-2.9,0-5.2,0.7-6.9,2.2
	c-1.8,1.5-2.6,3.2-2.6,5.2c0,1.3,0.3,2.3,0.9,3.3c0.6,0.9,1.4,1.7,2.5,2.4c1,0.7,2.1,1.2,3.2,1.5c1.1,0.4,2.8,0.9,5.3,1.6
	c3.1,0.8,5.9,1.7,8.4,2.7c2.5,1,4.6,2.2,6.4,3.6c1.8,1.4,3.1,3.2,4.1,5.4C501.4,214.1,501.9,216.8,501.9,220z M445.4,185.8h-25v15.4
	h23c1.7,0,3,0.4,3.8,1.3c0.8,0.9,1.3,2,1.3,3.4c0,1.4-0.4,2.6-1.2,3.5c-0.8,0.9-2.1,1.3-3.8,1.3h-23v17.9h25.8
	c1.7,0,3.1,0.5,3.9,1.4c0.9,0.9,1.3,2.2,1.3,3.7c0,1.5-0.4,2.7-1.3,3.6c-0.9,0.9-2.2,1.4-3.9,1.4h-30.1c-2.4,0-4.1-0.6-5.2-1.8
	c-1.1-1.2-1.6-3.2-1.6-6v-47.2c0-1.8,0.2-3.3,0.7-4.5c0.5-1.2,1.2-2,2.2-2.5c1-0.5,2.3-0.8,3.9-0.8h29.3c1.8,0,3.1,0.5,3.9,1.3
	c0.9,0.9,1.3,2.1,1.3,3.5c0,1.5-0.4,2.7-1.3,3.6C448.5,185.4,447.2,185.8,445.4,185.8z M365.4,185.6v16.2h10.2
	c2.8,0,4.9-0.3,6.4-0.9c1.5-0.6,2.7-1.7,3.5-3.4c0.6-1.2,0.9-2.5,0.9-4c0-3.2-1-5.3-3-6.3c-2-1-5-1.6-9-1.6H365.4z M376.9,210.9
	h-11.5v18.3h11.9c7.5,0,11.2-3.1,11.2-9.3c0-3.2-1-5.5-2.9-6.9C383.7,211.6,380.8,210.9,376.9,210.9z M377.7,238.8H361
	c-2.4,0-4.1-0.6-5.2-1.9c-1-1.2-1.6-3.2-1.6-5.9v-47.2c0-2.8,0.5-4.8,1.6-6c1.1-1.2,2.8-1.8,5.1-1.8h17.7c2.6,0,4.9,0.2,6.8,0.6
	c1.9,0.4,3.6,1.1,5.2,2.1c1.3,0.9,2.4,2,3.4,3.4c1,1.4,1.7,2.8,2.3,4.5c0.5,1.7,0.8,3.4,0.8,5.2c0,6.3-2.7,10.9-8.2,13.8
	c7.2,2.6,10.8,7.7,10.8,15.3c0,3.5-0.8,6.7-2.4,9.5c-1.6,2.8-3.7,4.9-6.3,6.2c-1.7,0.8-3.6,1.4-5.7,1.7
	C383.2,238.7,380.6,238.8,377.7,238.8z"/>
<g>
	<defs>
		<path id="SVGID_4_" d="M319.4,161.2c0,0,37.9-26.5,52.5-25.9l-37.4,42.5L319.4,161.2z"/>
	</defs>
	<clipPath id="SVGID_5_">
		<use xlink:href="#SVGID_4_"  style="overflow:visible;"/>
	</clipPath>
	
		<linearGradient id="SVGID_6_" gradientUnits="userSpaceOnUse" x1="288.5421" y1="178.951" x2="309.0809" y2="178.951" gradientTransform="matrix(2.5574 0 0 2.0699 -418.5513 -214.1037)">
		<stop  offset="0" style="stop-color:#547DBF"/>
		<stop  offset="1" style="stop-color:#73BF44"/>
	</linearGradient>
	<rect x="319.4" y="134.7" class="st8" width="52.5" height="43.2"/>
</g>
<path class="st3" d="M239.8,209.1l7.8-7.4c3.9-3.7,8.2-4.9,11.9-0.6c3.4,4.1,11.2,13.7,13.2,19.5c0,0,37.5-58.2,93-82.9
	c-15.8,14.6-36.9,32.7-50.7,49.4c-13.6,16.5-36.9,47.7-45.5,67.9c0,0-7.5-22.9-30.2-43.3C237.8,210.3,238.1,210.7,239.8,209.1"/>
</svg>
