<?xml version="1.0" encoding="utf-8"?>
<!-- Generator: Adobe Illustrator 23.0.0, SVG Export Plug-In . SVG Version: 6.00 Build 0)  -->
<svg version="1.1" id="Layer_1" xmlns="http://www.w3.org/2000/svg" xmlns:xlink="http://www.w3.org/1999/xlink" x="0px" y="0px"
	 viewBox="0 0 1366 1258.1" style="enable-background:new 0 0 1366 1258.1;" xml:space="preserve">
<style type="text/css">
	.st0{opacity:7.000000e-02;}
	.st1{fill:url(#Path_8_1_);}
	.st2{fill:url(#Path_9_1_);}
	.st3{fill:url(#Path_10_1_);}
</style>
<g id="Group_115" transform="translate(0 -1092.746)" class="st0">
	
		<linearGradient id="Path_8_1_" gradientUnits="userSpaceOnUse" x1="384.4358" y1="2141.96" x2="385.2978" y2="2141.071" gradientTransform="matrix(654.6777 0 0 -594.4723 -251665.9063 1274442.875)">
		<stop  offset="0" style="stop-color:#547CBE"/>
		<stop  offset="1" style="stop-color:#73BE44"/>
	</linearGradient>
	<path id="Path_8" class="st1" d="M0,1197.3c0,0,103-93.5,198-103.3s96.2,39.8,180,90s60,19,112,13.3s65.3-81.3,108-57.3
		s70,68,50,114s-64,52-90,96s22.3,121-12.7,164.7s-83,17-106.7-6.7s59-77,16-94.7s-133.3-26-172,8s-57.7,67.7-44,117.3
		s126.7,28,98.7,81.3s-117,70.7-201.3,66.7S0,1604,0,1604V1197.3z"/>
	
		<linearGradient id="Path_9_1_" gradientUnits="userSpaceOnUse" x1="385.4946" y1="2142.0115" x2="384.5716" y2="2141.0554" gradientTransform="matrix(751.4574 0 0 -529.5922 -288311.5625 1136221.75)">
		<stop  offset="0" style="stop-color:#547CBE"/>
		<stop  offset="1" style="stop-color:#73BE44"/>
	</linearGradient>
	<path id="Path_9" class="st2" d="M1366,1837.3c0,0-37.2,58-144,96.7s-122.3-104.3-226-112s-140.3,42.2-202.7,100.7
		s-2.7,73.3-46.7,133.3s-117,31.7-129.3,106.7s17.3,148,66.7,174.7s91.7-10.3,178.7-17.3s135.7,58,224,17.3s51.5-106,121.3-137.3
		s158-25.3,158-25.3V1837.3z"/>
	<linearGradient id="Path_10_1_" gradientUnits="userSpaceOnUse" x1="129.2703" y1="2032.6852" x2="324.5247" y2="2032.6852">
		<stop  offset="0" style="stop-color:#547CBE"/>
		<stop  offset="1" style="stop-color:#73BE44"/>
	</linearGradient>
	<path id="Path_10" class="st3" d="M183.7,1953.3c-28.6,3.1-64,62.7-52,116s53.3,56,74.7,12.6s64,52.8,94.7,18.1
		s38.7-114.7-21.3-94.7S212.2,1950.2,183.7,1953.3z"/>
</g>
</svg>
