<?xml version="1.0" encoding="utf-8"?>
<!-- Generator: Adobe Illustrator 23.0.0, SVG Export Plug-In . SVG Version: 6.00 Build 0)  -->
<svg version="1.1" id="Layer_1" xmlns="http://www.w3.org/2000/svg" xmlns:xlink="http://www.w3.org/1999/xlink" x="0px" y="0px"
	 viewBox="0 0 595.3 841.9" style="enable-background:new 0 0 595.3 841.9;" xml:space="preserve">
<style type="text/css">
	.st0{fill-rule:evenodd;clip-rule:evenodd;fill:#72BE44;}
	.st1{fill-rule:evenodd;clip-rule:evenodd;fill:#547CBE;}
	.st2{fill:#221F1F;}
	.st3{fill:none;stroke:#FFFFFF;stroke-width:0.1658;stroke-linecap:round;stroke-linejoin:round;stroke-miterlimit:2.6131;}
	.st4{clip-path:url(#SVGID_2_);fill:url(#SVGID_3_);}
	.st5{fill:none;stroke:#FFFFFF;stroke-width:0.1256;stroke-linecap:round;stroke-linejoin:round;stroke-miterlimit:2.6131;}
	.st6{clip-path:url(#SVGID_5_);fill:url(#SVGID_6_);}
</style>
<g>
	<polygon class="st0" points="320.1,329.4 115.3,705.6 129.7,713.5 333.7,338.8 	"/>
	<path class="st0" d="M48.1,728.7l-4.8,10.2c-11.3,23.8,23.2,53.2,46.1,9.8l23.7-42.6c0,0,16.4-13.9,18.1,10.6l-27.5,50.6
		C76.4,817.1,8.3,784.3,20,742.7c2-7,6.9-15,10.4-21.5C37.7,707.3,55,714.2,48.1,728.7"/>
	<path class="st1" d="M83.5,226.5c0,0,98.5-189.9,338.2-82l6-10.7c3.9-7,17.1-0.1,12.7,8.4l-4.6,8.8c0,0,213.4,134.3,112.3,330.7
		c0,0-52.7-81.7-142.5-62.9c0,0-58.7-110.5-193.9-105.6C211.8,313.3,188.6,234.9,83.5,226.5"/>
	<path class="st0" d="M427.8,148.5c0,0-156.5,43.5-216,164.9c-0.7,1,120.8-13.3,193.9,105.6C405.7,418.9,480.6,309.8,427.8,148.5"/>
	<path class="st2" d="M385,318.3l-7.2-3.9l2.5-4.5c0.5-0.9,2.1-3.6,5.7-1.6c3.5,1.9,1.9,4.8,1.5,5.6L385,318.3z M391.8,329.8
		l6.1-11.1c3.2-6,0.2-12.6-8.1-17.2c-8.8-4.8-16.2-3.6-19.9,3.2l-8.4,15.5c-3.2,6-3.8,13.3,7.4,19.4c8,4.4,14.9,4.5,18.8-2.6l1.6-3
		l-9.8-5.3l-0.7,1.2c-1.3,2.4-3,4.8-6.3,3c-2.6-1.4-3-3.5-1.5-6.1l3.5-6.5L391.8,329.8z M366.5,289.8l2.5-4.5c0.7-1.2,1.7-2.3,4-1.1
		c0.6,0.3,1.2,0.8,2.1,1.4l3.8-7c-1.2-0.7-2.5-1.5-3.8-2.2c-6.8-3.7-11.8-4.9-15.7,2.3l-3.1,5.7l-4.6-2.5l-3.1,5.7l4.5,2.5
		L336.2,321l10.1,5.5l16.9-31.1l4.5,2.5l3.1-5.7L366.5,289.8z M327,316l20-36.8l-10.2-5.6l-20,36.8L327,316z M349.9,273.9l4.7-8.6
		l-10.2-5.6l-4.7,8.6L349.9,273.9z M312.7,308.2l4.2-7.7l-16.3-8.9l23.4-43l-11.1-6l-27.6,50.7L312.7,308.2z"/>
	<path class="st2" d="M242.3,255.8l12.1-16.9c2.1-2.9,2-6.3-1.3-8.6c-2.8-2-5.4-1.5-6.5-1.4l7.1-9.9l-5.5-3.9L227,244.8l5.5,4
		l11.2-15.6c0.7-0.9,1.9-2.2,3.9-0.8c1.9,1.3,1.2,2.6,0.2,4.1l-11,15.3L242.3,255.8z M234.2,222.4l3.3,2.4l2.4-3.3l-3.3-2.4l5.6-7.8
		l-5.5-4l-5.6,7.8l-3-2.1l-2.4,3.3l3,2.2l-10.1,14c-2.3,3.2-1.8,5.5,2.9,8.8c1.4,1,2.3,1.5,3,1.8l2.6-3.6c-0.4-0.2-0.7-0.4-1-0.6
		c-1.9-1.3-2.1-2.4-0.9-4.1L234.2,222.4z M210.2,232.8l21.4-29.7l-5.6-4l-21.4,29.7L210.2,232.8z M198.2,217.3
		c-2.1,0.1-3-0.3-3.5-0.7c-1-0.7-0.8-1.6,0.4-3.3c1.5-2.2,2.2-2.8,3.8-2.7l3.9,0.3L198.2,217.3z M201.6,226.6
		c-0.6-1.5,0.8-3.3,1.9-4.9l9.4-13.1c3.4-4.8-3.2-9.5-3.7-9.8c-7.1-5.1-10-1.6-10.7-0.6l-1.8,2.5l5.1,3.6l0.6-0.8
		c1.4-2,2.2-2.7,4-1.5c1.4,1,1.7,1.8,0.4,3.6l-1.2,1.6l-7.7-1.5c-3.6-0.7-5.2-0.5-7.5,2.8l-1.1,1.5c-2.1,2.9-3.5,6.2,0.6,9.1
		c2.8,2,4.9,1.3,6.5,1.1c-0.7,1.1-0.8,1.6-0.7,2.4L201.6,226.6z M186.4,195.7l-4-2.8l1.9-2.7c0.4-0.5,1.6-2.1,3.6-0.7
		c1.9,1.4,0.7,3.1,0.4,3.5L186.4,195.7z M189.4,203.2l4.7-6.5c2.5-3.5,1.4-7.8-3.2-11c-4.8-3.4-9.3-3.1-12.2,0.9l-6.5,9.1
		c-2.5,3.5-3.6,8,2.6,12.4c4.4,3.2,8.5,3.6,11.5-0.5l1.3-1.8l-5.4-3.8l-0.5,0.7c-1,1.4-2.2,2.8-4,1.5c-1.4-1-1.5-2.3-0.3-3.9
		l2.7-3.8L189.4,203.2z M163.2,199.2l21.4-29.7l-6.1-4.3l-8.4,11.7l-5.6-4l8.4-11.7l-6.1-4.4l-21.4,29.7l6.1,4.3l9.8-13.6l5.6,4
		l-9.8,13.6L163.2,199.2z"/>
	<path class="st2" d="M562.1,388.2l-0.3-0.1c-2.5-1-4.9-0.5-7.3,1.3l1.5-3l-6-2.3l-11.6,23.8l6,2.3l6.9-14c1.2-2.4,2.8-4.9,6.4-3.6
		c1,0.4,1.5,0.8,1.8,1.1L562.1,388.2z M532.9,384.5c0.6-1.1,1.4-2.9,3.6-2.1c1.8,0.7,1.3,2.3,0.6,3.7l-5.9,12.1
		c-0.4,0.9-1.2,2.5-3.3,1.7c-2.1-0.8-1.2-2.6-0.9-3.2L532.9,384.5z M543,388.6c2.5-5.2-0.9-8-4.8-9.6c-5.2-2-9.2-1-11.6,3.7
		l-5.2,10.7c-2.6,5.2-0.4,8.4,4.3,10.2c4.7,1.8,9.2,1.4,11.6-3.4L543,388.6z M521.9,377.7l3.6,1.4l1.8-3.7l-3.6-1.4l4.2-8.6l-6-2.3
		l-4.2,8.6l-3.2-1.2l-1.8,3.7l3.3,1.3l-7.5,15.4c-1.8,3.6-0.8,5.5,4.2,7.4c1.6,0.6,2.5,0.8,3.2,0.9l2-4c-0.4-0.1-0.7-0.2-1.1-0.3
		c-2-0.8-2.4-1.7-1.5-3.6L521.9,377.7z M499.2,371.6c0.6-1.1,1.4-2.9,3.6-2.1c1.8,0.7,1.3,2.3,0.6,3.7l-5.9,12.1
		c-0.4,0.9-1.2,2.5-3.4,1.7c-2.1-0.8-1.2-2.7-0.9-3.3L499.2,371.6z M509.3,375.7c2.5-5.2-0.9-8-4.8-9.6c-5.2-2-9.2-1-11.6,3.7
		l-5.2,10.7c-2.5,5.2-0.4,8.3,4.3,10.1c4.6,1.8,9.2,1.4,11.6-3.4L509.3,375.7z M480,385.5l16.1-32.8l-10.6-4L470,370l7-24.5
		l-10.7-4.1l-16.1,32.8l6.5,2.5c3.8-8.1,13.4-28.6,13.4-28.6l-8,30.7l6.1,2.4l19.7-26.2c-3.5,6.7-14.5,28.2-14.5,28.2L480,385.5z"/>
	<path class="st3" d="M420.5,157.5c62.5,34,104.4,77.8,93.6,97.8c-10.9,20-70.4,8.5-132.9-25.5c-62.5-34.1-104.4-77.8-93.6-97.8
		C298.5,112,358,123.4,420.5,157.5z"/>
	<path class="st0" d="M420.6,157.5c62.5,34,104.4,77.8,93.6,97.8c-10.9,20-70.4,8.5-132.9-25.5c-62.5-34.1-104.4-77.8-93.6-97.8
		C298.5,112,358.1,123.5,420.6,157.5"/>
	<path class="st2" d="M471.2,232.2l-4-2.2l1.7-3c0.3-0.6,1.4-2.5,3.4-1.4c1.9,1,0.8,3,0.6,3.5L471.2,232.2z M474.4,239.3l4.1-7.5
		c2.2-4,0.8-8.2-3.7-10.6c-4.8-2.6-9.1-1.4-11.6,3.2l-5.7,10.5c-2.2,4-2.9,8.8,3.2,12.1c4.4,2.4,8.3,2.1,10.9-2.7l1.1-2l-5.3-2.9
		l-0.4,0.8c-0.9,1.7-2,3.3-3.8,2.3c-1.4-0.8-1.5-2.1-0.5-3.9l2.4-4.4L474.4,239.3z M450.2,227.8l-1.6,2.9c-0.8,1.5-2.1,3-3.9,2
		c-1.9-1-1.3-2.7-0.4-4.4l5.9-10.8c1.2-2.2,2.3-3.1,4.1-2.1c1.9,1,1.2,2.7,0.5,3.9l-1.6,3l5.5,3l1.8-3.3c3-5.5-1.1-9.1-4-10.6
		c-4.3-2.4-9.1-1.8-11.7,3.1l-6.2,11.4c-2.6,4.8-1.2,8.6,3.9,11.3c5.2,2.8,9.1,1.2,11.6-3.4l1.5-2.8L450.2,227.8z M431.2,230.2
		l11.1-20.3c1.3-2.3,1.4-5.7-2.2-7.7c-2.1-1.2-3.7-1-6-0.3l1-1.8l-5.6-3L416,221.9l5.5,3l9.7-17.9c1.3-2.4,2.5-3,4.2-2
		c1.5,0.8,1.3,2.1,0.3,4l-9.9,18.3L431.2,230.2z M409.3,211.5c-2,0.5-2.9,0.3-3.4,0c-1-0.5-0.9-1.5,0.2-3.4c1.3-2.5,2-3.3,3.5-3.4
		l3.7-0.4L409.3,211.5z M413,220.3c-0.6-1.4,0.5-3.5,1.5-5.4l8.2-15.1c3-5.5-3.5-9-4.1-9.3c-7.1-3.9-9.6,0.2-10.3,1.4l-1.5,2.8
		l5.1,2.8l0.5-0.9c1.2-2.3,2-3.2,3.7-2.3c1.3,0.7,1.7,1.5,0.6,3.6l-1,1.9l-7.4-0.1c-3.5-0.1-5,0.5-7,4.2l-0.9,1.7
		c-1.8,3.3-3,6.9,1.1,9.1c2.8,1.5,4.7,0.4,6.2-0.1c-0.6,1.2-0.7,1.8-0.5,2.5L413,220.3z M409.7,185.7l-0.3-0.1
		c-2.3-1.3-4.6-1-7.1,0.8l1.7-3.2l-5.5-3L385,205.1l5.5,3l8-14.6c1.4-2.5,3.2-5.1,6.5-3.3c0.9,0.5,1.3,1,1.6,1.4L409.7,185.7z
		 M380.9,202.9l13.5-24.8l-5.6-3l-9.6,17.5c-1,1.8-2,3.2-3.9,2.1s-1.2-2.6-0.4-4.1l9.7-17.8l-5.5-3l-10.7,19.6
		c-1.7,3-1.9,6.3,1.6,8.2c2.5,1.4,5.5,0.5,6.4,0.3l-1.1,2L380.9,202.9z M352.3,175.9l-1.5,2.7c-3,5.5,0.2,8.6,3.7,10.5
		c5.8,3.1,8.6,1.6,11.5-3.7c1.3-2.5,1.9-4.3,0.7-6.8l-3.1-6.5c-0.6-1.4-0.8-2.4-0.1-3.6c0.7-1.3,1.6-2,3.1-1.2
		c1.7,0.9,1.3,2.4,0.6,3.8l-1,1.8l4.8,2.6l1.5-2.8c1.3-2.4,2.3-6.1-3.7-9.4c-4.2-2.3-7.9-2.5-10.6,2.5c-1.6,2.9-1.4,5.4-0.4,7.5
		l2.7,5.9c0.8,1.8,0.8,2.3-0.1,4.1c-1.5,2.7-3.2,1.8-3.7,1.5c-2-1.1-1.1-3-0.5-4.1l1.2-2.1L352.3,175.9z M344.2,182.8l11.1-20.3
		c1.3-2.3,1.4-5.7-2.2-7.7c-2.1-1.2-3.7-1-6-0.3l1-1.8l-5.6-3L329,174.5l5.5,3l9.7-17.9c1.3-2.4,2.5-3,4.2-2.1
		c1.5,0.8,1.3,2.1,0.3,4l-9.9,18.3L344.2,182.8z M324.6,172.2l18.6-34.2l-6-3.3l-18.6,34.2L324.6,172.2z"/>
</g>
<g>
	<g>
		<defs>
			<path id="SVGID_1_" d="M202.6,460.9c25.8,0,49.5,8.9,68.2,23.8c9.8,7.8,18.2,17.2,24.8,27.9c10.5,16.8,16.6,36.7,16.6,58
				c0,60.5-49.1,109.6-109.6,109.6C142.1,680.1,93,631,93,570.5C93,510,142.1,460.9,202.6,460.9"/>
		</defs>
		<clipPath id="SVGID_2_">
			<use xlink:href="#SVGID_1_"  style="overflow:visible;"/>
		</clipPath>
		
			<linearGradient id="SVGID_3_" gradientUnits="userSpaceOnUse" x1="247.1459" y1="451.656" x2="282.95" y2="451.656" gradientTransform="matrix(6.1223 0 0 6.1228 -1420.0768 -2194.9053)">
			<stop  offset="0" style="stop-color:#547CBE"/>
			<stop  offset="1" style="stop-color:#73BE44"/>
		</linearGradient>
		<rect x="93" y="460.9" class="st4" width="219.2" height="219.2"/>
	</g>
	<path class="st5" d="M202.6,470.3c23.5,0,45.2,8.1,62.3,21.7c8.9,7.1,16.6,15.7,22.7,25.5c9.6,15.4,15.1,33.5,15.1,53
		c0,55.3-44.8,100.2-100.2,100.2c-55.3,0-100.2-44.9-100.2-100.2C102.4,515.2,147.2,470.3,202.6,470.3z"/>
	<g>
		<defs>
			<path id="SVGID_4_" d="M269.4,483.6c0,0,66-46.2,91.6-45.1l-65.3,74.1L269.4,483.6z"/>
		</defs>
		<clipPath id="SVGID_5_">
			<use xlink:href="#SVGID_4_"  style="overflow:visible;"/>
		</clipPath>
		
			<linearGradient id="SVGID_6_" gradientUnits="userSpaceOnUse" x1="268.3828" y1="454.2915" x2="304.1832" y2="454.2915" gradientTransform="matrix(2.5574 0 0 2.0699 -416.9939 -465.36)">
			<stop  offset="0" style="stop-color:#547CBE"/>
			<stop  offset="1" style="stop-color:#73BE44"/>
		</linearGradient>
		<rect x="269.4" y="437.4" class="st6" width="91.6" height="75.2"/>
	</g>
	<path class="st0" d="M130.6,567l13.7-12.9c6.8-6.5,14.3-8.6,20.7-1.1c6,7.1,19.5,23.9,23,33.9c0,0,65.4-101.4,162.1-144.5
		c-27.6,25.5-64.3,57-88.3,86.1c-23.7,28.7-64.4,83.2-79.3,118.4c0,0-13.1-39.9-52.6-75.5C127.1,569,127.7,569.7,130.6,567"/>
</g>
</svg>
